<?xml version="1.0" encoding="UTF-8" standalone="no"?>
<!-- Generator: Adobe Illustrator 24.2.3, SVG Export Plug-In . SVG Version: 6.00 Build 0)  -->

<svg
   version="1.1"
   id="Layer_1"
   x="0px"
   y="0px"
   viewBox="0 0 997.60064 214.94516"
   xml:space="preserve"
   width="997.60065"
   height="214.94516"
   xmlns="http://www.w3.org/2000/svg"
   xmlns:svg="http://www.w3.org/2000/svg"><defs
   id="defs31" />
<style
   type="text/css"
   id="style2">
	.st0{fill:#019B8F;}
	.st1{font-family:'GothamNarrow-Black';}
	.st2{font-size:65.5016px;}
	.st3{letter-spacing:12.4;}
	.st4{font-family:'GothamNarrow-Bold';}
	.st5{font-size:19.1466px;}
	.st6{letter-spacing:1;}
</style>
<g
   id="g4"
   transform="translate(-283.42,-469.00484)">
</g>
<path
   class="st0"
   d="m 338.14,144.28516 c -2.92,13.96 -7.5,24.32 -13.75,31.07 -6.25,6.75 -15.12,10.13 -26.63,10.13 -11.51,0 -19.01,-3.38 -22.51,-10.13 -3.5,-6.75 -3.79,-17.11 -0.87,-31.07 l 15.16,-72.509999 h -34.29 l -15.02,71.809999 c -1.87,8.94 -2.76,16.97 -2.76,24.16 h 0.07 l -0.09,0.42 c 0.01,2.66 0.14,5.23 0.41,7.65 1.02,9.05 3.77,16.46 8.25,22.21 4.47,5.76 10.53,10.01 18.16,12.78 7.63,2.77 16.67,4.14 27.1,4.14 10.28,0 19.81,-1.34 28.58,-4.03 8.77,-2.68 16.6,-6.91 23.48,-12.66 6.88,-5.75 12.78,-13.08 17.72,-21.98 4.93,-8.9 8.69,-19.56 11.29,-31.99 L 387.6,71.775161 h -34.29 z"
   id="path6" />
<polygon
   class="st0"
   points="857.72,539.07 828.29,679.81 936.91,679.81 943.03,650.58 868.7,650.58 873.88,625.8 947.07,625.8 953.23,596.34 880.04,596.34 885.9,568.3 960.23,568.3 966.34,539.07 "
   id="polygon8"
   transform="translate(-283.42,-469.00484)" />
<polygon
   class="st0"
   points="1128.82,539.07 1095.45,539.07 1075.93,632.42 1043.51,539.07 996.93,539.07 967.51,679.81 1000.88,679.81 1020.74,584.81 1056.98,679.81 1099.4,679.81 "
   id="polygon10"
   transform="translate(-283.42,-469.00484)" />
<polygon
   class="st0"
   points="1160.32,539.07 1130.9,679.81 1235.43,679.81 1241.54,650.58 1171.3,650.58 1176.48,625.8 1246.72,625.8 1252.88,596.34 1182.64,596.34 1188.51,568.3 1258.74,568.3 1264.85,539.07 "
   id="polygon12"
   transform="translate(-283.42,-469.00484)" />
<polygon
   class="st0"
   points="495.14,679.81 495.35,678.81 501.01,651.75 501.3,650.35 437.36,650.35 460.27,540.79 451,540.79 425.97,540.79 420.32,567.84 414.39,596.18 397.12,678.81 396.9,679.81 "
   id="polygon14"
   transform="translate(-283.42,-469.00484)" />
<g
   id="g20"
   transform="translate(-283.42,-469.00484)">
	<polygon
   class="st0"
   points="380.13,599.91 320.24,599.91 365.91,667.9 380.01,600.47 "
   id="polygon16" />
	<polygon
   class="st0"
   points="385.3,570.87 385.94,567.84 391.59,540.79 283.42,540.79 303.63,570.87 "
   id="polygon18" />
</g>
<path
   class="st0"
   d="m 458.75,179.30516 c -21.47,0 -35.23,-17.4 -30.74,-38.87 4.49,-21.47 25.53,-38.87 47,-38.87 16.65,0 28.62,10.49 31.08,25.2 h 34.87 c 0.61,-33.529999 -23.52,-58.879999 -58.91,-58.879999 -40.07,0 -79.34,32.479999 -87.72,72.549999 -8.38,40.07 17.31,72.55 57.38,72.55 34.46,0 68.28,-24.06 82.42,-56.28 h -35.38 c -8.96,13.33 -24.35,22.6 -40,22.6 z"
   id="path22" />
<g
   aria-label="APACHE"
   transform="matrix(0.9676,0,-0.2524,0.9676,261.8168,47.039361)"
   id="text24"
   class="st0 st1 st2 st3"
   style="font-size:65.5016px;font-family:GothamNarrow-Black;letter-spacing:12.4;fill:#019b8f"><path
     d="M 34.989625,-8.6994315 H 15.735736 L 12.697332,0 H 0.31983204 L 18.006544,-47.750924 H 32.686835 L 50.373547,0 h -12.3775 z M 18.806124,-17.558779 h 13.081131 l -6.524574,-18.998023 z"
     style="font-weight:bold;-inkscape-font-specification:'GothamNarrow-Black Bold'"
     id="path9720" /><path
     d="m 69.106219,-47.750924 h 20.437267 q 9.115213,0 13.976664,4.061867 4.89343,4.029884 4.89343,11.513954 0,7.516053 -4.89343,11.57792 -4.861451,4.029883 -13.976664,4.029883 H 81.419752 V 0 H 69.106219 Z m 12.313533,8.923314 v 13.336996 h 6.812423 q 3.582119,0 5.533094,-1.727093 1.950975,-1.759076 1.950975,-4.957396 0,-3.198321 -1.950975,-4.925414 -1.950975,-1.727093 -5.533094,-1.727093 z"
     style="font-weight:bold;-inkscape-font-specification:'GothamNarrow-Black Bold'"
     id="path9722" /><path
     d="M 152.47695,-8.6994315 H 133.22306 L 130.18465,0 h -12.3775 l 17.68671,-47.750924 h 14.68029 L 167.86087,0 h -12.3775 z m -16.18351,-8.8593475 h 13.08113 L 142.85,-36.556802 Z"
     style="font-weight:bold;-inkscape-font-specification:'GothamNarrow-Black Bold'"
     id="path9724" /><path
     d="m 224.46166,-2.6226227 q -3.39022,1.75907619 -7.06829,2.6546059 -3.67807,0.89552972 -7.67597,0.89552972 -11.92973,0 -18.90207,-6.65250642 -6.97234,-6.6844895 -6.97234,-18.1024935 0,-11.449987 6.97234,-18.102494 6.97234,-6.684489 18.90207,-6.684489 3.9979,0 7.67597,0.895529 3.67807,0.89553 7.06829,2.654606 v 9.88281 q -3.4222,-2.334774 -6.74846,-3.422202 -3.32625,-1.087429 -7.00432,-1.087429 -6.58854,0 -10.36256,4.221783 -3.77401,4.221783 -3.77401,11.641886 0,7.38812 3.77401,11.609903 3.77402,4.221783 10.36256,4.221783 3.67807,0 7.00432,-1.087429 3.32626,-1.087429 6.74846,-3.422203 z"
     style="font-weight:bold;-inkscape-font-specification:'GothamNarrow-Black Bold'"
     id="path9726" /><path
     d="m 247.0643,-47.750924 h 12.31353 v 18.198443 h 18.16646 v -18.198443 h 12.31353 V 0 H 277.54429 V -20.245368 H 259.37783 V 0 H 247.0643 Z"
     style="font-weight:bold;-inkscape-font-specification:'GothamNarrow-Black Bold'"
     id="path9728" /><path
     d="m 314.2835,-47.750924 h 33.23055 v 9.307113 h -20.91701 v 8.89133 h 19.66967 v 9.307113 h -19.66967 v 10.9382556 h 21.62064 V 0 H 314.2835 Z"
     style="font-weight:bold;-inkscape-font-specification:'GothamNarrow-Black Bold'"
     id="path9730" /></g>
<g
   aria-label="TM"
   id="text26"
   class="st0 st4 st5 st6"
   style="font-size:19.1466px;font-family:GothamNarrow-Bold;letter-spacing:1;fill:#019b8f"><path
     d="m 966.34752,196.34981 h 12.86412 v 2.72054 h -4.62772 v 11.2374 h -3.59934 v -11.2374 h -4.63706 z"
     style="font-weight:bold;-inkscape-font-specification:'GothamNarrow-Bold Bold'"
     id="path14467" /><path
     d="m 982.07208,196.34981 h 4.58097 l 3.17863,7.46979 3.19734,-7.46979 h 4.57162 v 13.95794 h -3.40301 v -10.20902 l -3.21603,7.52588 h -2.28114 l -3.21603,-7.52588 v 10.20902 h -3.41235 z"
     style="font-weight:bold;-inkscape-font-specification:'GothamNarrow-Bold Bold'"
     id="path14469" /></g>
</svg>
