<?xml version="1.0" encoding="utf-8"?>
<!-- Generator: Adobe Illustrator 24.2.3, SVG Export Plug-In . SVG Version: 6.00 Build 0)  -->
<svg version="1.1" xmlns="http://www.w3.org/2000/svg" xmlns:xlink="http://www.w3.org/1999/xlink" x="0px" y="0px"
	 viewBox="0 0 1024 499" style="enable-background:new 0 0 1024 499;" xml:space="preserve">
<style type="text/css">
	.st0{fill:#F1F1F1;}
	.st1{fill:#CCCCCC;}
	.st2{fill:none;stroke:#343434;stroke-width:3;stroke-miterlimit:10;}
	.st3{fill:#7CC0EB;}
	.st4{fill:none;stroke:#343434;stroke-width:2;stroke-miterlimit:10;}
	.st5{fill:#0C5C8D;}
	.st6{fill:#FFFFFF;}
	.st7{fill:#343434;}
	.st8{fill:#786CCD;}
	.st9{fill:#33208C;}
	.st10{fill:#694385;}
	.st11{fill:#8B5BA5;}
	.st12{fill:none;stroke:#666666;stroke-width:2;stroke-miterlimit:10;}
</style>
<g id="Background">
	<rect y="0" class="st0" width="1024" height="499"/>
</g>
<g id="art">
	<g>
		<path class="st1" d="M984,429.32019c0,11-9,20-20,20H60c-11,0-20-9-20-20V60c0-11,9-20,20-20h904c11,0,20,9,20,20V429.32019z"/>
		<path class="st2" d="M984,429.32019c0,11-9,20-20,20H60c-11,0-20-9-20-20V60c0-11,9-20,20-20h904c11,0,20,9,20,20V429.32019z"/>
	</g>
	<g>
		<path class="st3" d="M182,169.21321c0,3.73273-3.05406,6.78679-6.78679,6.78679H86.7868C83.05406,176,80,172.94594,80,169.21321
			V106.7868C80,103.05406,83.05406,100,86.7868,100h88.42641c3.73273,0,6.78679,3.05406,6.78679,6.7868V169.21321z"/>
		<path class="st4" d="M182,169.21321c0,3.73273-3.05406,6.78679-6.78679,6.78679H86.7868C83.05406,176,80,172.94594,80,169.21321
			V106.7868C80,103.05406,83.05406,100,86.7868,100h88.42641c3.73273,0,6.78679,3.05406,6.78679,6.7868V169.21321z"/>
	</g>
	<g>
		<path class="st5" d="M428,399.32019c0,5.5-4.5,10-10,10H178c-5.5,0-10-4.5-10-10V252.05347c0-5.5,4.5-10,10-10h240
			c5.5,0,10,4.5,10,10V399.32019z"/>
		<path class="st2" d="M428,399.32019c0,5.5-4.5,10-10,10H178c-5.5,0-10-4.5-10-10V252.05347c0-5.5,4.5-10,10-10h240
			c5.5,0,10,4.5,10,10V399.32019z"/>
	</g>
	<g>
		<path class="st6" d="M209.65234,327.99512h2.2207v13.34277h-2.2207V327.99512z"/>
		<path class="st6" d="M219.67334,334.75684c0-1.14062-0.52002-1.56055-1.38037-1.56055s-1.60059,0.66016-1.96045,1.33984v6.80176
			h-2.00049v-9.66211h2.00049v1.30078c0.52002-0.78027,1.60059-1.54102,2.80078-1.54102c1.74023,0,2.54053,0.95996,2.54053,2.62109
			v7.28125h-2.00049V334.75684z"/>
		<path class="st6" d="M224.17188,338.79688c0.58008,0.64062,1.6001,1.20117,2.60059,1.20117c1,0,1.6001-0.46094,1.6001-1.20117
			c0-0.7998-0.83984-1.16016-1.82031-1.51953c-1.36035-0.48047-2.96045-1.06055-2.96045-3.08105
			c0-1.5,1.2002-2.76074,3.3208-2.76074c1.34033,0,2.42041,0.5,3.18066,1.24023l-0.84033,1.36035
			c-0.47998-0.58008-1.34033-1.02051-2.30029-1.02051c-0.90039,0-1.48047,0.44043-1.48047,1.06055
			c0,0.7207,0.80029,1.06055,1.76025,1.40039c1.38037,0.5,3.04053,1.10059,3.04053,3.2207
			c0,1.66016-1.33984,2.88086-3.46045,2.88086c-1.48047,0-2.7207-0.5-3.54102-1.38086L224.17188,338.79688z"/>
		<path class="st6" d="M231.7915,328.83496c0-0.7002,0.58008-1.25977,1.26025-1.25977s1.24023,0.55957,1.24023,1.25977
			c0,0.68066-0.56006,1.24023-1.24023,1.24023S231.7915,329.51562,231.7915,328.83496z M232.05127,331.67578h2.00049v9.66211
			h-2.00049V331.67578z"/>
		<path class="st6" d="M241.93262,340.05762c-0.58057,0.95996-1.52051,1.52051-2.48096,1.52051
			c-2.16016,0-3.52051-1.96094-3.52051-5.06152c0-3.06055,1.34033-5.08105,3.52051-5.08105c0.94043,0,1.90039,0.5,2.48096,1.54102
			v-4.98145h2v13.34277h-2V340.05762z M241.93262,334.5166c-0.34033-0.7207-1.12061-1.32031-1.88086-1.32031
			c-1.37988,0-2.06006,1.44043-2.06006,3.32031c0,1.84082,0.68018,3.30078,2.06006,3.30078
			c0.76025,0,1.54053-0.59961,1.88086-1.32031V334.5166z"/>
		<path class="st6" d="M249.95166,331.43555c2.62109,0,4.02148,2.2207,4.02148,5.1416v0.58008h-6.1416
			c0.08008,1.58008,0.95996,2.78027,2.52051,2.78027c0.75977,0,1.62012-0.37988,2.18066-1.04004l0.95996,1.2002
			c-0.82031,0.94043-2.04004,1.48047-3.34082,1.48047c-2.66064,0-4.34082-2.08105-4.34082-5.08105
			C245.81104,333.69629,247.37109,331.43555,249.95166,331.43555z M247.81152,335.73633h4.22119
			c-0.02051-1.2002-0.56055-2.68066-2.10059-2.68066C248.43164,333.05566,247.87158,334.57617,247.81152,335.73633z"/>
		<path class="st6" d="M263.77197,331.43555c1.44043,0,2.36035,0.58008,2.94043,1.30078l-1.02051,1.36035
			c-0.47949-0.62012-1.02051-0.90039-1.7207-0.90039c-1.51953,0-2.37988,1.45996-2.37988,3.30078
			c0,1.83984,0.86035,3.32031,2.37988,3.32031c0.7002,0,1.24121-0.2998,1.7207-0.90039l1.02051,1.36035
			c-0.58008,0.7207-1.5,1.30078-2.94043,1.30078c-2.58105,0-4.24121-2.16016-4.24121-5.08105
			S261.19092,331.43555,263.77197,331.43555z"/>
		<path class="st6" d="M273.67139,334.7168c0-1.12012-0.54004-1.52051-1.40039-1.52051c-0.83984,0-1.58008,0.66016-1.95996,1.33984
			v6.80176h-2v-13.34277h2v4.98145c0.52051-0.78027,1.62012-1.54102,2.82031-1.54102c1.7207,0,2.52051,0.90039,2.52051,2.60059
			v7.30176h-1.98047V334.7168z"/>
		<path class="st6" d="M277.75049,328.83496c0-0.7002,0.58008-1.25977,1.26074-1.25977c0.67969,0,1.24023,0.55957,1.24023,1.25977
			c0,0.68066-0.56055,1.24023-1.24023,1.24023C278.33057,330.0752,277.75049,329.51562,277.75049,328.83496z M278.01123,331.67578h2
			v9.66211h-2V331.67578z"/>
		<path class="st6" d="M282.37061,327.99512h2v13.34277h-2V327.99512z"/>
		<path class="st6" d="M292.25049,340.05762c-0.58008,0.95996-1.52051,1.52051-2.48047,1.52051
			c-2.16016,0-3.52051-1.96094-3.52051-5.06152c0-3.06055,1.33984-5.08105,3.52051-5.08105c0.94043,0,1.90039,0.5,2.48047,1.54102
			v-4.98145h2.00098v13.34277h-2.00098V340.05762z M292.25049,334.5166c-0.33984-0.7207-1.12012-1.32031-1.87988-1.32031
			c-1.38086,0-2.06055,1.44043-2.06055,3.32031c0,1.84082,0.67969,3.30078,2.06055,3.30078
			c0.75977,0,1.54004-0.59961,1.87988-1.32031V334.5166z"/>
		<path class="st6" d="M306.19092,334.75684c0-1.14062-0.52051-1.56055-1.38086-1.56055c-0.85938,0-1.59961,0.66016-1.95996,1.33984
			v6.80176h-2v-9.66211h2v1.30078c0.52051-0.78027,1.60059-1.54102,2.80078-1.54102c1.74023,0,2.54004,0.95996,2.54004,2.62109
			v7.28125h-2V334.75684z"/>
		<path class="st6" d="M315.55127,340.35742c-0.58008,0.80078-1.56055,1.2207-2.54102,1.2207
			c-1.56055,0-2.96094-1.16016-2.96094-3.2207c0-2.08105,1.40039-3.14062,2.96094-3.14062
			c0.98047,0,1.98047,0.37988,2.54102,1.16016v-1.40039c0-1.16016-0.68066-1.84082-1.88086-1.84082
			c-0.86035,0-1.66016,0.34082-2.40039,1.10059l-0.78027-1.40039c0.98047-0.98047,2.30078-1.40039,3.54102-1.40039
			c2.02051,0,3.50098,0.94043,3.50098,3.30078v6.60156h-1.98047V340.35742z M315.55127,337.67676
			c-0.38086-0.67969-1.10059-1.08008-1.82031-1.08008c-1.04102,0-1.68066,0.76074-1.68066,1.80078s0.63965,1.7998,1.68066,1.7998
			c0.71973,0,1.43945-0.39941,1.82031-1.05957V337.67676z"/>
		<path class="st6" d="M329.97217,334.61621c0-0.90039-0.36035-1.41992-1.2002-1.41992c-0.80078,0-1.52051,0.7002-1.84082,1.33984
			v6.80176h-2v-6.72168c0-0.87988-0.36035-1.41992-1.2002-1.41992c-0.80078,0-1.50098,0.7002-1.84082,1.33984v6.80176h-2v-9.66211h2
			v1.30078c0.37988-0.68066,1.48047-1.54102,2.68066-1.54102c1.21973,0,2.04004,0.62012,2.26074,1.7002
			c0.45996-0.85938,1.58008-1.7002,2.78027-1.7002c1.45996,0,2.36035,0.78027,2.36035,2.54102v7.36133h-2V334.61621z"/>
		<path class="st6" d="M337.98975,331.43555c2.62109,0,4.02148,2.2207,4.02148,5.1416v0.58008h-6.1416
			c0.08008,1.58008,0.95996,2.78027,2.52051,2.78027c0.75977,0,1.62012-0.37988,2.18066-1.04004l0.95996,1.2002
			c-0.82031,0.94043-2.04004,1.48047-3.34082,1.48047c-2.66016,0-4.34082-2.08105-4.34082-5.08105
			C333.84912,333.69629,335.40967,331.43555,337.98975,331.43555z M335.84912,335.73633h4.22168
			c-0.02051-1.2002-0.56055-2.68066-2.10059-2.68066C336.46924,333.05566,335.90967,334.57617,335.84912,335.73633z"/>
		<path class="st6" d="M343.94971,338.79688c0.58008,0.64062,1.60059,1.20117,2.60059,1.20117s1.60059-0.46094,1.60059-1.20117
			c0-0.7998-0.84082-1.16016-1.82031-1.51953c-1.36035-0.48047-2.96094-1.06055-2.96094-3.08105
			c0-1.5,1.2002-2.76074,3.32031-2.76074c1.34082,0,2.4209,0.5,3.18066,1.24023l-0.83984,1.36035
			c-0.48047-0.58008-1.33984-1.02051-2.30078-1.02051c-0.89941,0-1.48047,0.44043-1.48047,1.06055
			c0,0.7207,0.80078,1.06055,1.76074,1.40039c1.38086,0.5,3.04102,1.10059,3.04102,3.2207
			c0,1.66016-1.34082,2.88086-3.46094,2.88086c-1.48047,0-2.7207-0.5-3.54102-1.38086L343.94971,338.79688z"/>
		<path class="st6" d="M351.82959,345.01855v-13.34277h2v1.28027c0.56055-0.95996,1.5-1.52051,2.48047-1.52051
			c2.18066,0,3.52051,1.94043,3.52051,5.06152c0,3.08008-1.33984,5.08105-3.52051,5.08105c-0.95996,0-1.90039-0.5-2.48047-1.54004
			v4.98047H351.82959z M355.71045,333.19629c-0.76074,0-1.54102,0.58008-1.88086,1.32031v3.96094
			c0.33984,0.71973,1.12012,1.33984,1.88086,1.33984c1.37988,0,2.05957-1.45996,2.05957-3.32031
			S357.09033,333.19629,355.71045,333.19629z"/>
		<path class="st6" d="M366.69092,340.35742c-0.58008,0.80078-1.56055,1.2207-2.54102,1.2207
			c-1.56055,0-2.96094-1.16016-2.96094-3.2207c0-2.08105,1.40039-3.14062,2.96094-3.14062
			c0.98047,0,1.98047,0.37988,2.54102,1.16016v-1.40039c0-1.16016-0.68066-1.84082-1.88086-1.84082
			c-0.86035,0-1.66016,0.34082-2.40039,1.10059l-0.78027-1.40039c0.98047-0.98047,2.30078-1.40039,3.54102-1.40039
			c2.02051,0,3.50098,0.94043,3.50098,3.30078v6.60156h-1.98047V340.35742z M366.69092,337.67676
			c-0.38086-0.67969-1.10059-1.08008-1.82031-1.08008c-1.04102,0-1.68066,0.76074-1.68066,1.80078s0.63965,1.7998,1.68066,1.7998
			c0.71973,0,1.43945-0.39941,1.82031-1.05957V337.67676z"/>
		<path class="st6" d="M374.79053,331.43555c1.44043,0,2.36035,0.58008,2.94043,1.30078l-1.02051,1.36035
			c-0.47949-0.62012-1.02051-0.90039-1.7207-0.90039c-1.51953,0-2.37988,1.45996-2.37988,3.30078
			c0,1.83984,0.86035,3.32031,2.37988,3.32031c0.7002,0,1.24121-0.2998,1.7207-0.90039l1.02051,1.36035
			c-0.58008,0.7207-1.5,1.30078-2.94043,1.30078c-2.58105,0-4.24121-2.16016-4.24121-5.08105
			S372.20947,331.43555,374.79053,331.43555z"/>
		<path class="st6" d="M382.98975,331.43555c2.62109,0,4.02148,2.2207,4.02148,5.1416v0.58008h-6.1416
			c0.08008,1.58008,0.95996,2.78027,2.52051,2.78027c0.75977,0,1.62012-0.37988,2.18066-1.04004l0.95996,1.2002
			c-0.82031,0.94043-2.04004,1.48047-3.34082,1.48047c-2.66016,0-4.34082-2.08105-4.34082-5.08105
			C378.84912,333.69629,380.40967,331.43555,382.98975,331.43555z M380.84912,335.73633h4.22168
			c-0.02051-1.2002-0.56055-2.68066-2.10059-2.68066C381.46924,333.05566,380.90967,334.57617,380.84912,335.73633z"/>
	</g>
	<g>
		<path class="st6" d="M185.83838,361.40137h5.90479c3.28809,0,4.94434,2.37695,4.94434,5.11328
			c0,2.73535-1.65625,5.08789-4.94434,5.08789h-2.68848v5.80859h-3.21631V361.40137z M191.35889,364.20996h-2.3042v4.6084h2.3042
			c1.22412,0,2.04004-0.93652,2.04004-2.30371C193.39893,365.12207,192.58301,364.20996,191.35889,364.20996z"/>
		<path class="st6" d="M198.62988,361.40137h3.21631v16.00977h-3.21631V361.40137z"/>
		<path class="st6" d="M204.67773,361.40137h5.16016c4.41699,0,6.96094,3.3125,6.96094,8.0166
			c0,4.70508-2.52051,7.99316-6.96094,7.99316h-5.16016V361.40137z M209.83789,374.5791c2.37695,0,3.67285-2.1123,3.67285-5.16113
			c0-3.16797-1.24805-5.18359-3.67285-5.18359h-1.94336v10.34473H209.83789z"/>
		<path class="st6" d="M230.43066,369.77832c0-1.22363-0.55176-1.7041-1.5127-1.7041c-0.95996,0-1.7041,0.74414-2.11133,1.44043
			v7.89648h-2.88086v-11.59277h2.88086v1.51172c0.62402-0.91211,1.91992-1.7998,3.4082-1.7998
			c2.13574,0,3.0957,1.24805,3.0957,3.16797v8.71289h-2.87988V369.77832z"/>
		<path class="st6" d="M241.92676,376.25879c-0.64844,0.91211-1.87207,1.44043-3.04883,1.44043
			c-1.82422,0-3.57617-1.36816-3.57617-3.84082c0-2.54395,1.75195-3.74414,3.57617-3.74414c1.2002,0,2.4248,0.45605,3.04883,1.36816
			v-1.53613c0-1.24805-0.76855-2.01562-2.13672-2.01562c-1.00781,0-1.99219,0.40723-2.85645,1.24805l-1.08008-1.96875
			c1.22461-1.17578,2.97656-1.67969,4.46484-1.67969c2.52051,0,4.5127,1.12793,4.5127,4.10449v7.77637h-2.9043V376.25879z
			 M241.92676,373.16309c-0.38379-0.69629-1.15234-1.12891-1.94434-1.12891c-1.08008,0-1.7998,0.76855-1.7998,1.87305
			c0,1.10352,0.71973,1.84766,1.7998,1.84766c0.79199,0,1.56055-0.38379,1.94434-1.10352V373.16309z"/>
		<path class="st6" d="M259.80762,369.61035c0-0.95996-0.4082-1.53613-1.32031-1.53613s-1.63281,0.79199-1.99219,1.44043v7.89648
			h-2.88086v-7.80078c0-0.93555-0.38379-1.53613-1.31934-1.53613c-0.88867,0-1.63281,0.79199-1.99219,1.44043v7.89648h-2.88086
			v-11.59277h2.88086v1.51172c0.45605-0.79199,1.7998-1.7998,3.26367-1.7998s2.49609,0.69629,2.80859,2.01562
			c0.55176-1.00781,1.91992-2.01562,3.38379-2.01562c1.77637,0,2.92871,0.93555,2.92871,3.07227v8.80859h-2.87988V369.61035z"/>
		<path class="st6" d="M269.8623,365.53027c3.19238,0,4.99219,2.5918,4.99219,6.19238v0.81641h-7.27246
			c0.12012,1.58398,1.05566,2.83203,2.80762,2.83203c0.88867,0,1.87207-0.4082,2.52051-1.12793l1.32031,1.72754
			c-1.03223,1.12793-2.59277,1.72852-4.15234,1.72852c-3.26465,0-5.40039-2.44824-5.40039-6.09668
			C264.67773,368.24219,266.64551,365.53027,269.8623,365.53027z M267.58203,370.57031h4.48828
			c-0.04785-1.2002-0.57617-2.71191-2.25684-2.71191C268.20605,367.8584,267.62988,369.37012,267.58203,370.57031z"/>
		<path class="st6" d="M277.10938,374.02637c0.7207,0.76855,2.0166,1.41699,3.19238,1.41699c1.10449,0,1.7041-0.45605,1.7041-1.2002
			c0-0.79199-0.8877-1.12793-1.99219-1.48828c-1.63184-0.52832-3.74414-1.15234-3.74414-3.74414
			c0-1.87207,1.51172-3.48047,4.22461-3.48047c1.65625,0,3.02441,0.59961,4.03223,1.48828l-1.15234,1.94336
			c-0.57617-0.64746-1.65625-1.19922-2.83203-1.19922c-0.91211,0-1.53613,0.43164-1.53613,1.08008
			c0,0.69531,0.79199,1.03125,1.87207,1.36816c1.68066,0.52734,3.88867,1.22363,3.88867,3.8877
			c0,2.08887-1.7041,3.60059-4.41699,3.60059c-1.87207,0-3.47949-0.62402-4.46387-1.65625L277.10938,374.02637z"/>
		<path class="st6" d="M286.66113,381.82715v-16.00879h2.88086v1.46387c0.71973-1.15234,1.7998-1.75195,2.92773-1.75195
			c2.61621,0,4.29688,2.28027,4.29688,6.07227c0,3.76855-1.68066,6.09668-4.29688,6.09668
			c-1.10352,0-2.20801-0.55176-2.92773-1.75195v5.87988H286.66113z M291.53418,368.07422c-0.76855,0-1.6084,0.57617-1.99219,1.34375
			v4.36914c0.38379,0.74414,1.22363,1.36816,1.99219,1.36816c1.4873,0,2.25586-1.5127,2.25586-3.55273
			C293.79004,369.58691,293.02148,368.07422,291.53418,368.07422z"/>
		<path class="st6" d="M304.75781,376.25879c-0.64844,0.91211-1.87207,1.44043-3.04883,1.44043
			c-1.82422,0-3.57617-1.36816-3.57617-3.84082c0-2.54395,1.75195-3.74414,3.57617-3.74414c1.2002,0,2.4248,0.45605,3.04883,1.36816
			v-1.53613c0-1.24805-0.76855-2.01562-2.13672-2.01562c-1.00781,0-1.99219,0.40723-2.85547,1.24805l-1.08105-1.96875
			c1.22461-1.17578,2.97656-1.67969,4.46484-1.67969c2.52051,0,4.5127,1.12793,4.5127,4.10449v7.77637h-2.9043V376.25879z
			 M304.75781,373.16309c-0.38477-0.69629-1.15234-1.12891-1.94434-1.12891c-1.08008,0-1.7998,0.76855-1.7998,1.87305
			c0,1.10352,0.71973,1.84766,1.7998,1.84766c0.79199,0,1.55957-0.38379,1.94434-1.10352V373.16309z"/>
		<path class="st6" d="M314.95801,365.53027c1.82324,0,3.02344,0.74414,3.69629,1.55957l-1.44043,1.99219
			c-0.52832-0.64746-1.15234-1.00781-1.94434-1.00781c-1.65625,0-2.64062,1.5127-2.64062,3.52832
			c0,2.0166,0.98438,3.55273,2.64062,3.55273c0.79199,0,1.41602-0.36035,1.94434-1.00879l1.44043,1.99219
			c-0.67285,0.81641-1.87305,1.56055-3.69629,1.56055c-3.19238,0-5.30469-2.54395-5.30469-6.09668
			C309.65332,368.07422,311.76562,365.53027,314.95801,365.53027z"/>
		<path class="st6" d="M324.94141,365.53027c3.19238,0,4.99219,2.5918,4.99219,6.19238v0.81641h-7.27246
			c0.12012,1.58398,1.05566,2.83203,2.80762,2.83203c0.88867,0,1.87207-0.4082,2.52051-1.12793l1.32031,1.72754
			c-1.03223,1.12793-2.59277,1.72852-4.15234,1.72852c-3.26465,0-5.40039-2.44824-5.40039-6.09668
			C319.75684,368.24219,321.72461,365.53027,324.94141,365.53027z M322.66113,370.57031h4.48828
			c-0.04785-1.2002-0.57617-2.71191-2.25684-2.71191C323.28516,367.8584,322.70898,369.37012,322.66113,370.57031z"/>
		<path class="st6" d="M336.65234,374.81934c5.85742-5.68848,7.08105-6.96094,7.08105-8.78516
			c0-1.22461-0.93652-2.0166-2.13574-2.0166c-1.41699,0-2.54492,0.64844-3.40918,1.80078l-1.91992-2.0166
			c1.2959-1.72754,3.19238-2.63965,5.37695-2.63965c3.0957,0,5.35254,1.87207,5.35254,4.84766
			c0,2.4248-1.63281,4.48926-5.66504,8.56934h5.73633v2.83203h-10.41699V374.81934z"/>
		<path class="st6" d="M354.19629,371.5791c0-3.86523,1.17676-7.65723,3.19238-10.60938l1.94434,1.15234
			c-1.2959,2.95215-2.01562,5.80859-2.01562,9.45703c0,3.64746,0.71973,6.50391,2.01562,9.43262l-1.94434,1.17578
			C355.37305,379.25977,354.19629,375.44336,354.19629,371.5791z"/>
		<path class="st6" d="M365.78906,365.53027c1.82324,0,3.02344,0.74414,3.69629,1.55957l-1.44043,1.99219
			c-0.52832-0.64746-1.15234-1.00781-1.94434-1.00781c-1.65625,0-2.64062,1.5127-2.64062,3.52832
			c0,2.0166,0.98438,3.55273,2.64062,3.55273c0.79199,0,1.41602-0.36035,1.94434-1.00879l1.44043,1.99219
			c-0.67285,0.81641-1.87305,1.56055-3.69629,1.56055c-3.19238,0-5.30469-2.54395-5.30469-6.09668
			C360.48438,368.07422,362.59668,365.53027,365.78906,365.53027z"/>
		<path class="st6" d="M377.71582,369.73047c0-1.2002-0.5752-1.65625-1.53613-1.65625c-0.93555,0-1.7041,0.74414-2.08789,1.44043
			v7.89648h-2.9043v-16.00977h2.9043v5.92871c0.60059-0.91211,1.89648-1.7998,3.38477-1.7998
			c2.16016,0,3.12012,1.17578,3.12012,3.12012v8.76074h-2.88086V369.73047z"/>
		<path class="st6" d="M382.89941,362.38574c0-0.95996,0.79199-1.75195,1.72852-1.75195c0.95996,0,1.72852,0.79199,1.72852,1.75195
			s-0.76855,1.72852-1.72852,1.72852C383.69141,364.11426,382.89941,363.3457,382.89941,362.38574z M383.1875,365.81836h2.88086
			v11.59277h-2.88086V365.81836z"/>
		<path class="st6" d="M388.65918,361.40137h2.88086v16.00977h-2.88086V361.40137z"/>
		<path class="st6" d="M400.75586,375.94727c-0.7207,1.15137-1.82422,1.75195-2.92871,1.75195
			c-2.61621,0-4.2959-2.28027-4.2959-6.07227c0-3.7207,1.67969-6.09668,4.2959-6.09668c1.10449,0,2.20801,0.55176,2.92871,1.75195
			v-5.88086h2.87988v16.00977h-2.87988V375.94727z M400.75586,369.44238c-0.38379-0.76758-1.22461-1.36816-2.0166-1.36816
			c-1.46387,0-2.23242,1.5127-2.23242,3.55273c0,2.01562,0.76855,3.52832,2.23242,3.52832c0.79199,0,1.63281-0.60059,2.0166-1.36816
			V369.44238z"/>
		<path class="st6" d="M405.38672,362.12207l1.94434-1.15234c2.04004,2.95215,3.21582,6.74414,3.21582,10.60938
			c0,3.86426-1.17578,7.68066-3.21582,10.6084l-1.94434-1.17578c1.32031-2.92871,2.0166-5.78516,2.0166-9.43262
			C407.40332,367.93066,406.70703,365.07422,405.38672,362.12207z"/>
	</g>
	<g>
		<path class="st7" d="M401.36328,159.73242c4.20068,0,6.69678,3.52734,6.69678,8.2793c0,4.77734-2.49609,8.28125-6.69678,8.28125
			c-4.17627,0-6.67236-3.50391-6.67236-8.28125C394.69092,163.25977,397.18701,159.73242,401.36328,159.73242z M401.36328,162.58789
			c-2.18408,0-3.35986,2.32812-3.35986,5.42383c0,3.04883,1.17578,5.42578,3.35986,5.42578
			c2.2085,0,3.40869-2.37695,3.40869-5.42578C404.77197,164.91602,403.57178,162.58789,401.36328,162.58789z"/>
		<path class="st7" d="M416.65186,174.54102c-0.62402,0.91211-1.89648,1.75195-3.4082,1.75195
			c-2.13672,0-3.09668-1.17578-3.09668-3.11914v-8.76172h2.88086v7.65625c0,1.22461,0.5752,1.68164,1.53613,1.68164
			c0.93555,0,1.67969-0.69727,2.08789-1.41602v-7.92188h2.87988v11.59375h-2.87988V174.54102z"/>
		<path class="st7" d="M422.62646,173.2207v-6.28906h-1.51172v-2.51953h1.51172v-3.16797h2.88086v3.16797h1.91992v2.51953h-1.91992
			v5.61719c0,0.74414,0.28809,1.20117,0.83984,1.20117c0.36035,0,0.71973-0.14453,0.86426-0.33594l0.59961,2.20703
			c-0.43164,0.38477-1.17578,0.67188-2.23242,0.67188C423.56299,176.29297,422.62646,175.26172,422.62646,173.2207z"/>
		<path class="st7" d="M429.60986,172.62109c0.7207,0.76758,2.0166,1.41602,3.19238,1.41602
			c1.10449,0,1.7041-0.45508,1.7041-1.19922c0-0.79297-0.8877-1.12891-1.99219-1.48828
			c-1.63184-0.5293-3.74414-1.15234-3.74414-3.74414c0-1.87305,1.51172-3.48047,4.22461-3.48047
			c1.65625,0,3.02441,0.59961,4.03223,1.48828l-1.15234,1.94336c-0.57617-0.64844-1.65625-1.19922-2.83203-1.19922
			c-0.91211,0-1.53613,0.43164-1.53613,1.08008c0,0.69531,0.79199,1.03125,1.87207,1.36719
			c1.68066,0.52734,3.88867,1.22461,3.88867,3.88867c0,2.08789-1.7041,3.59961-4.41699,3.59961
			c-1.87207,0-3.47949-0.62305-4.46387-1.65625L429.60986,172.62109z"/>
		<path class="st7" d="M438.87354,160.98047c0-0.96094,0.79199-1.75195,1.72852-1.75195c0.95996,0,1.72852,0.79102,1.72852,1.75195
			c0,0.95898-0.76855,1.72852-1.72852,1.72852C439.66553,162.70898,438.87354,161.93945,438.87354,160.98047z M439.16162,164.41211
			h2.88086v11.59375h-2.88086V164.41211z"/>
		<path class="st7" d="M451.2583,174.54102c-0.7207,1.15234-1.82422,1.75195-2.92871,1.75195
			c-2.61621,0-4.2959-2.2793-4.2959-6.07227c0-3.7207,1.67969-6.0957,4.2959-6.0957c1.10449,0,2.20801,0.55078,2.92871,1.75195
			v-5.88086h2.87988v16.00977h-2.87988V174.54102z M451.2583,168.03711c-0.38379-0.76758-1.22461-1.36914-2.0166-1.36914
			c-1.46387,0-2.23242,1.51367-2.23242,3.55273c0,2.01562,0.76855,3.5293,2.23242,3.5293c0.79199,0,1.63281-0.60156,2.0166-1.36914
			V168.03711z"/>
		<path class="st7" d="M461.31396,164.125c3.19238,0,4.99219,2.5918,4.99219,6.19141v0.81641h-7.27246
			c0.12012,1.58398,1.05566,2.83203,2.80762,2.83203c0.88867,0,1.87207-0.4082,2.52051-1.12695l1.32031,1.72656
			c-1.03223,1.12891-2.59277,1.72852-4.15234,1.72852c-3.26465,0-5.40039-2.44727-5.40039-6.0957
			C456.12939,166.83594,458.09717,164.125,461.31396,164.125z M459.03369,169.16406h4.48828
			c-0.04785-1.19922-0.57617-2.71094-2.25684-2.71094C459.65771,166.45312,459.08154,167.96484,459.03369,169.16406z"/>
		<path class="st7" d="M477.97021,164.125c1.82324,0,3.02344,0.74414,3.69629,1.55859l-1.44043,1.99219
			c-0.52832-0.64648-1.15234-1.00781-1.94434-1.00781c-1.65625,0-2.64062,1.51367-2.64062,3.5293s0.98438,3.55273,2.64062,3.55273
			c0.79199,0,1.41602-0.36133,1.94434-1.00977l1.44043,1.99219c-0.67285,0.81641-1.87305,1.56055-3.69629,1.56055
			c-3.19238,0-5.30469-2.54297-5.30469-6.0957C472.66553,166.66797,474.77783,164.125,477.97021,164.125z"/>
		<path class="st7" d="M489.89697,168.32422c0-1.19922-0.5752-1.65625-1.53613-1.65625c-0.93555,0-1.7041,0.74414-2.08789,1.44141
			v7.89648h-2.9043v-16.00977h2.9043v5.92773c0.60059-0.91211,1.89648-1.79883,3.38477-1.79883
			c2.16016,0,3.12012,1.17578,3.12012,3.11914v8.76172h-2.88086V168.32422z"/>
		<path class="st7" d="M495.08057,160.98047c0-0.96094,0.79199-1.75195,1.72852-1.75195c0.95996,0,1.72852,0.79102,1.72852,1.75195
			c0,0.95898-0.76855,1.72852-1.72852,1.72852C495.87256,162.70898,495.08057,161.93945,495.08057,160.98047z M495.36865,164.41211
			h2.88086v11.59375h-2.88086V164.41211z"/>
		<path class="st7" d="M500.84033,159.99609h2.88086v16.00977h-2.88086V159.99609z"/>
		<path class="st7" d="M512.93701,174.54102c-0.7207,1.15234-1.82422,1.75195-2.92871,1.75195
			c-2.61621,0-4.2959-2.2793-4.2959-6.07227c0-3.7207,1.67969-6.0957,4.2959-6.0957c1.10449,0,2.20801,0.55078,2.92871,1.75195
			v-5.88086h2.87988v16.00977h-2.87988V174.54102z M512.93701,168.03711c-0.38379-0.76758-1.22461-1.36914-2.0166-1.36914
			c-1.46387,0-2.23242,1.51367-2.23242,3.55273c0,2.01562,0.76855,3.5293,2.23242,3.5293c0.79199,0,1.63281-0.60156,2.0166-1.36914
			V168.03711z"/>
		<path class="st7" d="M529.95215,168.37305c0-1.22461-0.55176-1.70508-1.5127-1.70508c-0.95996,0-1.7041,0.74414-2.11133,1.44141
			v7.89648h-2.88086v-11.59375h2.88086v1.51172c0.62402-0.91211,1.91992-1.79883,3.4082-1.79883
			c2.13574,0,3.0957,1.24805,3.0957,3.16797v8.71289h-2.87988V168.37305z"/>
		<path class="st7" d="M541.44824,174.85352c-0.64844,0.91211-1.87207,1.43945-3.04883,1.43945
			c-1.82422,0-3.57617-1.36719-3.57617-3.83984c0-2.54492,1.75195-3.74414,3.57617-3.74414c1.2002,0,2.4248,0.45508,3.04883,1.36719
			v-1.53516c0-1.24805-0.76855-2.01562-2.13672-2.01562c-1.00781,0-1.99219,0.40625-2.85645,1.24805l-1.08008-1.96875
			c1.22461-1.17578,2.97656-1.67969,4.46484-1.67969c2.52051,0,4.5127,1.12695,4.5127,4.10352v7.77734h-2.9043V174.85352z
			 M541.44824,171.75781c-0.38379-0.69727-1.15234-1.12891-1.94434-1.12891c-1.08008,0-1.7998,0.76758-1.7998,1.87305
			c0,1.10352,0.71973,1.84766,1.7998,1.84766c0.79199,0,1.56055-0.38477,1.94434-1.10352V171.75781z"/>
		<path class="st7" d="M559.3291,168.20508c0-0.96094-0.4082-1.53711-1.32031-1.53711s-1.63281,0.79297-1.99219,1.44141v7.89648
			h-2.88086v-7.80078c0-0.93555-0.38379-1.53711-1.31934-1.53711c-0.88867,0-1.63281,0.79297-1.99219,1.44141v7.89648h-2.88086
			v-11.59375h2.88086v1.51172c0.45605-0.79102,1.7998-1.79883,3.26367-1.79883s2.49609,0.69531,2.80859,2.01562
			c0.55176-1.00781,1.91992-2.01562,3.38379-2.01562c1.77637,0,2.92871,0.93555,2.92871,3.07227v8.80859h-2.87988V168.20508z"/>
		<path class="st7" d="M569.38379,164.125c3.19238,0,4.99219,2.5918,4.99219,6.19141v0.81641h-7.27246
			c0.12012,1.58398,1.05566,2.83203,2.80762,2.83203c0.88867,0,1.87207-0.4082,2.52051-1.12695l1.32031,1.72656
			c-1.03223,1.12891-2.59277,1.72852-4.15234,1.72852c-3.26465,0-5.40039-2.44727-5.40039-6.0957
			C564.19922,166.83594,566.16699,164.125,569.38379,164.125z M567.10352,169.16406h4.48828
			c-0.04785-1.19922-0.57617-2.71094-2.25684-2.71094C567.72754,166.45312,567.15137,167.96484,567.10352,169.16406z"/>
		<path class="st7" d="M576.63086,172.62109c0.7207,0.76758,2.0166,1.41602,3.19238,1.41602
			c1.10449,0,1.7041-0.45508,1.7041-1.19922c0-0.79297-0.8877-1.12891-1.99219-1.48828
			c-1.63184-0.5293-3.74414-1.15234-3.74414-3.74414c0-1.87305,1.51172-3.48047,4.22461-3.48047
			c1.65625,0,3.02441,0.59961,4.03223,1.48828l-1.15234,1.94336c-0.57617-0.64844-1.65625-1.19922-2.83203-1.19922
			c-0.91211,0-1.53613,0.43164-1.53613,1.08008c0,0.69531,0.79199,1.03125,1.87207,1.36719
			c1.68066,0.52734,3.88867,1.22461,3.88867,3.88867c0,2.08789-1.7041,3.59961-4.41699,3.59961
			c-1.87207,0-3.47949-0.62305-4.46387-1.65625L576.63086,172.62109z"/>
		<path class="st7" d="M586.18262,180.42188v-16.00977h2.88086v1.46484c0.71973-1.15234,1.7998-1.75195,2.92773-1.75195
			c2.61621,0,4.29688,2.2793,4.29688,6.07227c0,3.76758-1.68066,6.0957-4.29688,6.0957c-1.10352,0-2.20801-0.55078-2.92773-1.75195
			v5.88086H586.18262z M591.05566,166.66797c-0.76855,0-1.6084,0.57617-1.99219,1.34375v4.36914
			c0.38379,0.74414,1.22363,1.36914,1.99219,1.36914c1.4873,0,2.25586-1.51367,2.25586-3.55273
			C593.31152,168.18164,592.54297,166.66797,591.05566,166.66797z"/>
		<path class="st7" d="M604.2793,174.85352c-0.64844,0.91211-1.87207,1.43945-3.04883,1.43945
			c-1.82422,0-3.57617-1.36719-3.57617-3.83984c0-2.54492,1.75195-3.74414,3.57617-3.74414c1.2002,0,2.4248,0.45508,3.04883,1.36719
			v-1.53516c0-1.24805-0.76855-2.01562-2.13672-2.01562c-1.00781,0-1.99219,0.40625-2.85547,1.24805l-1.08105-1.96875
			c1.22461-1.17578,2.97656-1.67969,4.46484-1.67969c2.52051,0,4.5127,1.12695,4.5127,4.10352v7.77734h-2.9043V174.85352z
			 M604.2793,171.75781c-0.38477-0.69727-1.15234-1.12891-1.94434-1.12891c-1.08008,0-1.7998,0.76758-1.7998,1.87305
			c0,1.10352,0.71973,1.84766,1.7998,1.84766c0.79199,0,1.55957-0.38477,1.94434-1.10352V171.75781z"/>
		<path class="st7" d="M614.47949,164.125c1.82324,0,3.02344,0.74414,3.69629,1.55859l-1.44043,1.99219
			c-0.52832-0.64648-1.15234-1.00781-1.94434-1.00781c-1.65625,0-2.64062,1.51367-2.64062,3.5293s0.98438,3.55273,2.64062,3.55273
			c0.79199,0,1.41602-0.36133,1.94434-1.00977l1.44043,1.99219c-0.67285,0.81641-1.87305,1.56055-3.69629,1.56055
			c-3.19238,0-5.30469-2.54297-5.30469-6.0957C609.1748,166.66797,611.28711,164.125,614.47949,164.125z"/>
		<path class="st7" d="M624.46289,164.125c3.19238,0,4.99219,2.5918,4.99219,6.19141v0.81641h-7.27246
			c0.12012,1.58398,1.05566,2.83203,2.80762,2.83203c0.88867,0,1.87207-0.4082,2.52051-1.12695l1.32031,1.72656
			c-1.03223,1.12891-2.59277,1.72852-4.15234,1.72852c-3.26465,0-5.40039-2.44727-5.40039-6.0957
			C619.27832,166.83594,621.24609,164.125,624.46289,164.125z M622.18262,169.16406h4.48828
			c-0.04785-1.19922-0.57617-2.71094-2.25684-2.71094C622.80664,166.45312,622.23047,167.96484,622.18262,169.16406z"/>
	</g>
	<g>
		<g>
			<path class="st8" d="M162,150.9917c0,2.75456-2.25374,5.0083-5.0083,5.0083h-51.9834c-2.75457,0-5.0083-2.25374-5.0083-5.0083
				v-25.9834c0-2.75457,2.25373-5.0083,5.0083-5.0083h51.9834c2.75456,0,5.0083,2.25373,5.0083,5.0083V150.9917z"/>
		</g>
		<g>
			<path class="st6" d="M111.82617,129.99609h5.44824c3.14453,0,4.72852,2.30469,4.72852,4.96875
				c0,2.68848-1.58398,4.99219-4.72852,4.99219h-2.78418v6.04883h-2.66406V129.99609z M116.9624,132.32422h-2.47217v5.28125h2.47217
				c1.4165,0,2.32861-1.05664,2.32861-2.64062S118.37891,132.32422,116.9624,132.32422z"/>
			<path class="st6" d="M124.1377,129.99609h2.66406v16.00977h-2.66406V129.99609z"/>
			<path class="st6" d="M129.87354,129.99609h4.77637c4.29639,0,6.74463,3.36035,6.74463,8.0166
				c0,4.65723-2.42432,7.99316-6.74463,7.99316h-4.77637V129.99609z M134.6499,143.65332c2.61621,0,4.0083-2.35156,4.0083-5.64062
				c0-3.35938-1.34424-5.68848-4.0083-5.68848h-2.1123v11.3291H134.6499z"/>
			<path class="st6" d="M146.60156,133.45312l-2.44824,2.56836l-1.56006-1.63281l4.34424-4.39258h2.3042v16.00977h-2.64014
				V133.45312z"/>
		</g>
	</g>
	<g>
		<g>
			<path class="st3" d="M349,298.40201c0,5.2789-4.31909,9.59799-9.59799,9.59799h-82.80402
				c-5.2789,0-9.59799-4.31909-9.59799-9.59799V185.59798c0-5.27888,4.31909-9.59798,9.59799-9.59798h82.80402
				c5.2789,0,9.59799,4.31909,9.59799,9.59798V298.40201z"/>
			<path class="st4" d="M349,298.40201c0,5.2789-4.31909,9.59799-9.59799,9.59799h-82.80402
				c-5.2789,0-9.59799-4.31909-9.59799-9.59799V185.59798c0-5.27888,4.31909-9.59798,9.59799-9.59798h82.80402
				c5.2789,0,9.59799,4.31909,9.59799,9.59798V298.40201z"/>
		</g>
		<g>
			<g>
				<path class="st9" d="M328.99994,226.9917c0,2.75456-2.25372,5.0083-5.0083,5.0083h-51.9834
					c-2.75455,0-5.0083-2.25374-5.0083-5.0083v-25.9834c0-2.75456,2.25375-5.0083,5.0083-5.0083h51.9834
					c2.75458,0,5.0083,2.25374,5.0083,5.0083V226.9917z"/>
			</g>
			<g>
				<path class="st6" d="M276.96582,205.99609h5.44824c3.14453,0,4.72852,2.30469,4.72852,4.96875
					c0,2.6875-1.58398,4.99219-4.72852,4.99219h-2.78418v6.04883h-2.66406V205.99609z M282.10156,208.32422h-2.47168v5.28125
					h2.47168c1.41699,0,2.3291-1.05664,2.3291-2.64062S283.51855,208.32422,282.10156,208.32422z"/>
				<path class="st6" d="M289.27734,205.99609h2.66406v16.00977h-2.66406V205.99609z"/>
				<path class="st6" d="M295.0127,205.99609h4.77637c4.29688,0,6.74512,3.35938,6.74512,8.01562
					c0,4.6582-2.4248,7.99414-6.74512,7.99414h-4.77637V205.99609z M299.78906,219.65234c2.61621,0,4.00879-2.35156,4.00879-5.64062
					c0-3.35938-1.34473-5.6875-4.00879-5.6875h-2.1123v11.32812H299.78906z"/>
				<path class="st6" d="M308.62109,219.8457c5.5918-5.83398,7.05566-7.39258,7.05566-9.43359
					c0-1.43945-1.05566-2.30469-2.30371-2.30469c-1.46387,0-2.5918,0.69727-3.4082,1.89648l-1.63184-1.65625
					c1.19922-1.67969,2.92773-2.5918,5.06445-2.5918c2.80762,0,4.99219,1.75195,4.99219,4.63281
					c0,2.54297-1.80078,4.75195-5.88086,9.26367h5.95312v2.35352h-9.84082V219.8457z"/>
			</g>
		</g>
		<g>
			<g>
				<path class="st8" d="M329,282.9917c0,2.75458-2.25372,5.0083-5.0083,5.0083h-51.9834c-2.75458,0-5.0083-2.25372-5.0083-5.0083
					v-25.9834c0-2.75456,2.25372-5.0083,5.0083-5.0083h51.9834c2.75458,0,5.0083,2.25374,5.0083,5.0083V282.9917z"/>
			</g>
			<g>
				<path class="st6" d="M278.82568,261.99609h5.44824c3.14453,0,4.72852,2.30469,4.72852,4.96875
					c0,2.6875-1.58398,4.99219-4.72852,4.99219h-2.78418v6.04883h-2.66406V261.99609z M283.96191,264.32422h-2.47217v5.28125
					h2.47217c1.4165,0,2.32861-1.05664,2.32861-2.64062S285.37842,264.32422,283.96191,264.32422z"/>
				<path class="st6" d="M291.13721,261.99609h2.66406v16.00977h-2.66406V261.99609z"/>
				<path class="st6" d="M296.87305,261.99609h4.77637c4.29639,0,6.74463,3.35938,6.74463,8.01562
					c0,4.6582-2.42432,7.99414-6.74463,7.99414h-4.77637V261.99609z M301.64941,275.65234c2.61621,0,4.0083-2.35156,4.0083-5.64062
					c0-3.35938-1.34424-5.6875-4.0083-5.6875h-2.1123v11.32812H301.64941z"/>
				<path class="st6" d="M313.60107,265.45312l-2.44824,2.56836l-1.56006-1.63281l4.34424-4.39258h2.3042v16.00977h-2.64014
					V265.45312z"/>
			</g>
		</g>
	</g>
	<g>
		<path class="st10" d="M856,399.32019c0,5.5-4.5,10-10,10H606c-5.5,0-10-4.5-10-10V252.05347c0-5.5,4.5-10,10-10h240
			c5.5,0,10,4.5,10,10V399.32019z"/>
		<path class="st2" d="M856,399.32019c0,5.5-4.5,10-10,10H606c-5.5,0-10-4.5-10-10V252.05347c0-5.5,4.5-10,10-10h240
			c5.5,0,10,4.5,10,10V399.32019z"/>
	</g>
	<g>
		<path class="st6" d="M637.65234,327.99512h2.2207v13.34277h-2.2207V327.99512z"/>
		<path class="st6" d="M647.67285,334.75684c0-1.14062-0.51953-1.56055-1.37988-1.56055s-1.60059,0.66016-1.96094,1.33984v6.80176
			h-2v-9.66211h2v1.30078c0.52051-0.78027,1.60059-1.54102,2.80078-1.54102c1.74023,0,2.54102,0.95996,2.54102,2.62109v7.28125
			h-2.00098V334.75684z"/>
		<path class="st6" d="M652.17188,338.79688c0.58008,0.64062,1.59961,1.20117,2.60059,1.20117c1,0,1.59961-0.46094,1.59961-1.20117
			c0-0.7998-0.83984-1.16016-1.82031-1.51953c-1.36035-0.48047-2.95996-1.06055-2.95996-3.08105
			c0-1.5,1.2002-2.76074,3.32031-2.76074c1.34082,0,2.4209,0.5,3.18066,1.24023l-0.83984,1.36035
			c-0.48047-0.58008-1.34082-1.02051-2.30078-1.02051c-0.90039,0-1.48047,0.44043-1.48047,1.06055
			c0,0.7207,0.80078,1.06055,1.76074,1.40039c1.37988,0.5,3.04004,1.10059,3.04004,3.2207
			c0,1.66016-1.33984,2.88086-3.45996,2.88086c-1.48047,0-2.7207-0.5-3.54102-1.38086L652.17188,338.79688z"/>
		<path class="st6" d="M659.79102,328.83496c0-0.7002,0.58008-1.25977,1.26074-1.25977c0.67969,0,1.24023,0.55957,1.24023,1.25977
			c0,0.68066-0.56055,1.24023-1.24023,1.24023C660.37109,330.0752,659.79102,329.51562,659.79102,328.83496z M660.05078,331.67578
			h2.00098v9.66211h-2.00098V331.67578z"/>
		<path class="st6" d="M669.93262,340.05762c-0.58105,0.95996-1.52051,1.52051-2.48145,1.52051
			c-2.16016,0-3.52051-1.96094-3.52051-5.06152c0-3.06055,1.34082-5.08105,3.52051-5.08105c0.94043,0,1.90039,0.5,2.48145,1.54102
			v-4.98145h2v13.34277h-2V340.05762z M669.93262,334.5166c-0.34082-0.7207-1.12109-1.32031-1.88086-1.32031
			c-1.37988,0-2.06055,1.44043-2.06055,3.32031c0,1.84082,0.68066,3.30078,2.06055,3.30078
			c0.75977,0,1.54004-0.59961,1.88086-1.32031V334.5166z"/>
		<path class="st6" d="M677.95117,331.43555c2.62109,0,4.02148,2.2207,4.02148,5.1416v0.58008h-6.1416
			c0.08008,1.58008,0.95996,2.78027,2.52051,2.78027c0.75977,0,1.62012-0.37988,2.18066-1.04004l0.95996,1.2002
			c-0.82031,0.94043-2.04004,1.48047-3.34082,1.48047c-2.66016,0-4.34082-2.08105-4.34082-5.08105
			C673.81055,333.69629,675.37109,331.43555,677.95117,331.43555z M675.81152,335.73633h4.2207
			c-0.02051-1.2002-0.56055-2.68066-2.10059-2.68066C676.43164,333.05566,675.87109,334.57617,675.81152,335.73633z"/>
		<path class="st6" d="M691.77148,331.43555c1.44043,0,2.36035,0.58008,2.94043,1.30078l-1.02051,1.36035
			c-0.47949-0.62012-1.02051-0.90039-1.7207-0.90039c-1.51953,0-2.37988,1.45996-2.37988,3.30078
			c0,1.83984,0.86035,3.32031,2.37988,3.32031c0.7002,0,1.24121-0.2998,1.7207-0.90039l1.02051,1.36035
			c-0.58008,0.7207-1.5,1.30078-2.94043,1.30078c-2.58105,0-4.24121-2.16016-4.24121-5.08105
			S689.19043,331.43555,691.77148,331.43555z"/>
		<path class="st6" d="M701.6709,334.7168c0-1.12012-0.54004-1.52051-1.40039-1.52051c-0.83984,0-1.58008,0.66016-1.95996,1.33984
			v6.80176h-2v-13.34277h2v4.98145c0.52051-0.78027,1.62012-1.54102,2.82031-1.54102c1.7207,0,2.52051,0.90039,2.52051,2.60059
			v7.30176h-1.98047V334.7168z"/>
		<path class="st6" d="M705.75,328.83496c0-0.7002,0.58008-1.25977,1.26074-1.25977c0.67969,0,1.24023,0.55957,1.24023,1.25977
			c0,0.68066-0.56055,1.24023-1.24023,1.24023C706.33008,330.0752,705.75,329.51562,705.75,328.83496z M706.01074,331.67578h2
			v9.66211h-2V331.67578z"/>
		<path class="st6" d="M710.37012,327.99512h2v13.34277h-2V327.99512z"/>
		<path class="st6" d="M720.25,340.05762c-0.58008,0.95996-1.52051,1.52051-2.48047,1.52051
			c-2.16016,0-3.52051-1.96094-3.52051-5.06152c0-3.06055,1.33984-5.08105,3.52051-5.08105c0.94043,0,1.90039,0.5,2.48047,1.54102
			v-4.98145h2.00098v13.34277H720.25V340.05762z M720.25,334.5166c-0.33984-0.7207-1.12012-1.32031-1.87988-1.32031
			c-1.38086,0-2.06055,1.44043-2.06055,3.32031c0,1.84082,0.67969,3.30078,2.06055,3.30078
			c0.75977,0,1.54004-0.59961,1.87988-1.32031V334.5166z"/>
		<path class="st6" d="M734.19043,334.75684c0-1.14062-0.52051-1.56055-1.38086-1.56055c-0.85938,0-1.59961,0.66016-1.95996,1.33984
			v6.80176h-2v-9.66211h2v1.30078c0.52051-0.78027,1.60059-1.54102,2.80078-1.54102c1.74023,0,2.54004,0.95996,2.54004,2.62109
			v7.28125h-2V334.75684z"/>
		<path class="st6" d="M743.55078,340.35742c-0.58008,0.80078-1.56055,1.2207-2.54102,1.2207
			c-1.56055,0-2.96094-1.16016-2.96094-3.2207c0-2.08105,1.40039-3.14062,2.96094-3.14062
			c0.98047,0,1.98047,0.37988,2.54102,1.16016v-1.40039c0-1.16016-0.68066-1.84082-1.88086-1.84082
			c-0.86035,0-1.66016,0.34082-2.40039,1.10059l-0.78027-1.40039c0.98047-0.98047,2.30078-1.40039,3.54102-1.40039
			c2.02051,0,3.50098,0.94043,3.50098,3.30078v6.60156h-1.98047V340.35742z M743.55078,337.67676
			c-0.38086-0.67969-1.10059-1.08008-1.82031-1.08008c-1.04102,0-1.68066,0.76074-1.68066,1.80078s0.63965,1.7998,1.68066,1.7998
			c0.71973,0,1.43945-0.39941,1.82031-1.05957V337.67676z"/>
		<path class="st6" d="M757.97168,334.61621c0-0.90039-0.36035-1.41992-1.2002-1.41992c-0.80078,0-1.52051,0.7002-1.84082,1.33984
			v6.80176h-2v-6.72168c0-0.87988-0.36035-1.41992-1.2002-1.41992c-0.80078,0-1.50098,0.7002-1.84082,1.33984v6.80176h-2v-9.66211h2
			v1.30078c0.37988-0.68066,1.48047-1.54102,2.68066-1.54102c1.21973,0,2.04004,0.62012,2.26074,1.7002
			c0.45996-0.85938,1.58008-1.7002,2.78027-1.7002c1.45996,0,2.36035,0.78027,2.36035,2.54102v7.36133h-2V334.61621z"/>
		<path class="st6" d="M765.98926,331.43555c2.62109,0,4.02148,2.2207,4.02148,5.1416v0.58008h-6.1416
			c0.08008,1.58008,0.95996,2.78027,2.52051,2.78027c0.75977,0,1.62012-0.37988,2.18066-1.04004l0.95996,1.2002
			c-0.82031,0.94043-2.04004,1.48047-3.34082,1.48047c-2.66016,0-4.34082-2.08105-4.34082-5.08105
			C761.84863,333.69629,763.40918,331.43555,765.98926,331.43555z M763.84863,335.73633h4.22168
			c-0.02051-1.2002-0.56055-2.68066-2.10059-2.68066C764.46875,333.05566,763.90918,334.57617,763.84863,335.73633z"/>
		<path class="st6" d="M771.94922,338.79688c0.58008,0.64062,1.60059,1.20117,2.60059,1.20117s1.60059-0.46094,1.60059-1.20117
			c0-0.7998-0.84082-1.16016-1.82031-1.51953c-1.36035-0.48047-2.96094-1.06055-2.96094-3.08105
			c0-1.5,1.2002-2.76074,3.32031-2.76074c1.34082,0,2.4209,0.5,3.18066,1.24023l-0.83984,1.36035
			c-0.48047-0.58008-1.33984-1.02051-2.30078-1.02051c-0.89941,0-1.48047,0.44043-1.48047,1.06055
			c0,0.7207,0.80078,1.06055,1.76074,1.40039c1.38086,0.5,3.04102,1.10059,3.04102,3.2207
			c0,1.66016-1.34082,2.88086-3.46094,2.88086c-1.48047,0-2.7207-0.5-3.54102-1.38086L771.94922,338.79688z"/>
		<path class="st6" d="M779.8291,345.01855v-13.34277h2v1.28027c0.56055-0.95996,1.5-1.52051,2.48047-1.52051
			c2.18066,0,3.52051,1.94043,3.52051,5.06152c0,3.08008-1.33984,5.08105-3.52051,5.08105c-0.95996,0-1.90039-0.5-2.48047-1.54004
			v4.98047H779.8291z M783.70996,333.19629c-0.76074,0-1.54102,0.58008-1.88086,1.32031v3.96094
			c0.33984,0.71973,1.12012,1.33984,1.88086,1.33984c1.37988,0,2.05957-1.45996,2.05957-3.32031
			S785.08984,333.19629,783.70996,333.19629z"/>
		<path class="st6" d="M794.69043,340.35742c-0.58008,0.80078-1.56055,1.2207-2.54102,1.2207
			c-1.56055,0-2.96094-1.16016-2.96094-3.2207c0-2.08105,1.40039-3.14062,2.96094-3.14062
			c0.98047,0,1.98047,0.37988,2.54102,1.16016v-1.40039c0-1.16016-0.68066-1.84082-1.88086-1.84082
			c-0.86035,0-1.66016,0.34082-2.40039,1.10059l-0.78027-1.40039c0.98047-0.98047,2.30078-1.40039,3.54102-1.40039
			c2.02051,0,3.50098,0.94043,3.50098,3.30078v6.60156h-1.98047V340.35742z M794.69043,337.67676
			c-0.38086-0.67969-1.10059-1.08008-1.82031-1.08008c-1.04102,0-1.68066,0.76074-1.68066,1.80078s0.63965,1.7998,1.68066,1.7998
			c0.71973,0,1.43945-0.39941,1.82031-1.05957V337.67676z"/>
		<path class="st6" d="M802.79004,331.43555c1.44043,0,2.36035,0.58008,2.94043,1.30078l-1.02051,1.36035
			c-0.47949-0.62012-1.02051-0.90039-1.7207-0.90039c-1.51953,0-2.37988,1.45996-2.37988,3.30078
			c0,1.83984,0.86035,3.32031,2.37988,3.32031c0.7002,0,1.24121-0.2998,1.7207-0.90039l1.02051,1.36035
			c-0.58008,0.7207-1.5,1.30078-2.94043,1.30078c-2.58105,0-4.24121-2.16016-4.24121-5.08105
			S800.20898,331.43555,802.79004,331.43555z"/>
		<path class="st6" d="M810.98926,331.43555c2.62109,0,4.02148,2.2207,4.02148,5.1416v0.58008h-6.1416
			c0.08008,1.58008,0.95996,2.78027,2.52051,2.78027c0.75977,0,1.62012-0.37988,2.18066-1.04004l0.95996,1.2002
			c-0.82031,0.94043-2.04004,1.48047-3.34082,1.48047c-2.66016,0-4.34082-2.08105-4.34082-5.08105
			C806.84863,333.69629,808.40918,331.43555,810.98926,331.43555z M808.84863,335.73633h4.22168
			c-0.02051-1.2002-0.56055-2.68066-2.10059-2.68066C809.46875,333.05566,808.90918,334.57617,808.84863,335.73633z"/>
	</g>
	<g>
		<path class="st6" d="M613.93359,361.40137h5.90527c3.28809,0,4.94434,2.37695,4.94434,5.11328
			c0,2.73535-1.65625,5.08789-4.94434,5.08789h-2.68848v5.80859h-3.2168V361.40137z M619.4541,364.20996h-2.30371v4.6084h2.30371
			c1.22461,0,2.04004-0.93652,2.04004-2.30371C621.49414,365.12207,620.67871,364.20996,619.4541,364.20996z"/>
		<path class="st6" d="M626.72559,361.40137h3.21582v16.00977h-3.21582V361.40137z"/>
		<path class="st6" d="M632.77344,361.40137h5.16016c4.41699,0,6.96094,3.3125,6.96094,8.0166
			c0,4.70508-2.52051,7.99316-6.96094,7.99316h-5.16016V361.40137z M637.93359,374.5791c2.37695,0,3.67285-2.1123,3.67285-5.16113
			c0-3.16797-1.24805-5.18359-3.67285-5.18359h-1.94336v10.34473H637.93359z"/>
		<path class="st6" d="M658.52637,369.77832c0-1.22363-0.55176-1.7041-1.5127-1.7041c-0.95996,0-1.7041,0.74414-2.11133,1.44043
			v7.89648h-2.88086v-11.59277h2.88086v1.51172c0.62402-0.91211,1.91992-1.7998,3.4082-1.7998
			c2.13574,0,3.0957,1.24805,3.0957,3.16797v8.71289h-2.87988V369.77832z"/>
		<path class="st6" d="M670.02246,376.25879c-0.64844,0.91211-1.87207,1.44043-3.04883,1.44043
			c-1.82422,0-3.57617-1.36816-3.57617-3.84082c0-2.54395,1.75195-3.74414,3.57617-3.74414c1.2002,0,2.4248,0.45605,3.04883,1.36816
			v-1.53613c0-1.24805-0.76855-2.01562-2.13672-2.01562c-1.00781,0-1.99219,0.40723-2.85645,1.24805l-1.08008-1.96875
			c1.22461-1.17578,2.97656-1.67969,4.46484-1.67969c2.52051,0,4.5127,1.12793,4.5127,4.10449v7.77637h-2.9043V376.25879z
			 M670.02246,373.16309c-0.38379-0.69629-1.15234-1.12891-1.94434-1.12891c-1.08008,0-1.7998,0.76855-1.7998,1.87305
			c0,1.10352,0.71973,1.84766,1.7998,1.84766c0.79199,0,1.56055-0.38379,1.94434-1.10352V373.16309z"/>
		<path class="st6" d="M687.90332,369.61035c0-0.95996-0.4082-1.53613-1.32031-1.53613s-1.63281,0.79199-1.99219,1.44043v7.89648
			h-2.88086v-7.80078c0-0.93555-0.38379-1.53613-1.31934-1.53613c-0.88867,0-1.63281,0.79199-1.99219,1.44043v7.89648h-2.88086
			v-11.59277h2.88086v1.51172c0.45605-0.79199,1.7998-1.7998,3.26367-1.7998s2.49609,0.69629,2.80859,2.01562
			c0.55176-1.00781,1.91992-2.01562,3.38379-2.01562c1.77637,0,2.92871,0.93555,2.92871,3.07227v8.80859h-2.87988V369.61035z"/>
		<path class="st6" d="M697.95801,365.53027c3.19238,0,4.99219,2.5918,4.99219,6.19238v0.81641h-7.27246
			c0.12012,1.58398,1.05566,2.83203,2.80762,2.83203c0.88867,0,1.87207-0.4082,2.52051-1.12793l1.32031,1.72754
			c-1.03223,1.12793-2.59277,1.72852-4.15234,1.72852c-3.26465,0-5.40039-2.44824-5.40039-6.09668
			C692.77344,368.24219,694.74121,365.53027,697.95801,365.53027z M695.67773,370.57031h4.48828
			c-0.04785-1.2002-0.57617-2.71191-2.25684-2.71191C696.30176,367.8584,695.72559,369.37012,695.67773,370.57031z"/>
		<path class="st6" d="M705.20508,374.02637c0.7207,0.76855,2.0166,1.41699,3.19238,1.41699c1.10449,0,1.7041-0.45605,1.7041-1.2002
			c0-0.79199-0.8877-1.12793-1.99219-1.48828c-1.63184-0.52832-3.74414-1.15234-3.74414-3.74414
			c0-1.87207,1.51172-3.48047,4.22461-3.48047c1.65625,0,3.02441,0.59961,4.03223,1.48828l-1.15234,1.94336
			c-0.57617-0.64746-1.65625-1.19922-2.83203-1.19922c-0.91211,0-1.53613,0.43164-1.53613,1.08008
			c0,0.69531,0.79199,1.03125,1.87207,1.36816c1.68066,0.52734,3.88867,1.22363,3.88867,3.8877
			c0,2.08887-1.7041,3.60059-4.41699,3.60059c-1.87207,0-3.47949-0.62402-4.46387-1.65625L705.20508,374.02637z"/>
		<path class="st6" d="M714.75684,381.82715v-16.00879h2.88086v1.46387c0.71973-1.15234,1.7998-1.75195,2.92773-1.75195
			c2.61621,0,4.29688,2.28027,4.29688,6.07227c0,3.76855-1.68066,6.09668-4.29688,6.09668
			c-1.10352,0-2.20801-0.55176-2.92773-1.75195v5.87988H714.75684z M719.62988,368.07422c-0.76855,0-1.6084,0.57617-1.99219,1.34375
			v4.36914c0.38379,0.74414,1.22363,1.36816,1.99219,1.36816c1.4873,0,2.25586-1.5127,2.25586-3.55273
			C721.88574,369.58691,721.11719,368.07422,719.62988,368.07422z"/>
		<path class="st6" d="M732.85352,376.25879c-0.64844,0.91211-1.87207,1.44043-3.04883,1.44043
			c-1.82422,0-3.57617-1.36816-3.57617-3.84082c0-2.54395,1.75195-3.74414,3.57617-3.74414c1.2002,0,2.4248,0.45605,3.04883,1.36816
			v-1.53613c0-1.24805-0.76855-2.01562-2.13672-2.01562c-1.00781,0-1.99219,0.40723-2.85547,1.24805l-1.08105-1.96875
			c1.22461-1.17578,2.97656-1.67969,4.46484-1.67969c2.52051,0,4.5127,1.12793,4.5127,4.10449v7.77637h-2.9043V376.25879z
			 M732.85352,373.16309c-0.38477-0.69629-1.15234-1.12891-1.94434-1.12891c-1.08008,0-1.7998,0.76855-1.7998,1.87305
			c0,1.10352,0.71973,1.84766,1.7998,1.84766c0.79199,0,1.55957-0.38379,1.94434-1.10352V373.16309z"/>
		<path class="st6" d="M743.05371,365.53027c1.82324,0,3.02344,0.74414,3.69629,1.55957l-1.44043,1.99219
			c-0.52832-0.64746-1.15234-1.00781-1.94434-1.00781c-1.65625,0-2.64062,1.5127-2.64062,3.52832
			c0,2.0166,0.98438,3.55273,2.64062,3.55273c0.79199,0,1.41602-0.36035,1.94434-1.00879l1.44043,1.99219
			c-0.67285,0.81641-1.87305,1.56055-3.69629,1.56055c-3.19238,0-5.30469-2.54395-5.30469-6.09668
			C737.74902,368.07422,739.86133,365.53027,743.05371,365.53027z"/>
		<path class="st6" d="M753.03711,365.53027c3.19238,0,4.99219,2.5918,4.99219,6.19238v0.81641h-7.27246
			c0.12012,1.58398,1.05566,2.83203,2.80762,2.83203c0.88867,0,1.87207-0.4082,2.52051-1.12793l1.32031,1.72754
			c-1.03223,1.12793-2.59277,1.72852-4.15234,1.72852c-3.26465,0-5.40039-2.44824-5.40039-6.09668
			C747.85254,368.24219,749.82031,365.53027,753.03711,365.53027z M750.75684,370.57031h4.48828
			c-0.04785-1.2002-0.57617-2.71191-2.25684-2.71191C751.38086,367.8584,750.80469,369.37012,750.75684,370.57031z"/>
		<path class="st6" d="M766.09277,373.11523c0.81543,1.05566,2.08789,1.75195,3.43164,1.75195
			c1.68066,0,2.44824-0.88867,2.44824-2.13672c0-1.51172-1.03125-2.06348-2.5918-2.06348
			c-0.52832,0-1.24805,0.02344-1.48828,0.04785v-2.85645c0.24023,0.02344,1.03223,0.02344,1.41602,0.02344
			c1.46484,0,2.44824-0.62402,2.44824-1.89551c0-1.34473-0.95996-1.99219-2.35156-1.99219
			c-1.24805,0-2.37695,0.59961-3.19238,1.6084l-1.82422-1.84863c1.15234-1.6084,2.97559-2.5918,5.28027-2.5918
			c3.16797,0,5.25684,1.51172,5.25684,4.34375c0,1.82422-1.36816,3.3125-3.02441,3.64844
			c1.63184,0.24023,3.26367,1.68066,3.26367,3.84082c0,2.78418-2.13574,4.7041-5.49609,4.7041
			c-2.56836,0-4.48828-1.12793-5.49609-2.59277L766.09277,373.11523z"/>
		<path class="st6" d="M782.09961,371.5791c0-3.86523,1.17676-7.65723,3.19238-10.60938l1.94434,1.15234
			c-1.2959,2.95215-2.01562,5.80859-2.01562,9.45703c0,3.64746,0.71973,6.50391,2.01562,9.43262l-1.94434,1.17578
			C783.27637,379.25977,782.09961,375.44336,782.09961,371.5791z"/>
		<path class="st6" d="M793.69238,365.53027c1.82324,0,3.02344,0.74414,3.69629,1.55957l-1.44043,1.99219
			c-0.52832-0.64746-1.15234-1.00781-1.94434-1.00781c-1.65625,0-2.64062,1.5127-2.64062,3.52832
			c0,2.0166,0.98438,3.55273,2.64062,3.55273c0.79199,0,1.41602-0.36035,1.94434-1.00879l1.44043,1.99219
			c-0.67285,0.81641-1.87305,1.56055-3.69629,1.56055c-3.19238,0-5.30469-2.54395-5.30469-6.09668
			C788.3877,368.07422,790.5,365.53027,793.69238,365.53027z"/>
		<path class="st6" d="M805.61914,369.73047c0-1.2002-0.5752-1.65625-1.53613-1.65625c-0.93555,0-1.7041,0.74414-2.08789,1.44043
			v7.89648h-2.9043v-16.00977h2.9043v5.92871c0.60059-0.91211,1.89648-1.7998,3.38477-1.7998
			c2.16016,0,3.12012,1.17578,3.12012,3.12012v8.76074h-2.88086V369.73047z"/>
		<path class="st6" d="M810.80273,362.38574c0-0.95996,0.79199-1.75195,1.72852-1.75195c0.95996,0,1.72852,0.79199,1.72852,1.75195
			s-0.76855,1.72852-1.72852,1.72852C811.59473,364.11426,810.80273,363.3457,810.80273,362.38574z M811.09082,365.81836h2.88086
			v11.59277h-2.88086V365.81836z"/>
		<path class="st6" d="M816.5625,361.40137h2.88086v16.00977h-2.88086V361.40137z"/>
		<path class="st6" d="M828.65918,375.94727c-0.7207,1.15137-1.82422,1.75195-2.92871,1.75195
			c-2.61621,0-4.2959-2.28027-4.2959-6.07227c0-3.7207,1.67969-6.09668,4.2959-6.09668c1.10449,0,2.20801,0.55176,2.92871,1.75195
			v-5.88086h2.87988v16.00977h-2.87988V375.94727z M828.65918,369.44238c-0.38379-0.76758-1.22461-1.36816-2.0166-1.36816
			c-1.46387,0-2.23242,1.5127-2.23242,3.55273c0,2.01562,0.76855,3.52832,2.23242,3.52832c0.79199,0,1.63281-0.60059,2.0166-1.36816
			V369.44238z"/>
		<path class="st6" d="M833.29004,362.12207l1.94434-1.15234c2.04004,2.95215,3.21582,6.74414,3.21582,10.60938
			c0,3.86426-1.17578,7.68066-3.21582,10.6084l-1.94434-1.17578c1.32031-2.92871,2.0166-5.78516,2.0166-9.43262
			C835.30664,367.93066,834.61035,365.07422,833.29004,362.12207z"/>
	</g>
	<g>
		<path class="st7" d="M363.42773,79.99951h7.37988c4.11035,0,6.17969,2.96973,6.17969,6.38965s-2.06934,6.35938-6.17969,6.35938
			h-3.35938v7.25977h-4.02051V79.99951z M370.32812,83.50928h-2.87988v5.75977h2.87988c1.5293,0,2.5498-1.16992,2.5498-2.87988
			C372.87793,84.64893,371.85742,83.50928,370.32812,83.50928z"/>
		<path class="st7" d="M379.41699,79.99951h4.02051v20.00879h-4.02051V79.99951z"/>
		<path class="st7" d="M386.97656,79.99951h6.4502c5.51953,0,8.69922,4.13965,8.69922,10.01953s-3.14941,9.98926-8.69922,9.98926
			h-6.4502V79.99951z M393.42676,96.46826c2.96973,0,4.58984-2.63965,4.58984-6.44922c0-3.95996-1.55957-6.48047-4.58984-6.48047
			h-2.42969v12.92969H393.42676z"/>
		<path class="st7" d="M419.16602,90.46826c0-1.5293-0.69043-2.12988-1.89062-2.12988c-1.19922,0-2.12988,0.93066-2.63965,1.80078
			v9.86914h-3.59961V85.51904h3.59961v1.88965c0.78027-1.13965,2.40039-2.25,4.25977-2.25
			c2.66992,0,3.87012,1.56055,3.87012,3.95996v10.88965h-3.59961V90.46826z"/>
		<path class="st7" d="M433.53516,98.56885c-0.80957,1.13965-2.33984,1.7998-3.80957,1.7998
			c-2.2793,0-4.46973-1.70996-4.46973-4.7998c0-3.18066,2.19043-4.67969,4.46973-4.67969c1.5,0,3.03027,0.56934,3.80957,1.70898
			v-1.91992c0-1.55957-0.95898-2.51953-2.66895-2.51953c-1.26074,0-2.49023,0.50977-3.57031,1.55957l-1.34961-2.45898
			c1.5293-1.4707,3.71973-2.10059,5.5791-2.10059c3.15039,0,5.63965,1.41016,5.63965,5.12988v9.71973h-3.62988V98.56885z
			 M433.53516,94.69873c-0.47949-0.87012-1.43945-1.41016-2.42969-1.41016c-1.34961,0-2.25,0.95996-2.25,2.33984
			s0.90039,2.30957,2.25,2.30957c0.99023,0,1.9502-0.47949,2.42969-1.37988V94.69873z"/>
		<path class="st7" d="M455.88574,90.2583c0-1.19922-0.51074-1.91992-1.65039-1.91992s-2.04004,0.99023-2.48926,1.80078v9.86914
			h-3.60059v-9.75c0-1.16992-0.47949-1.91992-1.64941-1.91992c-1.11035,0-2.04004,0.99023-2.49023,1.80078v9.86914h-3.59961
			V85.51904h3.59961v1.88965c0.57031-0.99023,2.25-2.25,4.08008-2.25s3.12012,0.87012,3.50977,2.52051
			c0.68945-1.26074,2.39941-2.52051,4.22949-2.52051c2.21973,0,3.66016,1.16992,3.66016,3.83984v11.00977h-3.59961V90.2583z"/>
		<path class="st7" d="M468.45508,85.15869c3.99023,0,6.24023,3.24023,6.24023,7.74023v1.01953h-9.08984
			c0.14941,1.98047,1.31934,3.54004,3.50977,3.54004c1.10938,0,2.33984-0.50977,3.14941-1.41016l1.65039,2.16016
			c-1.29004,1.41016-3.24023,2.16016-5.18945,2.16016c-4.08008,0-6.75-3.06055-6.75-7.62012
			C461.97559,88.54834,464.43555,85.15869,468.45508,85.15869z M465.60547,91.4585h5.60938
			c-0.05957-1.5-0.71973-3.38965-2.81934-3.38965C466.38477,88.06885,465.66504,89.9585,465.60547,91.4585z"/>
		<path class="st7" d="M477.51562,95.77881c0.89941,0.95996,2.51953,1.76953,3.98926,1.76953c1.38086,0,2.12988-0.57031,2.12988-1.5
			c0-0.99023-1.10938-1.41016-2.48926-1.85938c-2.04004-0.66016-4.67969-1.44043-4.67969-4.68066
			c0-2.33984,1.88965-4.34961,5.2793-4.34961c2.07031,0,3.78027,0.75,5.04004,1.86035l-1.44043,2.42969
			c-0.71973-0.80957-2.06934-1.5-3.53906-1.5c-1.14062,0-1.91992,0.54004-1.91992,1.34961
			c0,0.87012,0.98926,1.29004,2.33984,1.70996c2.09961,0.66016,4.85938,1.53027,4.85938,4.86035c0,2.60938-2.12988,4.5-5.51953,4.5
			c-2.33984,0-4.34961-0.78027-5.58008-2.07031L477.51562,95.77881z"/>
		<path class="st7" d="M489.45508,105.52783V85.51904h3.59961v1.83008c0.90039-1.44043,2.25-2.19043,3.66016-2.19043
			c3.26953,0,5.36914,2.84961,5.36914,7.58984c0,4.70996-2.09961,7.62012-5.36914,7.62012
			c-1.37988,0-2.75977-0.69043-3.66016-2.19043v7.34961H489.45508z M495.54492,88.33838c-0.95996,0-2.00977,0.7207-2.49023,1.68066
			v5.45898c0.48047,0.93066,1.53027,1.70996,2.49023,1.70996c1.85938,0,2.81934-1.88965,2.81934-4.43945
			C498.36426,90.229,497.4043,88.33838,495.54492,88.33838z"/>
		<path class="st7" d="M512.07422,98.56885c-0.80957,1.13965-2.33984,1.7998-3.80957,1.7998
			c-2.2793,0-4.46973-1.70996-4.46973-4.7998c0-3.18066,2.19043-4.67969,4.46973-4.67969c1.5,0,3.03027,0.56934,3.80957,1.70898
			v-1.91992c0-1.55957-0.95898-2.51953-2.66895-2.51953c-1.26074,0-2.49023,0.50977-3.57031,1.55957l-1.34961-2.45898
			c1.5293-1.4707,3.71973-2.10059,5.5791-2.10059c3.15039,0,5.63965,1.41016,5.63965,5.12988v9.71973h-3.62988V98.56885z
			 M512.07422,94.69873c-0.47949-0.87012-1.43945-1.41016-2.42969-1.41016c-1.34961,0-2.25,0.95996-2.25,2.33984
			s0.90039,2.30957,2.25,2.30957c0.99023,0,1.9502-0.47949,2.42969-1.37988V94.69873z"/>
		<path class="st7" d="M524.8252,85.15869c2.2793,0,3.7793,0.92969,4.61914,1.9502l-1.7998,2.49023
			c-0.66016-0.81055-1.43945-1.26074-2.42969-1.26074c-2.07031,0-3.2998,1.89062-3.2998,4.41016s1.22949,4.43945,3.2998,4.43945
			c0.99023,0,1.76953-0.44922,2.42969-1.25977l1.7998,2.49023c-0.83984,1.01953-2.33984,1.9502-4.61914,1.9502
			c-3.99023,0-6.62988-3.18066-6.62988-7.62012C518.19531,88.33838,520.83496,85.15869,524.8252,85.15869z"/>
		<path class="st7" d="M537.30469,85.15869c3.99023,0,6.24023,3.24023,6.24023,7.74023v1.01953h-9.08984
			c0.14941,1.98047,1.31934,3.54004,3.50977,3.54004c1.10938,0,2.33984-0.50977,3.14941-1.41016l1.65039,2.16016
			c-1.29004,1.41016-3.24023,2.16016-5.18945,2.16016c-4.08008,0-6.75-3.06055-6.75-7.62012
			C530.8252,88.54834,533.28516,85.15869,537.30469,85.15869z M534.45508,91.4585h5.60938
			c-0.05957-1.5-0.71973-3.38965-2.81934-3.38965C535.23438,88.06885,534.51465,89.9585,534.45508,91.4585z"/>
		<path class="st7" d="M556.20508,85.18896l-3.03027,3.14941l-2.30957-2.42969l5.87988-5.90918h3.50977v20.00879h-4.0498V85.18896z"
			/>
		<path class="st7" d="M569.64453,92.71826c0-4.8291,1.46973-9.56934,3.98926-13.25879l2.42969,1.43945
			c-1.61914,3.69043-2.51953,7.25977-2.51953,11.81934c0,4.56055,0.90039,8.12988,2.51953,11.79004l-2.42969,1.46973
			C571.11426,102.31787,569.64453,97.54834,569.64453,92.71826z"/>
		<path class="st7" d="M578.25391,105.52783V85.51904h3.59961v1.83008c0.90039-1.44043,2.25-2.19043,3.66016-2.19043
			c3.26953,0,5.36914,2.84961,5.36914,7.58984c0,4.70996-2.09961,7.62012-5.36914,7.62012
			c-1.37988,0-2.75977-0.69043-3.66016-2.19043v7.34961H578.25391z M584.34375,88.33838c-0.95996,0-2.00977,0.7207-2.49023,1.68066
			v5.45898c0.48047,0.93066,1.53027,1.70996,2.49023,1.70996c1.85938,0,2.81934-1.88965,2.81934-4.43945
			C587.16309,90.229,586.20312,88.33838,584.34375,88.33838z"/>
		<path class="st7" d="M600.87305,98.56885c-0.80957,1.13965-2.33984,1.7998-3.80957,1.7998
			c-2.2793,0-4.46973-1.70996-4.46973-4.7998c0-3.18066,2.19043-4.67969,4.46973-4.67969c1.5,0,3.03027,0.56934,3.80957,1.70898
			v-1.91992c0-1.55957-0.95898-2.51953-2.66895-2.51953c-1.26074,0-2.49023,0.50977-3.57031,1.55957l-1.34961-2.45898
			c1.5293-1.4707,3.71973-2.10059,5.5791-2.10059c3.15039,0,5.63965,1.41016,5.63965,5.12988v9.71973h-3.62988V98.56885z
			 M600.87305,94.69873c-0.47949-0.87012-1.43945-1.41016-2.42969-1.41016c-1.34961,0-2.25,0.95996-2.25,2.33984
			s0.90039,2.30957,2.25,2.30957c0.99023,0,1.9502-0.47949,2.42969-1.37988V94.69873z"/>
		<path class="st7" d="M607.74414,85.51904h3.59961v2.00977c0.80957-1.32031,2.40039-2.33984,3.95996-2.33984v3.50977
			c-0.24023-0.05957-0.54004-0.08984-0.87012-0.08984c-1.13965,0-2.49023,0.78027-3.08984,1.74023v9.65918h-3.59961V85.51904z"/>
		<path class="st7" d="M623.07324,85.15869c3.99023,0,6.24023,3.24023,6.24023,7.74023v1.01953h-9.08984
			c0.14941,1.98047,1.31934,3.54004,3.50977,3.54004c1.11035,0,2.33984-0.50977,3.14941-1.41016l1.65039,2.16016
			c-1.29004,1.41016-3.24023,2.16016-5.18945,2.16016c-4.08008,0-6.75-3.06055-6.75-7.62012
			C616.59375,88.54834,619.05371,85.15869,623.07324,85.15869z M620.22363,91.4585h5.60938
			c-0.05957-1.5-0.71973-3.38965-2.81934-3.38965C621.00391,88.06885,620.2832,89.9585,620.22363,91.4585z"/>
		<path class="st7" d="M639.84375,90.46826c0-1.5293-0.69043-2.12988-1.89062-2.12988c-1.19922,0-2.12988,0.93066-2.63965,1.80078
			v9.86914h-3.59961V85.51904h3.59961v1.88965c0.78027-1.13965,2.40039-2.25,4.25977-2.25
			c2.66992,0,3.87012,1.56055,3.87012,3.95996v10.88965h-3.59961V90.46826z"/>
		<path class="st7" d="M647.34375,96.52881v-7.86035h-1.88965v-3.14941h1.88965v-3.95996h3.59961v3.95996h2.40039v3.14941h-2.40039
			v7.01953c0,0.93066,0.36035,1.5,1.0498,1.5c0.4502,0,0.90039-0.17969,1.08008-0.41992l0.75,2.75977
			c-0.54004,0.48047-1.46973,0.84082-2.79004,0.84082C648.51367,100.36865,647.34375,99.07861,647.34375,96.52881z"/>
		<path class="st7" d="M654.60352,80.89893l2.42969-1.43945c2.5498,3.68945,4.01953,8.42969,4.01953,13.25879
			c0,4.83008-1.46973,9.59961-4.01953,13.25977l-2.42969-1.46973c1.64941-3.66016,2.51953-7.22949,2.51953-11.79004
			C657.12305,88.15869,656.25293,84.58936,654.60352,80.89893z"/>
	</g>
	<g>
		<g>
			<path class="st3" d="M777,298.40201c0,5.2789-4.31909,9.59799-9.59796,9.59799h-82.80408
				C679.31909,308,675,303.68091,675,298.40201V185.59798c0-5.27888,4.31909-9.59798,9.59796-9.59798h82.80408
				c5.27887,0,9.59796,4.31909,9.59796,9.59798V298.40201z"/>
			<path class="st4" d="M777,298.40201c0,5.2789-4.31909,9.59799-9.59796,9.59799h-82.80408
				C679.31909,308,675,303.68091,675,298.40201V185.59798c0-5.27888,4.31909-9.59798,9.59796-9.59798h82.80408
				c5.27887,0,9.59796,4.31909,9.59796,9.59798V298.40201z"/>
		</g>
		<g>
			<g>
				<path class="st11" d="M756.99994,226.9917c0,2.75456-2.25372,5.0083-5.0083,5.0083h-51.9834
					c-2.75458,0-5.0083-2.25374-5.0083-5.0083v-25.9834c0-2.75456,2.25372-5.0083,5.0083-5.0083h51.9834
					c2.75458,0,5.0083,2.25374,5.0083,5.0083V226.9917z"/>
			</g>
			<g>
				<path class="st6" d="M705.09766,205.99609h5.44824c3.14453,0,4.72852,2.30469,4.72852,4.96875
					c0,2.6875-1.58398,4.99219-4.72852,4.99219h-2.78418v6.04883h-2.66406V205.99609z M710.2334,208.32422h-2.47168v5.28125h2.47168
					c1.41699,0,2.3291-1.05664,2.3291-2.64062S711.65039,208.32422,710.2334,208.32422z"/>
				<path class="st6" d="M717.40918,205.99609h2.66406v16.00977h-2.66406V205.99609z"/>
				<path class="st6" d="M723.14453,205.99609h4.77637c4.29688,0,6.74512,3.35938,6.74512,8.01562
					c0,4.6582-2.4248,7.99414-6.74512,7.99414h-4.77637V205.99609z M727.9209,219.65234c2.61621,0,4.00879-2.35156,4.00879-5.64062
					c0-3.35938-1.34473-5.6875-4.00879-5.6875h-2.1123v11.32812H727.9209z"/>
				<path class="st6" d="M737.80859,218.02148c0.79199,1.12695,2.0166,1.89648,3.43262,1.89648
					c1.7998,0,2.63965-1.00977,2.63965-2.52148c0-1.79883-1.2002-2.40039-2.78418-2.40039c-0.50391,0-1.17578,0-1.3916,0.04883
					v-2.40039c0.23926,0.02344,0.93555,0.02344,1.34375,0.02344c1.51172,0,2.61621-0.71875,2.61621-2.20703
					c0-1.58398-1.03223-2.35352-2.49609-2.35352c-1.34375,0-2.40039,0.64844-3.2168,1.72852l-1.55957-1.53516
					c1.05566-1.56055,2.78418-2.54492,4.96875-2.54492c2.90332,0,4.94434,1.46484,4.94434,4.29688
					c0,1.89648-1.36816,3.33594-2.95312,3.67188c1.53613,0.24023,3.16895,1.67969,3.16895,3.91211
					c0,2.71289-1.94434,4.65625-5.16016,4.65625c-2.44824,0-4.24902-1.17578-5.18457-2.61523L737.80859,218.02148z"/>
			</g>
		</g>
		<g>
			<g>
				<path class="st8" d="M757,282.9917c0,2.75458-2.25372,5.0083-5.0083,5.0083h-51.9834c-2.75458,0-5.0083-2.25372-5.0083-5.0083
					v-25.9834c0-2.75456,2.25372-5.0083,5.0083-5.0083h51.9834c2.75458,0,5.0083,2.25374,5.0083,5.0083V282.9917z"/>
			</g>
			<g>
				<path class="st6" d="M706.8252,261.99609h5.44824c3.14453,0,4.72852,2.30469,4.72852,4.96875
					c0,2.6875-1.58398,4.99219-4.72852,4.99219h-2.78418v6.04883h-2.66406V261.99609z M711.96191,264.32422h-2.47266v5.28125
					h2.47266c1.41602,0,2.32812-1.05664,2.32812-2.64062S713.37793,264.32422,711.96191,264.32422z"/>
				<path class="st6" d="M719.13672,261.99609h2.66406v16.00977h-2.66406V261.99609z"/>
				<path class="st6" d="M724.87305,261.99609h4.77637c4.2959,0,6.74414,3.35938,6.74414,8.01562
					c0,4.6582-2.42383,7.99414-6.74414,7.99414h-4.77637V261.99609z M729.64941,275.65234
					c2.61621,0,4.00781-2.35156,4.00781-5.64062c0-3.35938-1.34375-5.6875-4.00781-5.6875h-2.1123v11.32812H729.64941z"/>
				<path class="st6" d="M741.60059,265.45312l-2.44824,2.56836l-1.55957-1.63281l4.34375-4.39258h2.30469v16.00977h-2.64062
					V265.45312z"/>
			</g>
		</g>
	</g>
	<g>
		<path class="st3" d="M944,169.21321c0,3.73273-3.05408,6.78679-6.7868,6.78679H848.7868c-3.73273,0-6.7868-3.05406-6.7868-6.78679
			V106.7868c0-3.73273,3.05408-6.7868,6.7868-6.7868h88.42639c3.73273,0,6.7868,3.05406,6.7868,6.7868V169.21321z"/>
		<path class="st12" d="M944,169.21321c0,3.73273-3.05408,6.78679-6.7868,6.78679H848.7868
			c-3.73273,0-6.7868-3.05406-6.7868-6.78679V106.7868c0-3.73273,3.05408-6.7868,6.7868-6.7868h88.42639
			c3.73273,0,6.7868,3.05406,6.7868,6.7868V169.21321z"/>
	</g>
	<g>
		<g>
			<path class="st10" d="M924,150.9917c0,2.75456-2.25372,5.0083-5.0083,5.0083h-51.9834c-2.75458,0-5.0083-2.25374-5.0083-5.0083
				v-25.9834c0-2.75457,2.25372-5.0083,5.0083-5.0083h51.9834c2.75458,0,5.0083,2.25373,5.0083,5.0083V150.9917z"/>
		</g>
		<g>
			<path class="st6" d="M872.14648,129.99609h5.44824c3.14453,0,4.72852,2.30469,4.72852,4.96875
				c0,2.68848-1.58398,4.99219-4.72852,4.99219h-2.78418v6.04883h-2.66406V129.99609z M877.28223,132.32422h-2.47168v5.28125
				h2.47168c1.41699,0,2.3291-1.05664,2.3291-2.64062S878.69922,132.32422,877.28223,132.32422z"/>
			<path class="st6" d="M884.45801,129.99609h2.66406v16.00977h-2.66406V129.99609z"/>
			<path class="st6" d="M890.19336,129.99609h4.77637c4.29688,0,6.74512,3.36035,6.74512,8.0166
				c0,4.65723-2.4248,7.99316-6.74512,7.99316h-4.77637V129.99609z M894.96973,143.65332c2.61621,0,4.00879-2.35156,4.00879-5.64062
				c0-3.35938-1.34473-5.68848-4.00879-5.68848h-2.1123v11.3291H894.96973z"/>
			<path class="st6" d="M909.60938,142.28516h-6.43262v-2.23145l5.66504-10.05762h3.4082v9.96094h1.67969v2.32812H912.25v3.7207
				h-2.64062V142.28516z M905.57715,139.95703h4.03223v-7.2002L905.57715,139.95703z"/>
		</g>
	</g>
</g>
</svg>
