<svg xmlns="http://www.w3.org/2000/svg" viewBox="0 0 510.37 405.18"><defs><style>.a{fill:#161a1d;}.b,.d,.g{fill:#fff;}.b{stroke:#161a1d;stroke-miterlimit:10;stroke-width:1.17px;}.c{fill:#232f3e;}.e{fill:#2f383f;}.f,.h{fill:#326ce5;}.g,.h{fill-rule:evenodd;}</style></defs><path class="a" d="M14.64,140.7H11.45l-5.27-7.61-1.62,1.32v6.29H1.81V123.9H4.56v8c.75-.92,1.49-1.81,2.24-2.66l4.54-5.36h3.12q-4.4,5.16-6.31,7.36Z" transform="translate(-1.81 -53.75)"/><path class="a" d="M21.35,123.68a6,6,0,0,1,3.78,1.09,3.57,3.57,0,0,1,1.39,2.94c0,1.73-1,3.1-3.1,4.12a8,8,0,0,1,2.81,2.08,3.93,3.93,0,0,1,.83,2.43,4.11,4.11,0,0,1-1.53,3.34,6.37,6.37,0,0,1-4.14,1.25,6.79,6.79,0,0,1-4.24-1.17,4,4,0,0,1-1.5-3.33,4.32,4.32,0,0,1,.78-2.52,6.62,6.62,0,0,1,2.58-2A6.66,6.66,0,0,1,16.82,130a4.17,4.17,0,0,1-.66-2.3,3.48,3.48,0,0,1,1.44-2.92A6.09,6.09,0,0,1,21.35,123.68Zm-3.12,12.66a2.23,2.23,0,0,0,.84,1.86,3.6,3.6,0,0,0,2.28.66,3.52,3.52,0,0,0,2.3-.68,2.3,2.3,0,0,0,.82-1.86,2.36,2.36,0,0,0-.76-1.7,7.23,7.23,0,0,0-2.29-1.43l-.34-.15a6,6,0,0,0-2.18,1.47A2.74,2.74,0,0,0,18.23,136.34Zm3.09-10.58a2.86,2.86,0,0,0-1.85.57,1.9,1.9,0,0,0-.7,1.54,2.2,2.2,0,0,0,.26,1.07,2.66,2.66,0,0,0,.73.86,9.42,9.42,0,0,0,1.63.92,5.33,5.33,0,0,0,1.95-1.28,2.35,2.35,0,0,0,.57-1.57,1.88,1.88,0,0,0-.71-1.54A2.89,2.89,0,0,0,21.32,125.76Z" transform="translate(-1.81 -53.75)"/><path class="a" d="M38.54,137.08a3.3,3.3,0,0,1-1.36,2.85,6.43,6.43,0,0,1-3.88,1,9.24,9.24,0,0,1-4.08-.77v-2.33a10.12,10.12,0,0,0,4.17,1c1.66,0,2.5-.5,2.5-1.51a1.2,1.2,0,0,0-.28-.8,3.14,3.14,0,0,0-.91-.67,15.43,15.43,0,0,0-1.76-.78,8.19,8.19,0,0,1-3-1.7,3.18,3.18,0,0,1-.77-2.21,2.91,2.91,0,0,1,1.31-2.53,6.26,6.26,0,0,1,3.58-.9,10,10,0,0,1,4.24.91l-.87,2a9.34,9.34,0,0,0-3.46-.85c-1.42,0-2.14.41-2.14,1.22a1.23,1.23,0,0,0,.56,1,12.94,12.94,0,0,0,2.43,1.14,10.85,10.85,0,0,1,2.29,1.11,3.43,3.43,0,0,1,1.06,1.17A3.35,3.35,0,0,1,38.54,137.08Z" transform="translate(-1.81 -53.75)"/><path class="a" d="M61.11,140.7H58.35v-7.58H50.61v7.58H47.86V123.9h2.75v6.87h7.74V123.9h2.76Z" transform="translate(-1.81 -53.75)"/><path class="a" d="M76.52,134.32a6.94,6.94,0,0,1-1.59,4.86,5.72,5.72,0,0,1-4.45,1.75,6.05,6.05,0,0,1-3.15-.81,5.24,5.24,0,0,1-2.1-2.31,7.83,7.83,0,0,1-.74-3.49,6.89,6.89,0,0,1,1.59-4.83,5.75,5.75,0,0,1,4.47-1.73,5.62,5.62,0,0,1,4.37,1.77A6.88,6.88,0,0,1,76.52,134.32Zm-9.25,0c0,2.93,1.09,4.4,3.25,4.4s3.22-1.47,3.22-4.4S72.66,130,70.5,130A2.76,2.76,0,0,0,68,131.09,5.73,5.73,0,0,0,67.27,134.32Z" transform="translate(-1.81 -53.75)"/><path class="a" d="M86.08,127.76a7,7,0,0,1,1.34.11l-.26,2.52a5.32,5.32,0,0,0-1.2-.14,3.45,3.45,0,0,0-2.63,1.06,3.81,3.81,0,0,0-1,2.75v6.64h-2.7V128h2.11l.36,2.24h.14a5.06,5.06,0,0,1,1.65-1.81A3.91,3.91,0,0,1,86.08,127.76Z" transform="translate(-1.81 -53.75)"/><path class="a" d="M89.61,124.62a1.38,1.38,0,0,1,1.53-1.51,1.37,1.37,0,0,1,1.51,1.51,1.46,1.46,0,0,1-.4,1.09,1.5,1.5,0,0,1-1.11.39,1.55,1.55,0,0,1-1.13-.39A1.51,1.51,0,0,1,89.61,124.62Zm2.87,16.08h-2.7V128h2.7Z" transform="translate(-1.81 -53.75)"/><path class="a" d="M104.83,140.7H95.19V139l6.42-9h-6V128h9.07v1.88l-6.29,8.76h6.47Z" transform="translate(-1.81 -53.75)"/><path class="a" d="M118.86,134.32a6.94,6.94,0,0,1-1.59,4.86,5.72,5.72,0,0,1-4.45,1.75,6.05,6.05,0,0,1-3.15-.81,5.24,5.24,0,0,1-2.1-2.31,7.83,7.83,0,0,1-.74-3.49,6.89,6.89,0,0,1,1.59-4.83,5.75,5.75,0,0,1,4.47-1.73,5.59,5.59,0,0,1,4.36,1.77A6.84,6.84,0,0,1,118.86,134.32Zm-9.25,0c0,2.93,1.09,4.4,3.25,4.4s3.22-1.47,3.22-4.4S115,130,112.84,130a2.76,2.76,0,0,0-2.46,1.13A5.73,5.73,0,0,0,109.61,134.32Z" transform="translate(-1.81 -53.75)"/><path class="a" d="M133.15,140.7h-2.71v-7.82a3.43,3.43,0,0,0-.59-2.19A2.32,2.32,0,0,0,128,130a3,3,0,0,0-2.51,1,5.56,5.56,0,0,0-.79,3.39v6.33H122V128h2.11l.38,1.66h.14a3.8,3.8,0,0,1,1.63-1.4,5.49,5.49,0,0,1,2.35-.49q4.57,0,4.57,4.65Z" transform="translate(-1.81 -53.75)"/><path class="a" d="M141.64,138.74a6.49,6.49,0,0,0,2-.31v2a5.56,5.56,0,0,1-1.15.33,8.83,8.83,0,0,1-1.47.13q-3.84,0-3.84-4.05V130h-1.73v-1.19l1.86-1,.92-2.69h1.66V128h3.62v2h-3.62v6.81a1.93,1.93,0,0,0,.49,1.44A1.78,1.78,0,0,0,141.64,138.74Z" transform="translate(-1.81 -53.75)"/><path class="a" d="M154.11,140.7l-.54-1.77h-.09a5.23,5.23,0,0,1-1.85,1.58,5.85,5.85,0,0,1-2.39.42,4.09,4.09,0,0,1-2.93-1,3.8,3.8,0,0,1-1.05-2.86,3.37,3.37,0,0,1,1.46-3,8.41,8.41,0,0,1,4.45-1.09l2.2-.07v-.68a2.56,2.56,0,0,0-.57-1.82,2.34,2.34,0,0,0-1.77-.6,6.14,6.14,0,0,0-1.87.28,13.67,13.67,0,0,0-1.72.68l-.88-1.93a9.55,9.55,0,0,1,2.27-.82,10.26,10.26,0,0,1,2.32-.28,5.55,5.55,0,0,1,3.66,1,4.18,4.18,0,0,1,1.23,3.33v8.56Zm-4-1.84a3.33,3.33,0,0,0,2.36-.82,3,3,0,0,0,.89-2.31v-1.1l-1.63.07a5.57,5.57,0,0,0-2.77.64,1.94,1.94,0,0,0-.87,1.74,1.7,1.7,0,0,0,.5,1.31A2.2,2.2,0,0,0,150.09,138.86Z" transform="translate(-1.81 -53.75)"/><path class="a" d="M162.51,140.7h-2.7V122.82h2.7Z" transform="translate(-1.81 -53.75)"/><path class="a" d="M183.9,129a4.9,4.9,0,0,1-1.72,4,7.64,7.64,0,0,1-4.91,1.4h-1.75v6.29h-2.74V123.9h4.84a7.27,7.27,0,0,1,4.71,1.28A4.63,4.63,0,0,1,183.9,129Zm-8.38,3.12H177a5.26,5.26,0,0,0,3.11-.73,2.68,2.68,0,0,0,1-2.3,2.6,2.6,0,0,0-.89-2.16,4.34,4.34,0,0,0-2.76-.72h-1.91Z" transform="translate(-1.81 -53.75)"/><path class="a" d="M198.25,134.32a6.94,6.94,0,0,1-1.6,4.86,5.72,5.72,0,0,1-4.45,1.75,6.05,6.05,0,0,1-3.15-.81,5.24,5.24,0,0,1-2.1-2.31,7.83,7.83,0,0,1-.74-3.49,6.89,6.89,0,0,1,1.59-4.83,5.78,5.78,0,0,1,4.47-1.73,5.62,5.62,0,0,1,4.37,1.77A6.89,6.89,0,0,1,198.25,134.32Zm-9.26,0q0,4.4,3.26,4.4t3.21-4.4c0-2.9-1.08-4.36-3.24-4.36a2.76,2.76,0,0,0-2.46,1.13A5.73,5.73,0,0,0,189,134.32Z" transform="translate(-1.81 -53.75)"/><path class="a" d="M205.64,140.93a4.44,4.44,0,0,1-3.72-1.73,9.45,9.45,0,0,1,0-9.7,4.47,4.47,0,0,1,3.74-1.74,4.38,4.38,0,0,1,3.82,1.85h.14a14.77,14.77,0,0,1-.2-2.16v-4.63h2.71V140.7H210l-.47-1.67h-.13A4.31,4.31,0,0,1,205.64,140.93Zm.72-2.19a2.93,2.93,0,0,0,2.42-.93,5,5,0,0,0,.79-3v-.38a5.61,5.61,0,0,0-.79-3.41,2.87,2.87,0,0,0-2.44-1,2.49,2.49,0,0,0-2.2,1.16,6,6,0,0,0-.77,3.29,5.78,5.78,0,0,0,.75,3.23A2.51,2.51,0,0,0,206.36,138.74Z" transform="translate(-1.81 -53.75)"/><path class="a" d="M24.52,168.94l-1.68-4.66H16.42l-1.65,4.66H11.88l6.28-16.87h3l6.29,16.87Zm-2.4-7-1.58-4.57c-.11-.31-.27-.79-.47-1.45s-.35-1.14-.42-1.45a26.27,26.27,0,0,1-.91,3.09l-1.52,4.38Z" transform="translate(-1.81 -53.75)"/><path class="a" d="M38.33,168.94,38,167.28h-.13a3.86,3.86,0,0,1-1.61,1.39,5.43,5.43,0,0,1-2.37.5A4.65,4.65,0,0,1,30.39,168a4.74,4.74,0,0,1-1.14-3.48v-8.31H32v7.84a3.4,3.4,0,0,0,.6,2.19,2.25,2.25,0,0,0,1.87.73,3,3,0,0,0,2.5-1,5.62,5.62,0,0,0,.8-3.41v-6.33h2.71v12.71Z" transform="translate(-1.81 -53.75)"/><path class="a" d="M49,167a6.49,6.49,0,0,0,2-.31v2a5.56,5.56,0,0,1-1.15.33,7.81,7.81,0,0,1-1.47.13q-3.84,0-3.84-4v-6.85H42.83v-1.2l1.86-1,.92-2.69h1.66v2.83H50.9v2.05H47.27v6.8a1.93,1.93,0,0,0,.49,1.44A1.8,1.8,0,0,0,49,167Z" transform="translate(-1.81 -53.75)"/><path class="a" d="M64.84,162.56a7,7,0,0,1-1.6,4.87,5.75,5.75,0,0,1-4.45,1.74,6,6,0,0,1-3.15-.8,5.35,5.35,0,0,1-2.1-2.31,7.88,7.88,0,0,1-.74-3.5,6.87,6.87,0,0,1,1.59-4.82A5.75,5.75,0,0,1,58.86,156a5.6,5.6,0,0,1,4.37,1.78A6.86,6.86,0,0,1,64.84,162.56Zm-9.26,0q0,4.41,3.26,4.41t3.21-4.41q0-4.35-3.24-4.35a2.74,2.74,0,0,0-2.46,1.13A5.69,5.69,0,0,0,55.58,162.56Z" transform="translate(-1.81 -53.75)"/><path class="a" d="M76.48,165.32a3.32,3.32,0,0,1-1.36,2.86,6.5,6.5,0,0,1-3.88,1,9,9,0,0,1-4.08-.77v-2.33a10,10,0,0,0,4.17,1q2.49,0,2.49-1.5a1.24,1.24,0,0,0-.27-.81,3.51,3.51,0,0,0-.91-.66,15.43,15.43,0,0,0-1.76-.78,8.33,8.33,0,0,1-3-1.7,3.15,3.15,0,0,1-.77-2.21,2.9,2.9,0,0,1,1.31-2.54A6.26,6.26,0,0,1,72,156a10.19,10.19,0,0,1,4.24.91l-.87,2a9.59,9.59,0,0,0-3.46-.85c-1.43,0-2.14.41-2.14,1.22a1.22,1.22,0,0,0,.56,1,11.75,11.75,0,0,0,2.43,1.14,11.29,11.29,0,0,1,2.29,1.12,3.28,3.28,0,0,1,1,1.16A3.38,3.38,0,0,1,76.48,165.32Z" transform="translate(-1.81 -53.75)"/><path class="a" d="M84.52,169.17a5.57,5.57,0,0,1-4.38-1.68,8.53,8.53,0,0,1,.07-9.76A5.81,5.81,0,0,1,84.74,156a8.46,8.46,0,0,1,3.62.75l-.81,2.17a8.37,8.37,0,0,0-2.83-.67q-3.3,0-3.3,4.38a5.25,5.25,0,0,0,.82,3.22,2.86,2.86,0,0,0,2.41,1.07,6.87,6.87,0,0,0,3.41-.9v2.36a5.39,5.39,0,0,1-1.54.61A9.49,9.49,0,0,1,84.52,169.17Z" transform="translate(-1.81 -53.75)"/><path class="a" d="M99,168.94l-.54-1.77h-.09a5.13,5.13,0,0,1-1.85,1.58,5.85,5.85,0,0,1-2.39.42,4,4,0,0,1-2.92-1,3.79,3.79,0,0,1-1.06-2.86,3.38,3.38,0,0,1,1.46-3,8.5,8.5,0,0,1,4.45-1.09l2.2-.07v-.67a2.59,2.59,0,0,0-.57-1.83,2.34,2.34,0,0,0-1.77-.6,6.14,6.14,0,0,0-1.87.29,13.67,13.67,0,0,0-1.72.68l-.88-1.93a9.57,9.57,0,0,1,2.27-.83A10.86,10.86,0,0,1,96,156a5.46,5.46,0,0,1,3.66,1.06,4.14,4.14,0,0,1,1.24,3.32v8.56Zm-4-1.84a3.33,3.33,0,0,0,2.36-.82,3,3,0,0,0,.89-2.3v-1.1l-1.63.06a5.6,5.6,0,0,0-2.77.64,1.94,1.94,0,0,0-.87,1.74,1.73,1.73,0,0,0,.5,1.32A2.19,2.19,0,0,0,95,167.1Z" transform="translate(-1.81 -53.75)"/><path class="a" d="M107.41,168.94h-2.7V151.06h2.7Z" transform="translate(-1.81 -53.75)"/><path class="a" d="M116.82,169.17a6.13,6.13,0,0,1-4.64-1.73,6.58,6.58,0,0,1-1.67-4.76,7.23,7.23,0,0,1,1.55-4.9,5.39,5.39,0,0,1,4.26-1.78,5.24,5.24,0,0,1,4,1.53,5.86,5.86,0,0,1,1.46,4.21v1.46h-8.47a4.16,4.16,0,0,0,1,2.84,3.5,3.5,0,0,0,2.66,1,9.78,9.78,0,0,0,2.09-.22,10.69,10.69,0,0,0,2.09-.7v2.19a8.12,8.12,0,0,1-2,.67A12.4,12.4,0,0,1,116.82,169.17Zm-.5-11.12a2.73,2.73,0,0,0-2.06.81,3.9,3.9,0,0,0-.92,2.38h5.77a3.53,3.53,0,0,0-.76-2.38A2.61,2.61,0,0,0,116.32,158.05Z" transform="translate(-1.81 -53.75)"/><path class="a" d="M131.28,156a6.2,6.2,0,0,1,1.34.12l-.26,2.51a5.25,5.25,0,0,0-1.2-.13,3.46,3.46,0,0,0-2.62,1.05,3.84,3.84,0,0,0-1,2.75v6.64h-2.7V156.23h2.11l.36,2.24h.14a5,5,0,0,1,1.65-1.8A3.89,3.89,0,0,1,131.28,156Z" transform="translate(-1.81 -53.75)"/><path class="a" d="M140.1,162.5a17.91,17.91,0,0,1,.89-5.7,14.26,14.26,0,0,1,2.57-4.66h2.36a16.47,16.47,0,0,0-2.45,4.84,18,18,0,0,0-.85,5.49,17.53,17.53,0,0,0,.85,5.44,16.59,16.59,0,0,0,2.43,4.76h-2.34A13.74,13.74,0,0,1,141,168.1,17.25,17.25,0,0,1,140.1,162.5Z" transform="translate(-1.81 -53.75)"/><path class="a" d="M162.09,168.94h-2.76v-7.57h-7.75v7.57h-2.74v-16.8h2.74V159h7.75v-6.87h2.76Z" transform="translate(-1.81 -53.75)"/><path class="a" d="M177.64,157.22a4.9,4.9,0,0,1-1.72,4,7.58,7.58,0,0,1-4.91,1.41h-1.75v6.28h-2.75v-16.8h4.84a7.32,7.32,0,0,1,4.72,1.29A4.61,4.61,0,0,1,177.64,157.22Zm-8.38,3.13h1.46a5.22,5.22,0,0,0,3.1-.74,2.68,2.68,0,0,0,1-2.3,2.62,2.62,0,0,0-.88-2.16,4.41,4.41,0,0,0-2.76-.71h-1.91Z" transform="translate(-1.81 -53.75)"/><path class="a" d="M191.42,168.94l-1.68-4.66h-6.42l-1.65,4.66h-2.89l6.28-16.87h3l6.29,16.87Zm-2.4-7-1.58-4.57c-.11-.31-.27-.79-.47-1.45s-.35-1.14-.42-1.45a26.27,26.27,0,0,1-.91,3.09l-1.52,4.38Z" transform="translate(-1.81 -53.75)"/><path class="a" d="M200.85,162.5a17.17,17.17,0,0,1-.89,5.63,13.56,13.56,0,0,1-2.56,4.54h-2.34a16.53,16.53,0,0,0,2.43-4.77,17.42,17.42,0,0,0,.85-5.43,18.29,18.29,0,0,0-.85-5.49,16.84,16.84,0,0,0-2.45-4.84h2.36a14.22,14.22,0,0,1,2.57,4.67A17.94,17.94,0,0,1,200.85,162.5Z" transform="translate(-1.81 -53.75)"/><path class="a" d="M332.21,140.7H329l-5.27-7.61-1.62,1.32v6.29h-2.75V123.9h2.75v8c.75-.92,1.5-1.81,2.24-2.66l4.54-5.36H332q-4.41,5.16-6.31,7.36Z" transform="translate(-1.81 -53.75)"/><path class="a" d="M338.92,123.68a6,6,0,0,1,3.78,1.09,3.57,3.57,0,0,1,1.39,2.94q0,2.6-3.1,4.12a7.87,7.87,0,0,1,2.81,2.08,3.93,3.93,0,0,1,.83,2.43,4.11,4.11,0,0,1-1.53,3.34,6.34,6.34,0,0,1-4.13,1.25,6.8,6.8,0,0,1-4.25-1.17,4,4,0,0,1-1.5-3.33,4.26,4.26,0,0,1,.79-2.52,6.48,6.48,0,0,1,2.58-2,6.6,6.6,0,0,1-2.2-1.94,4.25,4.25,0,0,1-.65-2.3,3.47,3.47,0,0,1,1.43-2.92A6.09,6.09,0,0,1,338.92,123.68Zm-3.11,12.66a2.22,2.22,0,0,0,.83,1.86,3.6,3.6,0,0,0,2.28.66,3.51,3.51,0,0,0,2.3-.68,2.3,2.3,0,0,0,.83-1.86,2.4,2.4,0,0,0-.76-1.7,7.29,7.29,0,0,0-2.3-1.43l-.33-.15a6,6,0,0,0-2.19,1.47A2.78,2.78,0,0,0,335.81,136.34Zm3.09-10.58a2.82,2.82,0,0,0-1.85.57,1.87,1.87,0,0,0-.7,1.54,2.2,2.2,0,0,0,.25,1.07,2.79,2.79,0,0,0,.73.86,9.6,9.6,0,0,0,1.64.92,5.28,5.28,0,0,0,1.94-1.28,2.35,2.35,0,0,0,.57-1.57,1.87,1.87,0,0,0-.7-1.54A2.93,2.93,0,0,0,338.9,125.76Z" transform="translate(-1.81 -53.75)"/><path class="a" d="M356.11,137.08a3.32,3.32,0,0,1-1.35,2.85,6.46,6.46,0,0,1-3.89,1,9.24,9.24,0,0,1-4.08-.77v-2.33a10.2,10.2,0,0,0,4.17,1c1.67,0,2.5-.5,2.5-1.51a1.15,1.15,0,0,0-.28-.8,3.07,3.07,0,0,0-.9-.67,16.28,16.28,0,0,0-1.76-.78,8,8,0,0,1-3-1.7,3.14,3.14,0,0,1-.78-2.21,2.9,2.9,0,0,1,1.32-2.53,6.24,6.24,0,0,1,3.58-.9,10.1,10.1,0,0,1,4.24.91l-.88,2a9.34,9.34,0,0,0-3.46-.85c-1.42,0-2.13.41-2.13,1.22a1.22,1.22,0,0,0,.55,1,13.64,13.64,0,0,0,2.43,1.14,10.6,10.6,0,0,1,2.29,1.11,3.08,3.08,0,0,1,1.4,2.75Z" transform="translate(-1.81 -53.75)"/><path class="a" d="M375,123.9h2.85L372,140.7h-2.89l-5.86-16.8H366l3.51,10.44c.18.5.38,1.14.58,1.93s.35,1.37.41,1.75c.1-.58.25-1.26.46-2s.37-1.34.5-1.7Z" transform="translate(-1.81 -53.75)"/><path class="a" d="M385.34,140.93a6.17,6.17,0,0,1-4.64-1.73,6.58,6.58,0,0,1-1.67-4.77,7.22,7.22,0,0,1,1.55-4.89,5.37,5.37,0,0,1,4.27-1.78,5.23,5.23,0,0,1,4,1.53,5.79,5.79,0,0,1,1.46,4.2V135h-8.47a4.19,4.19,0,0,0,1,2.85,3.51,3.51,0,0,0,2.66,1,9.8,9.8,0,0,0,2.09-.21,10.76,10.76,0,0,0,2.09-.71v2.2a8.52,8.52,0,0,1-2,.66A12.19,12.19,0,0,1,385.34,140.93Zm-.49-11.13a2.75,2.75,0,0,0-2.07.82,3.93,3.93,0,0,0-.92,2.38h5.77a3.56,3.56,0,0,0-.76-2.39A2.6,2.6,0,0,0,384.85,129.8Z" transform="translate(-1.81 -53.75)"/><path class="a" d="M399.8,127.76a7,7,0,0,1,1.34.11l-.26,2.52a5.19,5.19,0,0,0-1.2-.14,3.43,3.43,0,0,0-2.62,1.06,3.82,3.82,0,0,0-1,2.75v6.64h-2.7V128h2.12l.35,2.24H396a5.06,5.06,0,0,1,1.65-1.81A4,4,0,0,1,399.8,127.76Z" transform="translate(-1.81 -53.75)"/><path class="a" d="M408.23,138.74a6.49,6.49,0,0,0,2-.31v2a5.56,5.56,0,0,1-1.15.33,8.83,8.83,0,0,1-1.47.13q-3.84,0-3.84-4.05V130H402v-1.19l1.86-1,.92-2.69h1.66V128h3.62v2h-3.62v6.81a1.93,1.93,0,0,0,.49,1.44A1.8,1.8,0,0,0,408.23,138.74Z" transform="translate(-1.81 -53.75)"/><path class="a" d="M412.59,124.62a1.51,1.51,0,0,1,.4-1.12,1.51,1.51,0,0,1,2.63,1.12,1.5,1.5,0,0,1-.39,1.09,1.8,1.8,0,0,1-2.24,0A1.46,1.46,0,0,1,412.59,124.62Zm2.86,16.08h-2.7V128h2.7Z" transform="translate(-1.81 -53.75)"/><path class="a" d="M424.44,140.93a5.56,5.56,0,0,1-4.39-1.69,7,7,0,0,1-1.5-4.83,7.1,7.1,0,0,1,1.57-4.93,5.83,5.83,0,0,1,4.54-1.72,8.64,8.64,0,0,1,3.62.74l-.82,2.18a8,8,0,0,0-2.83-.67q-3.3,0-3.3,4.38a5.24,5.24,0,0,0,.83,3.21,2.84,2.84,0,0,0,2.4,1.08,6.88,6.88,0,0,0,3.42-.9v2.36a5.31,5.31,0,0,1-1.55.6A8.78,8.78,0,0,1,424.44,140.93Z" transform="translate(-1.81 -53.75)"/><path class="a" d="M438.92,140.7l-.54-1.77h-.09a5.32,5.32,0,0,1-1.85,1.58,5.85,5.85,0,0,1-2.39.42,4.07,4.07,0,0,1-2.93-1,3.8,3.8,0,0,1-1.05-2.86,3.37,3.37,0,0,1,1.46-3A8.38,8.38,0,0,1,436,133l2.19-.07v-.68a2.56,2.56,0,0,0-.57-1.82,2.31,2.31,0,0,0-1.76-.6,6.09,6.09,0,0,0-1.87.28,13.82,13.82,0,0,0-1.73.68l-.87-1.93a9.47,9.47,0,0,1,2.26-.82,10.34,10.34,0,0,1,2.33-.28,5.55,5.55,0,0,1,3.66,1,4.18,4.18,0,0,1,1.23,3.33v8.56Zm-4-1.84a3.33,3.33,0,0,0,2.36-.82,3,3,0,0,0,.89-2.31v-1.1l-1.63.07a5.65,5.65,0,0,0-2.78.64,1.93,1.93,0,0,0-.86,1.74,1.67,1.67,0,0,0,.5,1.31A2.18,2.18,0,0,0,434.9,138.86Z" transform="translate(-1.81 -53.75)"/><path class="a" d="M447.32,140.7h-2.7V122.82h2.7Z" transform="translate(-1.81 -53.75)"/><path class="a" d="M468.71,129a4.93,4.93,0,0,1-1.72,4,7.64,7.64,0,0,1-4.91,1.4h-1.75v6.29h-2.75V123.9h4.84a7.32,7.32,0,0,1,4.72,1.28A4.63,4.63,0,0,1,468.71,129Zm-8.38,3.12h1.46a5.23,5.23,0,0,0,3.1-.73,2.68,2.68,0,0,0,1-2.3,2.59,2.59,0,0,0-.88-2.16,4.34,4.34,0,0,0-2.76-.72h-1.91Z" transform="translate(-1.81 -53.75)"/><path class="a" d="M483.05,134.32a6.94,6.94,0,0,1-1.59,4.86,5.72,5.72,0,0,1-4.45,1.75,6.05,6.05,0,0,1-3.15-.81,5.24,5.24,0,0,1-2.1-2.31,7.7,7.7,0,0,1-.74-3.49,6.89,6.89,0,0,1,1.59-4.83,5.75,5.75,0,0,1,4.47-1.73,5.59,5.59,0,0,1,4.36,1.77A6.84,6.84,0,0,1,483.05,134.32Zm-9.25,0c0,2.93,1.09,4.4,3.25,4.4s3.22-1.47,3.22-4.4S479.19,130,477,130a2.76,2.76,0,0,0-2.46,1.13A5.73,5.73,0,0,0,473.8,134.32Z" transform="translate(-1.81 -53.75)"/><path class="a" d="M490.44,140.93a4.44,4.44,0,0,1-3.71-1.73,9.45,9.45,0,0,1,0-9.7,4.46,4.46,0,0,1,3.74-1.74,4.35,4.35,0,0,1,3.81,1.85h.14a16,16,0,0,1-.19-2.16v-4.63H497V140.7h-2.12l-.47-1.67h-.12A4.32,4.32,0,0,1,490.44,140.93Zm.73-2.19a2.93,2.93,0,0,0,2.42-.93,4.88,4.88,0,0,0,.78-3v-.38a5.69,5.69,0,0,0-.78-3.41,2.89,2.89,0,0,0-2.45-1,2.48,2.48,0,0,0-2.19,1.16,7.42,7.42,0,0,0,0,6.52A2.53,2.53,0,0,0,491.17,138.74Z" transform="translate(-1.81 -53.75)"/><path class="a" d="M327.23,168.94l-1.68-4.66h-6.43l-1.64,4.66h-2.9l6.29-16.87h3l6.29,16.87Zm-2.41-7-1.57-4.57c-.12-.31-.27-.79-.48-1.45s-.34-1.14-.42-1.45a26.09,26.09,0,0,1-.9,3.09l-1.52,4.38Z" transform="translate(-1.81 -53.75)"/><path class="a" d="M341,168.94l-.38-1.66h-.14a3.83,3.83,0,0,1-1.6,1.39,5.43,5.43,0,0,1-2.37.5A4.65,4.65,0,0,1,333.1,168a4.74,4.74,0,0,1-1.14-3.48v-8.31h2.73v7.84a3.41,3.41,0,0,0,.59,2.19,2.29,2.29,0,0,0,1.88.73,3,3,0,0,0,2.5-1,5.62,5.62,0,0,0,.8-3.41v-6.33h2.71v12.71Z" transform="translate(-1.81 -53.75)"/><path class="a" d="M351.75,167a6.49,6.49,0,0,0,2-.31v2a5.67,5.67,0,0,1-1.16.33,7.77,7.77,0,0,1-1.46.13q-3.84,0-3.84-4v-6.85h-1.74v-1.2l1.87-1,.92-2.69H350v2.83h3.62v2.05H350v6.8a1.89,1.89,0,0,0,.49,1.44A1.79,1.79,0,0,0,351.75,167Z" transform="translate(-1.81 -53.75)"/><path class="a" d="M367.54,162.56a7,7,0,0,1-1.59,4.87,5.75,5.75,0,0,1-4.45,1.74,6,6,0,0,1-3.15-.8,5.35,5.35,0,0,1-2.1-2.31,7.74,7.74,0,0,1-.74-3.5,6.87,6.87,0,0,1,1.59-4.82,5.72,5.72,0,0,1,4.47-1.74,5.56,5.56,0,0,1,4.36,1.78A6.81,6.81,0,0,1,367.54,162.56Zm-9.25,0c0,2.94,1.09,4.41,3.25,4.41s3.22-1.47,3.22-4.41-1.08-4.35-3.24-4.35a2.74,2.74,0,0,0-2.46,1.13A5.69,5.69,0,0,0,358.29,162.56Z" transform="translate(-1.81 -53.75)"/><path class="a" d="M379.19,165.32a3.34,3.34,0,0,1-1.36,2.86,6.5,6.5,0,0,1-3.88,1,9,9,0,0,1-4.08-.77v-2.33a10,10,0,0,0,4.17,1q2.49,0,2.49-1.5a1.19,1.19,0,0,0-.28-.81,3.26,3.26,0,0,0-.9-.66,15.43,15.43,0,0,0-1.76-.78,8.15,8.15,0,0,1-3-1.7,3.16,3.16,0,0,1-.78-2.21,2.91,2.91,0,0,1,1.32-2.54,6.26,6.26,0,0,1,3.58-.9,10.22,10.22,0,0,1,4.24.91l-.87,2a9.64,9.64,0,0,0-3.46-.85c-1.43,0-2.14.41-2.14,1.22a1.2,1.2,0,0,0,.56,1,11.75,11.75,0,0,0,2.43,1.14,10.89,10.89,0,0,1,2.28,1.12,3.22,3.22,0,0,1,1.06,1.16A3.38,3.38,0,0,1,379.19,165.32Z" transform="translate(-1.81 -53.75)"/><path class="a" d="M387.23,169.17a5.57,5.57,0,0,1-4.38-1.68,8.53,8.53,0,0,1,.07-9.76,5.8,5.8,0,0,1,4.53-1.73,8.46,8.46,0,0,1,3.62.75l-.82,2.17a8.27,8.27,0,0,0-2.82-.67q-3.3,0-3.3,4.38a5.25,5.25,0,0,0,.82,3.22,2.86,2.86,0,0,0,2.41,1.07,6.87,6.87,0,0,0,3.41-.9v2.36a5.33,5.33,0,0,1-1.55.61A9.39,9.39,0,0,1,387.23,169.17Z" transform="translate(-1.81 -53.75)"/><path class="a" d="M401.71,168.94l-.54-1.77h-.09a5.13,5.13,0,0,1-1.85,1.58,5.85,5.85,0,0,1-2.39.42,4,4,0,0,1-2.93-1,3.78,3.78,0,0,1-1.05-2.86,3.38,3.38,0,0,1,1.46-3,8.47,8.47,0,0,1,4.45-1.09l2.19-.07v-.67a2.59,2.59,0,0,0-.56-1.83,2.34,2.34,0,0,0-1.77-.6,6.14,6.14,0,0,0-1.87.29A14.45,14.45,0,0,0,395,159l-.87-1.93a9.65,9.65,0,0,1,2.26-.83,11,11,0,0,1,2.33-.28,5.49,5.49,0,0,1,3.66,1.06,4.14,4.14,0,0,1,1.23,3.32v8.56Zm-4-1.84a3.33,3.33,0,0,0,2.36-.82,3,3,0,0,0,.89-2.3v-1.1l-1.63.06a5.65,5.65,0,0,0-2.78.64,2,2,0,0,0-.86,1.74,1.69,1.69,0,0,0,.5,1.32A2.19,2.19,0,0,0,397.69,167.1Z" transform="translate(-1.81 -53.75)"/><path class="a" d="M410.11,168.94h-2.7V151.06h2.7Z" transform="translate(-1.81 -53.75)"/><path class="a" d="M419.53,169.17a6.12,6.12,0,0,1-4.64-1.73,6.53,6.53,0,0,1-1.67-4.76,7.18,7.18,0,0,1,1.55-4.9A5.37,5.37,0,0,1,419,156a5.24,5.24,0,0,1,4,1.53,5.86,5.86,0,0,1,1.46,4.21v1.46H416a4.16,4.16,0,0,0,1,2.84,3.49,3.49,0,0,0,2.65,1,10,10,0,0,0,2.1-.22,10.91,10.91,0,0,0,2.09-.7v2.19a8.12,8.12,0,0,1-2,.67A12.4,12.4,0,0,1,419.53,169.17Zm-.5-11.12a2.72,2.72,0,0,0-2.06.81,3.9,3.9,0,0,0-.93,2.38h5.77a3.48,3.48,0,0,0-.76-2.38A2.59,2.59,0,0,0,419,158.05Z" transform="translate(-1.81 -53.75)"/><path class="a" d="M434,156a6.23,6.23,0,0,1,1.35.12l-.27,2.51a5.17,5.17,0,0,0-1.19-.13,3.48,3.48,0,0,0-2.63,1.05,3.83,3.83,0,0,0-1,2.75v6.64h-2.7V156.23h2.11l.36,2.24h.14a5,5,0,0,1,1.64-1.8A3.89,3.89,0,0,1,434,156Z" transform="translate(-1.81 -53.75)"/><path class="a" d="M442.81,162.5a17.91,17.91,0,0,1,.89-5.7,14.07,14.07,0,0,1,2.57-4.66h2.36a16.47,16.47,0,0,0-2.45,4.84,18,18,0,0,0-.85,5.49,17.53,17.53,0,0,0,.85,5.44,16.57,16.57,0,0,0,2.42,4.76h-2.33a13.57,13.57,0,0,1-2.57-4.57A17.25,17.25,0,0,1,442.81,162.5Z" transform="translate(-1.81 -53.75)"/><path class="a" d="M461.12,152.14H464l-5.89,16.8h-2.89l-5.86-16.8h2.82l3.51,10.45c.18.5.38,1.14.59,1.92s.34,1.37.4,1.76c.1-.59.25-1.26.46-2s.37-1.33.5-1.7Z" transform="translate(-1.81 -53.75)"/><path class="a" d="M477.31,157.22a4.87,4.87,0,0,1-1.72,4,7.58,7.58,0,0,1-4.91,1.41h-1.75v6.28h-2.74v-16.8H471a7.29,7.29,0,0,1,4.71,1.29A4.61,4.61,0,0,1,477.31,157.22Zm-8.38,3.13h1.46a5.26,5.26,0,0,0,3.11-.74,2.67,2.67,0,0,0,1-2.3,2.62,2.62,0,0,0-.88-2.16,4.41,4.41,0,0,0-2.76-.71h-1.91Z" transform="translate(-1.81 -53.75)"/><path class="a" d="M491.09,168.94l-1.68-4.66H483l-1.64,4.66h-2.9l6.29-16.87h3L494,168.94Zm-2.4-7-1.57-4.57c-.12-.31-.28-.79-.48-1.45s-.34-1.14-.42-1.45a26.27,26.27,0,0,1-.91,3.09l-1.52,4.38Z" transform="translate(-1.81 -53.75)"/><path class="a" d="M500.53,162.5a17.44,17.44,0,0,1-.89,5.63,13.58,13.58,0,0,1-2.57,4.54h-2.33a17,17,0,0,0,2.43-4.77,17.71,17.71,0,0,0,.84-5.43,18,18,0,0,0-.85-5.49,16.59,16.59,0,0,0-2.45-4.84h2.36a14,14,0,0,1,2.57,4.67A17.94,17.94,0,0,1,500.53,162.5Z" transform="translate(-1.81 -53.75)"/><rect class="b" x="1.37" y="326.92" width="207.13" height="77.67"/><path class="a" d="M24.48,403.67H21.79L15.18,393h-.07l0,.6c.09,1.14.13,2.18.13,3.13v7h-2V390.23H16l6.59,10.66h.06c0-.14,0-.66-.07-1.54s-.06-1.58-.06-2.08v-7h2Z" transform="translate(-1.81 -53.75)"/><path class="a" d="M36.82,398.57a5.51,5.51,0,0,1-1.28,3.89,4.57,4.57,0,0,1-3.55,1.4,4.87,4.87,0,0,1-2.52-.65,4.25,4.25,0,0,1-1.69-1.84,6.37,6.37,0,0,1-.58-2.8,5.52,5.52,0,0,1,1.26-3.86A4.6,4.6,0,0,1,32,393.32a4.49,4.49,0,0,1,3.5,1.42A5.52,5.52,0,0,1,36.82,398.57Zm-7.4,0q0,3.53,2.6,3.52t2.58-3.52q0-3.48-2.6-3.48a2.22,2.22,0,0,0-2,.9A4.56,4.56,0,0,0,29.42,398.57Z" transform="translate(-1.81 -53.75)"/><path class="a" d="M42.73,403.86a3.53,3.53,0,0,1-3-1.38,6.14,6.14,0,0,1-1.07-3.87,6.24,6.24,0,0,1,1.08-3.9,3.6,3.6,0,0,1,3-1.39,3.48,3.48,0,0,1,3,1.48h.11a13.41,13.41,0,0,1-.15-1.73v-3.7H48v14.3H46.26l-.38-1.33h-.1A3.46,3.46,0,0,1,42.73,403.86Zm.58-1.75a2.34,2.34,0,0,0,1.94-.75,3.89,3.89,0,0,0,.63-2.43v-.3a4.49,4.49,0,0,0-.63-2.73,2.3,2.3,0,0,0-2-.81,2,2,0,0,0-1.76.92,4.73,4.73,0,0,0-.62,2.63,4.6,4.6,0,0,0,.6,2.58A2,2,0,0,0,43.31,402.11Z" transform="translate(-1.81 -53.75)"/><path class="a" d="M55.48,403.86a4.89,4.89,0,0,1-3.71-1.39,5.25,5.25,0,0,1-1.34-3.81,5.73,5.73,0,0,1,1.24-3.91,4.3,4.3,0,0,1,3.41-1.43,4.18,4.18,0,0,1,3.18,1.22,4.68,4.68,0,0,1,1.17,3.37v1.17H52.66a3.3,3.3,0,0,0,.8,2.27,2.78,2.78,0,0,0,2.12.8,8.1,8.1,0,0,0,1.68-.17,8.94,8.94,0,0,0,1.67-.57v1.76a6.53,6.53,0,0,1-1.6.53A9.37,9.37,0,0,1,55.48,403.86Zm-.4-8.9a2.17,2.17,0,0,0-1.65.65,3.15,3.15,0,0,0-.74,1.9h4.62a2.79,2.79,0,0,0-.61-1.9A2,2,0,0,0,55.08,395Z" transform="translate(-1.81 -53.75)"/><rect class="c" x="10.79" y="356.98" width="56.49" height="37.66"/><path class="d" d="M34.11,426.73A3.9,3.9,0,0,1,32.73,430a6.07,6.07,0,0,1-3.93,1.13H27.4v5H25.21V422.66h3.87a5.87,5.87,0,0,1,3.77,1A3.7,3.7,0,0,1,34.11,426.73Zm-6.71,2.5h1.17a4.17,4.17,0,0,0,2.48-.59,2.14,2.14,0,0,0,.79-1.84,2.09,2.09,0,0,0-.7-1.73,3.5,3.5,0,0,0-2.21-.57H27.4Z" transform="translate(-1.81 -53.75)"/><path class="d" d="M45.58,431a5.51,5.51,0,0,1-1.28,3.89,4.57,4.57,0,0,1-3.55,1.4,4.85,4.85,0,0,1-2.52-.65,4.25,4.25,0,0,1-1.69-1.84A6.37,6.37,0,0,1,36,431a5.54,5.54,0,0,1,1.26-3.86,4.6,4.6,0,0,1,3.58-1.39,4.48,4.48,0,0,1,3.49,1.42A5.5,5.5,0,0,1,45.58,431Zm-7.4,0q0,3.53,2.6,3.52T43.36,431q0-3.48-2.6-3.48a2.22,2.22,0,0,0-2,.9A4.56,4.56,0,0,0,38.18,431Z" transform="translate(-1.81 -53.75)"/><path class="d" d="M51.49,436.29a3.54,3.54,0,0,1-3-1.38,7.59,7.59,0,0,1,0-7.77,3.58,3.58,0,0,1,3-1.39,3.51,3.51,0,0,1,3,1.48h.11a13.41,13.41,0,0,1-.15-1.73v-3.7h2.17v14.3H55l-.37-1.33h-.1A3.48,3.48,0,0,1,51.49,436.29Zm.58-1.75a2.34,2.34,0,0,0,1.94-.75,3.89,3.89,0,0,0,.63-2.43v-.3a4.53,4.53,0,0,0-.63-2.73,2.31,2.31,0,0,0-2-.81,2,2,0,0,0-1.75.92,4.77,4.77,0,0,0-.62,2.64,4.58,4.58,0,0,0,.6,2.57A2,2,0,0,0,52.07,434.54Z" transform="translate(-1.81 -53.75)"/><rect class="c" x="76.78" y="356.98" width="56.49" height="37.66"/><path class="d" d="M100.1,426.73A3.9,3.9,0,0,1,98.72,430a6,6,0,0,1-3.92,1.13H93.4v5H91.2V422.66h3.87a5.92,5.92,0,0,1,3.78,1A3.73,3.73,0,0,1,100.1,426.73Zm-6.7,2.5h1.17a4.19,4.19,0,0,0,2.48-.59,2.14,2.14,0,0,0,.79-1.84,2.1,2.1,0,0,0-.71-1.73,3.47,3.47,0,0,0-2.2-.57H93.4Z" transform="translate(-1.81 -53.75)"/><path class="d" d="M111.58,431a5.56,5.56,0,0,1-1.28,3.89,4.59,4.59,0,0,1-3.56,1.4,4.87,4.87,0,0,1-2.52-.65,4.17,4.17,0,0,1-1.68-1.84A6.37,6.37,0,0,1,102,431a5.5,5.5,0,0,1,1.27-3.86,4.6,4.6,0,0,1,3.58-1.39,4.5,4.5,0,0,1,3.49,1.42A5.5,5.5,0,0,1,111.58,431Zm-7.4,0c0,2.35.86,3.52,2.6,3.52s2.57-1.17,2.57-3.52-.86-3.48-2.59-3.48a2.2,2.2,0,0,0-2,.9A4.56,4.56,0,0,0,104.18,431Z" transform="translate(-1.81 -53.75)"/><path class="d" d="M117.49,436.29a3.54,3.54,0,0,1-3-1.38,7.56,7.56,0,0,1,0-7.77,3.6,3.6,0,0,1,3-1.39,3.53,3.53,0,0,1,3,1.48h.11a12.08,12.08,0,0,1-.16-1.73v-3.7h2.17v14.3H121l-.38-1.33h-.1A3.45,3.45,0,0,1,117.49,436.29Zm.58-1.75a2.36,2.36,0,0,0,1.94-.75,4,4,0,0,0,.62-2.43v-.3a4.54,4.54,0,0,0-.62-2.73,2.32,2.32,0,0,0-2-.81,2,2,0,0,0-1.76.92,4.77,4.77,0,0,0-.61,2.64,4.58,4.58,0,0,0,.6,2.57A2,2,0,0,0,118.07,434.54Z" transform="translate(-1.81 -53.75)"/><rect class="c" x="142.69" y="356.98" width="56.49" height="37.66"/><path class="d" d="M166,426.73a3.9,3.9,0,0,1-1.38,3.22,6.07,6.07,0,0,1-3.93,1.13h-1.4v5h-2.19V422.66H161a5.87,5.87,0,0,1,3.77,1A3.7,3.7,0,0,1,166,426.73Zm-6.71,2.5h1.17a4.17,4.17,0,0,0,2.48-.59,2.14,2.14,0,0,0,.8-1.84,2.1,2.1,0,0,0-.71-1.73,3.5,3.5,0,0,0-2.21-.57H159.3Z" transform="translate(-1.81 -53.75)"/><path class="d" d="M177.48,431a5.51,5.51,0,0,1-1.28,3.89,4.57,4.57,0,0,1-3.55,1.4,4.87,4.87,0,0,1-2.52-.65,4.25,4.25,0,0,1-1.69-1.84,6.37,6.37,0,0,1-.58-2.8,5.54,5.54,0,0,1,1.26-3.86,4.6,4.6,0,0,1,3.58-1.39,4.48,4.48,0,0,1,3.49,1.42A5.5,5.5,0,0,1,177.48,431Zm-7.4,0q0,3.53,2.6,3.52t2.58-3.52q0-3.48-2.6-3.48a2.22,2.22,0,0,0-2,.9A4.56,4.56,0,0,0,170.08,431Z" transform="translate(-1.81 -53.75)"/><path class="d" d="M183.39,436.29a3.54,3.54,0,0,1-3-1.38,7.59,7.59,0,0,1,0-7.77,3.6,3.6,0,0,1,3-1.39,3.51,3.51,0,0,1,3,1.48h.11a13.41,13.41,0,0,1-.15-1.73v-3.7h2.17v14.3h-1.69l-.38-1.33h-.1A3.48,3.48,0,0,1,183.39,436.29Zm.58-1.75a2.34,2.34,0,0,0,1.94-.75,3.89,3.89,0,0,0,.63-2.43v-.3a4.53,4.53,0,0,0-.63-2.73,2.31,2.31,0,0,0-2-.81,2,2,0,0,0-1.75.92,4.77,4.77,0,0,0-.62,2.64,4.58,4.58,0,0,0,.6,2.57A2,2,0,0,0,184,434.54Z" transform="translate(-1.81 -53.75)"/><rect class="b" x="1.37" y="138.62" width="207.13" height="77.67"/><path class="a" d="M24.48,215.37H21.79l-6.61-10.71h-.07l0,.6c.09,1.14.13,2.18.13,3.13v7h-2V201.93H16l6.59,10.66h.06c0-.14,0-.66-.07-1.54s-.06-1.58-.06-2.08v-7h2Z" transform="translate(-1.81 -53.75)"/><path class="a" d="M36.82,210.27a5.51,5.51,0,0,1-1.28,3.89,4.57,4.57,0,0,1-3.55,1.4,4.87,4.87,0,0,1-2.52-.65,4.25,4.25,0,0,1-1.69-1.84,6.37,6.37,0,0,1-.58-2.8,5.52,5.52,0,0,1,1.26-3.86A4.6,4.6,0,0,1,32,205a4.49,4.49,0,0,1,3.5,1.42A5.54,5.54,0,0,1,36.82,210.27Zm-7.4,0q0,3.53,2.6,3.52t2.58-3.52q0-3.48-2.6-3.48a2.22,2.22,0,0,0-2,.9A4.56,4.56,0,0,0,29.42,210.27Z" transform="translate(-1.81 -53.75)"/><path class="a" d="M42.73,215.56a3.53,3.53,0,0,1-3-1.38,6.14,6.14,0,0,1-1.07-3.87,6.24,6.24,0,0,1,1.08-3.9,3.6,3.6,0,0,1,3-1.39,3.48,3.48,0,0,1,3,1.48h.11a13.41,13.41,0,0,1-.15-1.73v-3.7H48v14.3H46.26L45.88,214h-.1A3.46,3.46,0,0,1,42.73,215.56Zm.58-1.75a2.34,2.34,0,0,0,1.94-.75,3.89,3.89,0,0,0,.63-2.43v-.3a4.53,4.53,0,0,0-.63-2.73,2.3,2.3,0,0,0-2-.81,2,2,0,0,0-1.76.92,4.73,4.73,0,0,0-.62,2.63,4.6,4.6,0,0,0,.6,2.58A2,2,0,0,0,43.31,213.81Z" transform="translate(-1.81 -53.75)"/><path class="a" d="M55.48,215.56a4.89,4.89,0,0,1-3.71-1.39,5.25,5.25,0,0,1-1.34-3.81,5.73,5.73,0,0,1,1.24-3.91A4.3,4.3,0,0,1,55.08,205a4.18,4.18,0,0,1,3.18,1.22,4.68,4.68,0,0,1,1.17,3.37v1.17H52.66a3.3,3.3,0,0,0,.8,2.27,2.78,2.78,0,0,0,2.12.8,8.1,8.1,0,0,0,1.68-.17,8.94,8.94,0,0,0,1.67-.57v1.76a6.53,6.53,0,0,1-1.6.53A9.37,9.37,0,0,1,55.48,215.56Zm-.4-8.9a2.21,2.21,0,0,0-1.65.65,3.15,3.15,0,0,0-.74,1.9h4.62a2.79,2.79,0,0,0-.61-1.9A2,2,0,0,0,55.08,206.66Z" transform="translate(-1.81 -53.75)"/><rect class="c" x="10.79" y="168.68" width="56.49" height="37.66"/><path class="d" d="M34.11,238.43a3.9,3.9,0,0,1-1.38,3.22,6.07,6.07,0,0,1-3.93,1.13H27.4v5H25.21V234.36h3.87a5.87,5.87,0,0,1,3.77,1A3.7,3.7,0,0,1,34.11,238.43Zm-6.71,2.5h1.17a4.17,4.17,0,0,0,2.48-.59,2.14,2.14,0,0,0,.79-1.84,2.09,2.09,0,0,0-.7-1.73,3.5,3.5,0,0,0-2.21-.57H27.4Z" transform="translate(-1.81 -53.75)"/><path class="d" d="M45.58,242.7a5.51,5.51,0,0,1-1.28,3.89,4.57,4.57,0,0,1-3.55,1.4,4.94,4.94,0,0,1-2.52-.64,4.34,4.34,0,0,1-1.69-1.85,6.37,6.37,0,0,1-.58-2.8,5.54,5.54,0,0,1,1.26-3.86,4.6,4.6,0,0,1,3.58-1.39,4.48,4.48,0,0,1,3.49,1.42A5.5,5.5,0,0,1,45.58,242.7Zm-7.4,0q0,3.53,2.6,3.52t2.58-3.52q0-3.48-2.6-3.48a2.22,2.22,0,0,0-2,.9A4.56,4.56,0,0,0,38.18,242.7Z" transform="translate(-1.81 -53.75)"/><path class="d" d="M51.49,248a3.54,3.54,0,0,1-3-1.38,7.59,7.59,0,0,1,0-7.77,3.58,3.58,0,0,1,3-1.39,3.51,3.51,0,0,1,3,1.48h.11a13.41,13.41,0,0,1-.15-1.73v-3.7h2.17v14.3H55l-.37-1.33h-.1A3.48,3.48,0,0,1,51.49,248Zm.58-1.75a2.34,2.34,0,0,0,1.94-.75,3.89,3.89,0,0,0,.63-2.43v-.3A4.53,4.53,0,0,0,54,240a2.31,2.31,0,0,0-2-.81,2,2,0,0,0-1.75.92,4.77,4.77,0,0,0-.62,2.64,4.58,4.58,0,0,0,.6,2.57A2,2,0,0,0,52.07,246.24Z" transform="translate(-1.81 -53.75)"/><rect class="b" x="302.65" y="138.62" width="207.13" height="77.67"/><path class="a" d="M325.76,215.37h-2.69l-6.61-10.71h-.08l.05.6c.09,1.14.13,2.18.13,3.13v7h-2V201.93h2.67l6.59,10.66h.06c0-.14,0-.66-.08-1.54s-.05-1.58-.05-2.08v-7h2Z" transform="translate(-1.81 -53.75)"/><path class="a" d="M338.1,210.27a5.51,5.51,0,0,1-1.28,3.89,4.57,4.57,0,0,1-3.55,1.4,4.87,4.87,0,0,1-2.52-.65,4.25,4.25,0,0,1-1.69-1.84,6.37,6.37,0,0,1-.58-2.8,5.48,5.48,0,0,1,1.27-3.86,4.56,4.56,0,0,1,3.57-1.39,4.49,4.49,0,0,1,3.5,1.42A5.54,5.54,0,0,1,338.1,210.27Zm-7.4,0q0,3.53,2.6,3.52t2.58-3.52q0-3.48-2.6-3.48a2.22,2.22,0,0,0-2,.9A4.56,4.56,0,0,0,330.7,210.27Z" transform="translate(-1.81 -53.75)"/><path class="a" d="M344,215.56a3.56,3.56,0,0,1-3-1.38,7.59,7.59,0,0,1,0-7.77,3.6,3.6,0,0,1,3-1.39,3.49,3.49,0,0,1,3.05,1.48h.11a13.41,13.41,0,0,1-.15-1.73v-3.7h2.17v14.3h-1.69l-.38-1.33h-.1A3.46,3.46,0,0,1,344,215.56Zm.58-1.75a2.34,2.34,0,0,0,1.94-.75,3.89,3.89,0,0,0,.63-2.43v-.3a4.53,4.53,0,0,0-.63-2.73,2.3,2.3,0,0,0-1.95-.81,2,2,0,0,0-1.76.92,4.73,4.73,0,0,0-.62,2.63,4.6,4.6,0,0,0,.6,2.58A2,2,0,0,0,344.59,213.81Z" transform="translate(-1.81 -53.75)"/><path class="a" d="M356.76,215.56a4.89,4.89,0,0,1-3.71-1.39,5.25,5.25,0,0,1-1.34-3.81,5.73,5.73,0,0,1,1.24-3.91,4.3,4.3,0,0,1,3.41-1.43,4.21,4.21,0,0,1,3.18,1.22,4.68,4.68,0,0,1,1.17,3.37v1.17h-6.78a3.35,3.35,0,0,0,.8,2.27,2.8,2.8,0,0,0,2.13.8,8.1,8.1,0,0,0,1.68-.17,9.19,9.19,0,0,0,1.67-.57v1.76a6.67,6.67,0,0,1-1.6.53A9.37,9.37,0,0,1,356.76,215.56Zm-.4-8.9a2.18,2.18,0,0,0-1.65.65,3.15,3.15,0,0,0-.74,1.9h4.62a2.84,2.84,0,0,0-.61-1.9A2,2,0,0,0,356.36,206.66Z" transform="translate(-1.81 -53.75)"/><rect class="c" x="312.07" y="168.68" width="56.49" height="37.66"/><path class="d" d="M335.39,238.43a3.9,3.9,0,0,1-1.38,3.22,6.07,6.07,0,0,1-3.93,1.13h-1.4v5h-2.19V234.36h3.87a5.87,5.87,0,0,1,3.77,1A3.7,3.7,0,0,1,335.39,238.43Zm-6.71,2.5h1.17a4.17,4.17,0,0,0,2.48-.59,2.14,2.14,0,0,0,.8-1.84,2.1,2.1,0,0,0-.71-1.73,3.5,3.5,0,0,0-2.21-.57h-1.53Z" transform="translate(-1.81 -53.75)"/><path class="d" d="M346.86,242.7a5.51,5.51,0,0,1-1.28,3.89A4.57,4.57,0,0,1,342,248a5,5,0,0,1-2.52-.64,4.34,4.34,0,0,1-1.69-1.85,6.37,6.37,0,0,1-.58-2.8,5.54,5.54,0,0,1,1.26-3.86,4.6,4.6,0,0,1,3.58-1.39,4.52,4.52,0,0,1,3.5,1.42A5.54,5.54,0,0,1,346.86,242.7Zm-7.4,0q0,3.53,2.6,3.52t2.58-3.52q0-3.48-2.6-3.48a2.22,2.22,0,0,0-2,.9A4.56,4.56,0,0,0,339.46,242.7Z" transform="translate(-1.81 -53.75)"/><path class="d" d="M352.77,248a3.55,3.55,0,0,1-3-1.38,7.59,7.59,0,0,1,0-7.77,3.6,3.6,0,0,1,3-1.39,3.51,3.51,0,0,1,3.05,1.48H356a13.41,13.41,0,0,1-.15-1.73v-3.7H358v14.3h-1.7l-.37-1.33h-.1A3.48,3.48,0,0,1,352.77,248Zm.58-1.75a2.34,2.34,0,0,0,1.94-.75,3.89,3.89,0,0,0,.63-2.43v-.3a4.53,4.53,0,0,0-.63-2.73,2.31,2.31,0,0,0-2-.81,2,2,0,0,0-1.75.92,4.77,4.77,0,0,0-.62,2.64,4.58,4.58,0,0,0,.6,2.57A2,2,0,0,0,353.35,246.24Z" transform="translate(-1.81 -53.75)"/><rect class="b" x="302.65" y="326.92" width="207.13" height="77.67"/><rect class="c" x="312.07" y="356.98" width="112.98" height="37.66"/><path class="d" d="M363.63,426.73a3.9,3.9,0,0,1-1.38,3.22,6,6,0,0,1-3.92,1.13h-1.4v5h-2.2V422.66h3.87a5.92,5.92,0,0,1,3.78,1A3.73,3.73,0,0,1,363.63,426.73Zm-6.7,2.5h1.17a4.19,4.19,0,0,0,2.48-.59,2.14,2.14,0,0,0,.79-1.84,2.1,2.1,0,0,0-.71-1.73,3.47,3.47,0,0,0-2.2-.57h-1.53Z" transform="translate(-1.81 -53.75)"/><path class="d" d="M375.11,431a5.56,5.56,0,0,1-1.28,3.89,4.59,4.59,0,0,1-3.56,1.4,4.87,4.87,0,0,1-2.52-.65,4.17,4.17,0,0,1-1.68-1.84,6.37,6.37,0,0,1-.59-2.8,5.5,5.5,0,0,1,1.27-3.86,4.6,4.6,0,0,1,3.58-1.39,4.5,4.5,0,0,1,3.49,1.42A5.5,5.5,0,0,1,375.11,431Zm-7.4,0c0,2.35.86,3.52,2.6,3.52s2.57-1.17,2.57-3.52-.86-3.48-2.59-3.48a2.2,2.2,0,0,0-2,.9A4.56,4.56,0,0,0,367.71,431Z" transform="translate(-1.81 -53.75)"/><path class="d" d="M381,436.29a3.54,3.54,0,0,1-3-1.38,7.56,7.56,0,0,1,0-7.77,3.6,3.6,0,0,1,3-1.39,3.53,3.53,0,0,1,3.05,1.48h.11a12.08,12.08,0,0,1-.16-1.73v-3.7h2.17v14.3h-1.69l-.38-1.33h-.1A3.45,3.45,0,0,1,381,436.29Zm.58-1.75a2.36,2.36,0,0,0,1.94-.75,4,4,0,0,0,.62-2.43v-.3a4.54,4.54,0,0,0-.62-2.73,2.32,2.32,0,0,0-2-.81,2,2,0,0,0-1.76.92,4.77,4.77,0,0,0-.61,2.64,4.58,4.58,0,0,0,.6,2.57A2,2,0,0,0,381.6,434.54Z" transform="translate(-1.81 -53.75)"/><path class="a" d="M325.76,403.67h-2.69L316.46,393h-.08l.05.6c.09,1.14.13,2.18.13,3.13v7h-2V390.23h2.67l6.59,10.66h.06c0-.14,0-.66-.08-1.54s-.05-1.58-.05-2.08v-7h2Z" transform="translate(-1.81 -53.75)"/><path class="a" d="M338.1,398.57a5.51,5.51,0,0,1-1.28,3.89,4.57,4.57,0,0,1-3.55,1.4,4.87,4.87,0,0,1-2.52-.65,4.25,4.25,0,0,1-1.69-1.84,6.37,6.37,0,0,1-.58-2.8,5.48,5.48,0,0,1,1.27-3.86,4.56,4.56,0,0,1,3.57-1.39,4.49,4.49,0,0,1,3.5,1.42A5.52,5.52,0,0,1,338.1,398.57Zm-7.4,0q0,3.53,2.6,3.52t2.58-3.52q0-3.48-2.6-3.48a2.22,2.22,0,0,0-2,.9A4.56,4.56,0,0,0,330.7,398.57Z" transform="translate(-1.81 -53.75)"/><path class="a" d="M344,403.86a3.56,3.56,0,0,1-3-1.38,7.59,7.59,0,0,1,0-7.77,3.6,3.6,0,0,1,3-1.39,3.49,3.49,0,0,1,3.05,1.48h.11a13.41,13.41,0,0,1-.15-1.73v-3.7h2.17v14.3h-1.69l-.38-1.33h-.1A3.46,3.46,0,0,1,344,403.86Zm.58-1.75a2.34,2.34,0,0,0,1.94-.75,3.89,3.89,0,0,0,.63-2.43v-.3a4.49,4.49,0,0,0-.63-2.73,2.3,2.3,0,0,0-1.95-.81,2,2,0,0,0-1.76.92,4.73,4.73,0,0,0-.62,2.63,4.6,4.6,0,0,0,.6,2.58A2,2,0,0,0,344.59,402.11Z" transform="translate(-1.81 -53.75)"/><path class="a" d="M356.76,403.86a4.89,4.89,0,0,1-3.71-1.39,5.25,5.25,0,0,1-1.34-3.81,5.73,5.73,0,0,1,1.24-3.91,4.3,4.3,0,0,1,3.41-1.43,4.21,4.21,0,0,1,3.18,1.22,4.68,4.68,0,0,1,1.17,3.37v1.17h-6.78a3.35,3.35,0,0,0,.8,2.27,2.8,2.8,0,0,0,2.13.8,8.1,8.1,0,0,0,1.68-.17,9.19,9.19,0,0,0,1.67-.57v1.76a6.67,6.67,0,0,1-1.6.53A9.37,9.37,0,0,1,356.76,403.86Zm-.4-8.9a2.14,2.14,0,0,0-1.65.65,3.15,3.15,0,0,0-.74,1.9h4.62a2.84,2.84,0,0,0-.61-1.9A2,2,0,0,0,356.36,395Z" transform="translate(-1.81 -53.75)"/><polygon class="a" points="105.03 309.98 112.09 300.57 105.62 300.57 105.62 233.22 104.44 233.22 104.44 300.57 97.97 300.57 105.03 309.98"/><polygon class="a" points="406.22 309.98 413.28 300.57 406.81 300.57 406.81 233.22 405.63 233.22 405.63 300.57 399.16 300.57 406.22 309.98"/><path class="e" d="M35.67,325a2.53,2.53,0,0,1-1,2.11,4.23,4.23,0,0,1-2.68.76,6.3,6.3,0,0,1-2.8-.53v-1.55a8.38,8.38,0,0,0,1.46.51,6.45,6.45,0,0,0,1.45.18,2.28,2.28,0,0,0,1.44-.37,1.22,1.22,0,0,0,.47-1,1.27,1.27,0,0,0-.43-1,6.7,6.7,0,0,0-1.77-.93,4.72,4.72,0,0,1-1.94-1.27,2.71,2.71,0,0,1-.57-1.73,2.4,2.4,0,0,1,.9-2,3.69,3.69,0,0,1,2.41-.73,7,7,0,0,1,2.88.64L35,319.46a6.2,6.2,0,0,0-2.4-.57,1.86,1.86,0,0,0-1.21.35,1.16,1.16,0,0,0-.41.92,1.28,1.28,0,0,0,.16.67,1.56,1.56,0,0,0,.55.53A8.65,8.65,0,0,0,33,322a7.34,7.34,0,0,1,1.63.86,2.54,2.54,0,0,1,.76.9A2.75,2.75,0,0,1,35.67,325Z" transform="translate(-1.81 -53.75)"/><path class="e" d="M40.52,327.84a3.32,3.32,0,0,1-2.63-1,5.09,5.09,0,0,1,0-5.85,3.48,3.48,0,0,1,2.72-1,5.11,5.11,0,0,1,2.17.45l-.49,1.3a5.09,5.09,0,0,0-1.7-.4c-1.32,0-2,.88-2,2.63a3.13,3.13,0,0,0,.5,1.93,1.69,1.69,0,0,0,1.44.64,4.23,4.23,0,0,0,2-.53v1.41a3.1,3.1,0,0,1-.93.36A5.22,5.22,0,0,1,40.52,327.84Z" transform="translate(-1.81 -53.75)"/><path class="e" d="M49.21,327.71l-.32-1.06h-.06a2.94,2.94,0,0,1-1.11.94,3.46,3.46,0,0,1-1.43.25,2.47,2.47,0,0,1-1.76-.6,2.29,2.29,0,0,1-.63-1.72,2,2,0,0,1,.88-1.78,5,5,0,0,1,2.67-.65l1.32,0v-.41a1.52,1.52,0,0,0-.35-1.09,1.34,1.34,0,0,0-1.05-.37,3.52,3.52,0,0,0-1.13.18,8.46,8.46,0,0,0-1,.4l-.53-1.16a5.93,5.93,0,0,1,1.36-.49,6.42,6.42,0,0,1,1.39-.17,3.26,3.26,0,0,1,2.2.64,2.48,2.48,0,0,1,.74,2v5.14ZM46.8,326.6a2,2,0,0,0,1.42-.49,1.81,1.81,0,0,0,.53-1.38v-.66l-1,0a3.22,3.22,0,0,0-1.66.38,1.17,1.17,0,0,0-.52,1.05,1,1,0,0,0,.3.78A1.29,1.29,0,0,0,46.8,326.6Z" transform="translate(-1.81 -53.75)"/><path class="e" d="M54.25,327.71H52.63V317h1.62Z" transform="translate(-1.81 -53.75)"/><path class="e" d="M59.9,327.84a3.7,3.7,0,0,1-2.78-1,3.94,3.94,0,0,1-1-2.86,4.32,4.32,0,0,1,.93-2.94,3.22,3.22,0,0,1,2.56-1.07,3.14,3.14,0,0,1,2.38.92,3.47,3.47,0,0,1,.88,2.52v.88H57.79a2.49,2.49,0,0,0,.6,1.71,2.09,2.09,0,0,0,1.59.59,5.6,5.6,0,0,0,1.26-.13,6.33,6.33,0,0,0,1.25-.42v1.32a5.13,5.13,0,0,1-1.2.4A7.32,7.32,0,0,1,59.9,327.84Zm-.29-6.67a1.61,1.61,0,0,0-1.24.49,2.34,2.34,0,0,0-.56,1.43h3.46a2.08,2.08,0,0,0-.45-1.43A1.55,1.55,0,0,0,59.61,321.17Z" transform="translate(-1.81 -53.75)"/><path class="e" d="M75.14,323.88a4.16,4.16,0,0,1-1,2.92,3.43,3.43,0,0,1-2.67,1,3.69,3.69,0,0,1-1.89-.48A3.25,3.25,0,0,1,68.36,326a4.84,4.84,0,0,1-.44-2.1,4.17,4.17,0,0,1,1-2.9,3.48,3.48,0,0,1,2.69-1A3.38,3.38,0,0,1,74.18,321,4.13,4.13,0,0,1,75.14,323.88Zm-5.55,0q0,2.64,2,2.64c1.29,0,1.93-.88,1.93-2.64s-.65-2.61-1.94-2.61a1.65,1.65,0,0,0-1.48.67A3.41,3.41,0,0,0,69.59,323.88Z" transform="translate(-1.81 -53.75)"/><path class="e" d="M82.38,327.71l-.23-1h-.08a2.24,2.24,0,0,1-1,.83,3.25,3.25,0,0,1-1.42.3,2.78,2.78,0,0,1-2.07-.68,2.85,2.85,0,0,1-.69-2.09v-5h1.64v4.7a2.06,2.06,0,0,0,.36,1.32,1.37,1.37,0,0,0,1.12.44,1.79,1.79,0,0,0,1.5-.62,3.32,3.32,0,0,0,.48-2v-3.8h1.63v7.63Z" transform="translate(-1.81 -53.75)"/><path class="e" d="M88.81,326.54a4.16,4.16,0,0,0,1.19-.19v1.22a3.76,3.76,0,0,1-.7.2,5,5,0,0,1-.88.07c-1.53,0-2.3-.8-2.3-2.42v-4.11h-1v-.72L86.2,320l.55-1.62h1v1.7h2.17v1.23H87.75v4.08a1.14,1.14,0,0,0,.29.87A1.1,1.1,0,0,0,88.81,326.54Z" transform="translate(-1.81 -53.75)"/><path class="e" d="M342.24,325a2.53,2.53,0,0,1-1,2.11,4.26,4.26,0,0,1-2.69.77,6.47,6.47,0,0,1-2.8-.53v-1.56a8.49,8.49,0,0,0,1.47.51,6.44,6.44,0,0,0,1.44.18,2.29,2.29,0,0,0,1.45-.37,1.21,1.21,0,0,0,.46-1,1.26,1.26,0,0,0-.42-1,6.7,6.7,0,0,0-1.77-.93,4.65,4.65,0,0,1-1.94-1.27,2.71,2.71,0,0,1-.57-1.73,2.4,2.4,0,0,1,.9-2,3.69,3.69,0,0,1,2.41-.73,7,7,0,0,1,2.88.64l-.53,1.34a6.17,6.17,0,0,0-2.4-.56,1.86,1.86,0,0,0-1.21.34,1.14,1.14,0,0,0-.41.92,1.32,1.32,0,0,0,.16.68,1.63,1.63,0,0,0,.55.52,8.21,8.21,0,0,0,1.36.66,7.58,7.58,0,0,1,1.63.86,2.65,2.65,0,0,1,.76.9A2.78,2.78,0,0,1,342.24,325Z" transform="translate(-1.81 -53.75)"/><path class="e" d="M347.09,327.85a3.35,3.35,0,0,1-2.63-1,5.13,5.13,0,0,1,0-5.86,3.5,3.5,0,0,1,2.72-1,5.12,5.12,0,0,1,2.18.45l-.49,1.31a4.9,4.9,0,0,0-1.7-.41c-1.32,0-2,.88-2,2.63a3.21,3.21,0,0,0,.49,1.93,1.72,1.72,0,0,0,1.45.64,4.15,4.15,0,0,0,2.05-.53v1.41a3.41,3.41,0,0,1-.93.37A5.84,5.84,0,0,1,347.09,327.85Z" transform="translate(-1.81 -53.75)"/><path class="e" d="M355.78,327.71l-.32-1.06h-.06a2.94,2.94,0,0,1-1.11.94,3.45,3.45,0,0,1-1.43.26,2.46,2.46,0,0,1-1.76-.61,2.29,2.29,0,0,1-.63-1.72,2,2,0,0,1,.88-1.78,5,5,0,0,1,2.67-.65l1.31,0v-.41a1.52,1.52,0,0,0-.34-1.09,1.4,1.4,0,0,0-1.06-.37,3.5,3.5,0,0,0-1.12.18,8.46,8.46,0,0,0-1,.4l-.53-1.15a5.52,5.52,0,0,1,1.36-.5,6.42,6.42,0,0,1,1.39-.17,3.32,3.32,0,0,1,2.2.64,2.49,2.49,0,0,1,.74,2v5.14Zm-2.41-1.11a2,2,0,0,0,1.42-.49,1.81,1.81,0,0,0,.53-1.38v-.66l-1,0a3.32,3.32,0,0,0-1.66.38,1.17,1.17,0,0,0-.53,1.05,1,1,0,0,0,.31.79A1.32,1.32,0,0,0,353.37,326.6Z" transform="translate(-1.81 -53.75)"/><path class="e" d="M360.82,327.71H359.2V317h1.62Z" transform="translate(-1.81 -53.75)"/><path class="e" d="M366.47,327.85a3.69,3.69,0,0,1-2.78-1,4,4,0,0,1-1-2.86,4.32,4.32,0,0,1,.94-2.94,3.21,3.21,0,0,1,2.55-1.07,3.15,3.15,0,0,1,2.39.92,3.51,3.51,0,0,1,.88,2.52v.88h-5.09A2.59,2.59,0,0,0,365,326a2.13,2.13,0,0,0,1.6.59,6.1,6.1,0,0,0,1.25-.12,7,7,0,0,0,1.26-.43v1.32a5.13,5.13,0,0,1-1.2.4A7.27,7.27,0,0,1,366.47,327.85Zm-.3-6.68a1.6,1.6,0,0,0-1.23.49,2.34,2.34,0,0,0-.56,1.43h3.46a2.13,2.13,0,0,0-.45-1.43A1.55,1.55,0,0,0,366.17,321.17Z" transform="translate(-1.81 -53.75)"/><path class="e" d="M380.32,327.71l-.22-1H380a2.24,2.24,0,0,1-1,.83,3.09,3.09,0,0,1-1.42.31,2.78,2.78,0,0,1-2.07-.69,2.84,2.84,0,0,1-.68-2.09v-5h1.63v4.7a2,2,0,0,0,.36,1.32,1.37,1.37,0,0,0,1.12.44,1.81,1.81,0,0,0,1.5-.61,3.38,3.38,0,0,0,.48-2.05v-3.8h1.63v7.63Z" transform="translate(-1.81 -53.75)"/><path class="e" d="M387.78,327.85a2.66,2.66,0,0,1-2.25-1.05h-.1c.07.65.1,1,.1,1.18v3.12h-1.62v-11h1.31c0,.14.11.48.23,1h.08a2.55,2.55,0,0,1,2.28-1.16,2.64,2.64,0,0,1,2.22,1,5.66,5.66,0,0,1,0,5.82A2.68,2.68,0,0,1,387.78,327.85Zm-.4-6.58a1.71,1.71,0,0,0-1.41.56,3,3,0,0,0-.44,1.81v.24a3.62,3.62,0,0,0,.44,2,1.67,1.67,0,0,0,1.44.62,1.47,1.47,0,0,0,1.3-.69,3.58,3.58,0,0,0,.45-2,3.43,3.43,0,0,0-.45-1.94A1.5,1.5,0,0,0,387.38,321.27Z" transform="translate(-1.81 -53.75)"/><path class="f" d="M106.56,55.2a3.38,3.38,0,0,0-1.36.35L86.59,64.44a3.51,3.51,0,0,0-1.92,2.39l-4.59,20a3.48,3.48,0,0,0,.48,2.7,2.83,2.83,0,0,0,.2.28l12.88,16a3.58,3.58,0,0,0,2.78,1.33h20.65a3.52,3.52,0,0,0,2.78-1.32l12.88-16a3.53,3.53,0,0,0,.68-3l-4.59-20a3.54,3.54,0,0,0-1.93-2.39l-18.6-8.88A3.56,3.56,0,0,0,106.56,55.2Z" transform="translate(-1.81 -53.75)"/><path class="d" d="M106.55,53.76a3.78,3.78,0,0,0-1.44.36L85.47,63.5a3.75,3.75,0,0,0-2,2.53L78.6,87.11A3.66,3.66,0,0,0,79.11,90a1.94,1.94,0,0,0,.21.29l13.59,16.9a3.78,3.78,0,0,0,2.94,1.4h21.8a3.74,3.74,0,0,0,2.93-1.4l13.59-16.9a3.73,3.73,0,0,0,.73-3.15L130.05,66a3.75,3.75,0,0,0-2-2.53l-19.64-9.38A3.67,3.67,0,0,0,106.55,53.76Zm0,1.44a3.56,3.56,0,0,1,1.73.35l18.6,8.88a3.54,3.54,0,0,1,1.93,2.39l4.59,20a3.53,3.53,0,0,1-.68,3l-12.88,16a3.56,3.56,0,0,1-2.78,1.33H96.42a3.58,3.58,0,0,1-2.78-1.33l-12.88-16a2.83,2.83,0,0,1-.2-.28,3.48,3.48,0,0,1-.48-2.7l4.59-20a3.51,3.51,0,0,1,1.92-2.39l18.61-8.89a3.55,3.55,0,0,1,1.36-.35Z" transform="translate(-1.81 -53.75)"/><path class="g" d="M84.75,79l6.48-6.27v3.13h2.38V66.48h26.27v9.39h2.39V72.74L128.75,79l-6.48,6.26V82.14h-2.39v9.39H93.61V82.14H91.23v3.13Z" transform="translate(-1.81 -53.75)"/><path class="h" d="M96.68,72.19l10.07-2.82,10.06,2.82L106.75,75Z" transform="translate(-1.81 -53.75)"/><path class="h" d="M96.68,73.27V83.62l9.38,5,0-12.67Z" transform="translate(-1.81 -53.75)"/><path class="h" d="M116.81,73.27V83.62l-9.38,5,0-12.67Z" transform="translate(-1.81 -53.75)"/><path class="f" d="M407.84,56.65a3.54,3.54,0,0,0-1.36.34l-18.61,8.89a3.55,3.55,0,0,0-1.92,2.4l-4.59,20a3.5,3.5,0,0,0,.48,2.71l.2.28,12.88,16a3.58,3.58,0,0,0,2.78,1.33h20.65a3.58,3.58,0,0,0,2.78-1.32l12.88-16a3.51,3.51,0,0,0,.68-3l-4.59-20a3.5,3.5,0,0,0-1.93-2.39L409.57,57A3.67,3.67,0,0,0,407.84,56.65Z" transform="translate(-1.81 -53.75)"/><path class="d" d="M407.83,55.2a3.79,3.79,0,0,0-1.44.37L386.75,65a3.71,3.71,0,0,0-2,2.53l-4.84,21.08a3.63,3.63,0,0,0,.51,2.85,2.73,2.73,0,0,0,.21.3l13.59,16.9a3.78,3.78,0,0,0,2.94,1.4h21.8a3.77,3.77,0,0,0,2.93-1.4L435.45,91.7a3.72,3.72,0,0,0,.73-3.15l-4.85-21.08a3.75,3.75,0,0,0-2-2.52l-19.64-9.38A3.79,3.79,0,0,0,407.83,55.2Zm0,1.45a3.67,3.67,0,0,1,1.73.34l18.6,8.89a3.53,3.53,0,0,1,1.93,2.39l4.59,20a3.5,3.5,0,0,1-.68,3l-12.88,16a3.55,3.55,0,0,1-2.78,1.32H397.7a3.58,3.58,0,0,1-2.78-1.33L382,91.23a2.83,2.83,0,0,1-.2-.28,3.5,3.5,0,0,1-.48-2.71l4.59-20a3.55,3.55,0,0,1,1.92-2.4L406.48,57a3.54,3.54,0,0,1,1.36-.34Z" transform="translate(-1.81 -53.75)"/><path class="g" d="M408,60.81l6.26,6.48h-3.13v2.38h9.39V95.94h-9.39v2.39h3.13L408,104.81l-6.27-6.48h3.13V95.94H395.5V69.67h9.39V67.29h-3.13Z" transform="translate(-1.81 -53.75)"/><path class="h" d="M398,76,408,73.17,418.09,76,408,78.81Z" transform="translate(-1.81 -53.75)"/><path class="h" d="M398,77.07V87.43l9.38,5,.05-12.67Z" transform="translate(-1.81 -53.75)"/><path class="h" d="M418.09,77.07V87.43l-9.38,5,0-12.67Z" transform="translate(-1.81 -53.75)"/></svg>