<svg xmlns="http://www.w3.org/2000/svg" viewBox="0 0 512 223.31"><defs><style>.a,.d{fill:#326ce5;}.b,.c{fill:#fff;}.c,.d{fill-rule:evenodd;}.e{fill:#2f383f;}.f{fill:#4e5c68;}.g{fill:#232f3e;}.h{fill:#161a1d;}</style></defs><path class="a" d="M254.82,270.24a3.85,3.85,0,0,0-1.38.35l-18.88,9a3.59,3.59,0,0,0-1.95,2.43L228,302.3a3.55,3.55,0,0,0,.49,2.75,2.83,2.83,0,0,0,.2.28l13.07,16.25a3.64,3.64,0,0,0,2.82,1.35h21a3.57,3.57,0,0,0,2.82-1.34l13.07-16.25a3.56,3.56,0,0,0,.69-3L277.41,282a3.59,3.59,0,0,0-2-2.43l-18.88-9A3.62,3.62,0,0,0,254.82,270.24Z" transform="translate(0.99 -141.88)"/><path class="b" d="M254.81,268.77a4,4,0,0,0-1.46.38l-19.93,9.52a3.8,3.8,0,0,0-2.06,2.56l-4.92,21.39a3.76,3.76,0,0,0,.52,2.9l.22.3L241,323a3.84,3.84,0,0,0,3,1.43h22.12a3.81,3.81,0,0,0,3-1.42l13.79-17.15a3.74,3.74,0,0,0,.74-3.2l-4.92-21.39a3.8,3.8,0,0,0-2.07-2.57l-19.93-9.52A3.91,3.91,0,0,0,254.81,268.77Zm0,1.47a3.62,3.62,0,0,1,1.75.35l18.88,9a3.61,3.61,0,0,1,2,2.43l4.66,20.26a3.53,3.53,0,0,1-.7,3l-13.06,16.25a3.61,3.61,0,0,1-2.82,1.35h-21a3.64,3.64,0,0,1-2.82-1.35l-13.07-16.24c-.07-.1-.14-.19-.2-.29a3.54,3.54,0,0,1-.49-2.74L232.61,282a3.59,3.59,0,0,1,1.95-2.43l18.88-9a3.85,3.85,0,0,1,1.38-.35Z" transform="translate(0.99 -141.88)"/><path class="c" d="M255,274.46l6.36,6.58h-3.18v2.42h9.53v26.66h-9.53v2.42h3.18L255,319.11l-6.36-6.57h3.18v-2.42H242.3V283.46h9.53V281h-3.18Z" transform="translate(0.99 -141.88)"/><path class="d" d="M244.8,289.87,255,287l10.22,2.86L255,292.73Z" transform="translate(0.99 -141.88)"/><path class="d" d="M244.8,291v10.51l9.51,5.09.05-12.85Z" transform="translate(0.99 -141.88)"/><path class="d" d="M265.23,291v10.51l-9.52,5.09-.05-12.85Z" transform="translate(0.99 -141.88)"/><path class="e" d="M248,335h1.9L246,346.14h-1.93L240.17,335h1.88l2.33,6.94c.12.33.25.76.39,1.28s.22.91.26,1.17c.07-.39.17-.84.31-1.35s.25-.88.33-1.13Z" transform="translate(0.99 -141.88)"/><path class="e" d="M258.76,338.36a3.25,3.25,0,0,1-1.15,2.68,5,5,0,0,1-3.26.93h-1.16v4.17h-1.82V335h3.21a4.88,4.88,0,0,1,3.14.86A3.08,3.08,0,0,1,258.76,338.36Zm-5.57,2.07h1a3.49,3.49,0,0,0,2.06-.48,1.79,1.79,0,0,0,.66-1.53,1.73,1.73,0,0,0-.59-1.44,2.93,2.93,0,0,0-1.83-.47h-1.27Z" transform="translate(0.99 -141.88)"/><path class="e" d="M267.91,346.14,266.8,343h-4.27l-1.09,3.1h-1.93l4.18-11.2h2l4.17,11.2Zm-1.59-4.67-1.05-3c-.08-.2-.18-.52-.32-1l-.28-1a14.68,14.68,0,0,1-.6,2.05l-1,2.91Z" transform="translate(0.99 -141.88)"/><path class="e" d="M203,360.58V365h-1.82V353.88h3.15a5.18,5.18,0,0,1,3.2.8,2.93,2.93,0,0,1,1,2.45,3,3,0,0,1-2.17,3l3.15,4.94h-2.07l-2.67-4.46Zm0-1.51h1.27a2.87,2.87,0,0,0,1.85-.48,1.7,1.7,0,0,0,.57-1.4,1.52,1.52,0,0,0-.62-1.36,3.33,3.33,0,0,0-1.86-.41H203Z" transform="translate(0.99 -141.88)"/><path class="e" d="M214.67,365.19a4.07,4.07,0,0,1-3.08-1.15,4.36,4.36,0,0,1-1.11-3.16,4.79,4.79,0,0,1,1-3.26,3.55,3.55,0,0,1,2.83-1.18,3.45,3.45,0,0,1,2.64,1,3.84,3.84,0,0,1,1,2.79v1h-5.62a2.73,2.73,0,0,0,.66,1.89,2.31,2.31,0,0,0,1.76.66,6.85,6.85,0,0,0,1.4-.14,7.52,7.52,0,0,0,1.38-.47v1.46a5.61,5.61,0,0,1-1.33.44A7.8,7.8,0,0,1,214.67,365.19Zm-.33-7.39a1.8,1.8,0,0,0-1.37.54,2.57,2.57,0,0,0-.61,1.58h3.83a2.3,2.3,0,0,0-.51-1.58A1.7,1.7,0,0,0,214.34,357.8Z" transform="translate(0.99 -141.88)"/><path class="e" d="M223.39,365.19a3.7,3.7,0,0,1-2.91-1.12,5.7,5.7,0,0,1,.05-6.49,3.87,3.87,0,0,1,3-1.14,5.63,5.63,0,0,1,2.4.5l-.54,1.44a5.3,5.3,0,0,0-1.88-.44c-1.46,0-2.19,1-2.19,2.9a3.53,3.53,0,0,0,.55,2.14,1.88,1.88,0,0,0,1.6.71,4.69,4.69,0,0,0,2.27-.59v1.56a3.64,3.64,0,0,1-1,.41A6.36,6.36,0,0,1,223.39,365.19Z" transform="translate(0.99 -141.88)"/><path class="e" d="M235.22,360.8a4.61,4.61,0,0,1-1.06,3.23,3.82,3.82,0,0,1-3,1.16,4,4,0,0,1-2.09-.54,3.45,3.45,0,0,1-1.39-1.53,5.18,5.18,0,0,1-.49-2.32,4.6,4.6,0,0,1,1.05-3.21,3.81,3.81,0,0,1,3-1.15,3.7,3.7,0,0,1,2.9,1.18A4.58,4.58,0,0,1,235.22,360.8Zm-6.15,0c0,1.95.72,2.92,2.16,2.92s2.14-1,2.14-2.92-.72-2.89-2.15-2.89a1.86,1.86,0,0,0-1.64.74A3.82,3.82,0,0,0,229.07,360.8Z" transform="translate(0.99 -141.88)"/><path class="e" d="M244.4,365h-1.81v-5.21a2.4,2.4,0,0,0-.36-1.45,1.39,1.39,0,0,0-1.15-.47,1.74,1.74,0,0,0-1.52.67,4,4,0,0,0-.49,2.25V365h-1.79v-8.45h1.41l.25,1.11H239a2.31,2.31,0,0,1,1-.93,3.24,3.24,0,0,1,1.47-.33,2.56,2.56,0,0,1,2.58,1.33h.12a2.62,2.62,0,0,1,1.05-1,3.44,3.44,0,0,1,1.56-.35,2.82,2.82,0,0,1,2.2.76,3.4,3.4,0,0,1,.69,2.33V365h-1.79v-5.21a2.33,2.33,0,0,0-.37-1.45,1.39,1.39,0,0,0-1.15-.47,1.76,1.76,0,0,0-1.53.65,3.37,3.37,0,0,0-.48,2Z" transform="translate(0.99 -141.88)"/><path class="e" d="M259.34,365h-1.8v-5.21a2.4,2.4,0,0,0-.36-1.45,1.39,1.39,0,0,0-1.15-.47,1.74,1.74,0,0,0-1.52.67,3.91,3.91,0,0,0-.49,2.25V365h-1.79v-8.45h1.4l.25,1.11h.1a2.31,2.31,0,0,1,1-.93,3.24,3.24,0,0,1,1.47-.33,2.55,2.55,0,0,1,2.57,1.33h.13a2.62,2.62,0,0,1,1.05-1,3.38,3.38,0,0,1,1.56-.35,2.82,2.82,0,0,1,2.2.76,3.4,3.4,0,0,1,.69,2.33V365h-1.79v-5.21a2.4,2.4,0,0,0-.37-1.45,1.39,1.39,0,0,0-1.15-.47,1.76,1.76,0,0,0-1.53.65,3.29,3.29,0,0,0-.49,2Z" transform="translate(0.99 -141.88)"/><path class="e" d="M270.86,365.19a4.07,4.07,0,0,1-3.08-1.15,4.36,4.36,0,0,1-1.11-3.16,4.84,4.84,0,0,1,1-3.26,3.56,3.56,0,0,1,2.84-1.18,3.48,3.48,0,0,1,2.64,1,3.88,3.88,0,0,1,1,2.79v1h-5.63a2.78,2.78,0,0,0,.66,1.89,2.33,2.33,0,0,0,1.77.66,6.75,6.75,0,0,0,1.39-.14,7.86,7.86,0,0,0,1.39-.47v1.46a5.61,5.61,0,0,1-1.33.44A7.9,7.9,0,0,1,270.86,365.19Zm-.32-7.39a1.79,1.79,0,0,0-1.37.54,2.57,2.57,0,0,0-.62,1.58h3.83a2.35,2.35,0,0,0-.5-1.58A1.73,1.73,0,0,0,270.54,357.8Z" transform="translate(0.99 -141.88)"/><path class="e" d="M283.61,365h-1.8v-5.2a2.26,2.26,0,0,0-.39-1.45,1.52,1.52,0,0,0-1.25-.48,2,2,0,0,0-1.67.67,3.73,3.73,0,0,0-.52,2.25V365h-1.8v-8.45h1.41l.25,1.11h.09a2.55,2.55,0,0,1,1.09-.93,3.56,3.56,0,0,1,1.55-.33q3,0,3,3.09Z" transform="translate(0.99 -141.88)"/><path class="e" d="M289,365.19a2.93,2.93,0,0,1-2.47-1.15,6.24,6.24,0,0,1,0-6.44,3,3,0,0,1,2.49-1.16,2.91,2.91,0,0,1,2.53,1.23h.09a12.15,12.15,0,0,1-.13-1.44v-3.07h1.8V365h-1.4l-.31-1.11h-.09A2.86,2.86,0,0,1,289,365.19Zm.48-1.45a2,2,0,0,0,1.61-.62,3.33,3.33,0,0,0,.52-2v-.26a3.81,3.81,0,0,0-.52-2.26,1.93,1.93,0,0,0-1.63-.67,1.65,1.65,0,0,0-1.46.76,3.94,3.94,0,0,0-.51,2.19A3.82,3.82,0,0,0,288,363,1.67,1.67,0,0,0,289.44,363.74Z" transform="translate(0.99 -141.88)"/><path class="e" d="M299.54,365.19a4.06,4.06,0,0,1-3.08-1.15,4.33,4.33,0,0,1-1.12-3.16,4.8,4.8,0,0,1,1-3.26,3.54,3.54,0,0,1,2.83-1.18,3.48,3.48,0,0,1,2.64,1,3.84,3.84,0,0,1,1,2.79v1h-5.63a2.78,2.78,0,0,0,.67,1.89,2.29,2.29,0,0,0,1.76.66,6.75,6.75,0,0,0,1.39-.14,7.6,7.6,0,0,0,1.39-.47v1.46a5.61,5.61,0,0,1-1.33.44A7.87,7.87,0,0,1,299.54,365.19Zm-.33-7.39a1.8,1.8,0,0,0-1.37.54,2.57,2.57,0,0,0-.62,1.58h3.84a2.35,2.35,0,0,0-.51-1.58A1.7,1.7,0,0,0,299.21,357.8Z" transform="translate(0.99 -141.88)"/><path class="e" d="M309.14,356.44a4.3,4.3,0,0,1,.89.08l-.17,1.67a3.5,3.5,0,0,0-.8-.09,2.28,2.28,0,0,0-1.74.7,2.53,2.53,0,0,0-.67,1.82V365h-1.79v-8.45h1.4l.24,1.49h.09a3.35,3.35,0,0,1,1.1-1.2A2.63,2.63,0,0,1,309.14,356.44Z" transform="translate(0.99 -141.88)"/><rect class="f" x="386.92" y="155.1" width="125.08" height="41.69"/><path class="b" d="M404.76,310.18h2.52l-5.21,14.88h-2.56l-5.19-14.88h2.5l3.1,9.25a16.7,16.7,0,0,1,.52,1.71,14.32,14.32,0,0,1,.36,1.55c.09-.51.22-1.11.41-1.79s.33-1.18.45-1.51Z" transform="translate(0.99 -141.88)"/><path class="b" d="M419.1,314.68a4.33,4.33,0,0,1-1.52,3.57,6.73,6.73,0,0,1-4.35,1.25h-1.55v5.56h-2.43V310.18h4.28a6.48,6.48,0,0,1,4.18,1.14A4.08,4.08,0,0,1,419.1,314.68Zm-7.42,2.77H413a4.66,4.66,0,0,0,2.75-.65,2.36,2.36,0,0,0,.88-2,2.29,2.29,0,0,0-.79-1.91,3.85,3.85,0,0,0-2.44-.63h-1.69Z" transform="translate(0.99 -141.88)"/><path class="b" d="M431.31,325.06l-1.49-4.13h-5.69l-1.46,4.13h-2.56l5.57-14.94h2.64l5.57,14.94Zm-2.13-6.23-1.4-4.05c-.1-.27-.24-.7-.42-1.28s-.3-1-.37-1.28a22.91,22.91,0,0,1-.8,2.74l-1.35,3.87Z" transform="translate(0.99 -141.88)"/><path class="b" d="M449.85,321a3.77,3.77,0,0,1-1.43,3.12,6.28,6.28,0,0,1-4,1.13,9.37,9.37,0,0,1-4.14-.79v-2.3a11.59,11.59,0,0,0,2.17.76,9.27,9.27,0,0,0,2.13.27,3.37,3.37,0,0,0,2.13-.55,1.79,1.79,0,0,0,.69-1.47,1.86,1.86,0,0,0-.63-1.42,9.43,9.43,0,0,0-2.61-1.37,6.93,6.93,0,0,1-2.87-1.89,4,4,0,0,1-.83-2.54,3.56,3.56,0,0,1,1.32-2.93,5.45,5.45,0,0,1,3.55-1.07,10.35,10.35,0,0,1,4.26.94l-.78,2a9.22,9.22,0,0,0-3.54-.84,2.73,2.73,0,0,0-1.79.52,1.68,1.68,0,0,0-.61,1.36,1.94,1.94,0,0,0,.24,1,2.43,2.43,0,0,0,.81.78,13.66,13.66,0,0,0,2,1,10.52,10.52,0,0,1,2.41,1.27,3.87,3.87,0,0,1,1.12,1.33A4.14,4.14,0,0,1,449.85,321Z" transform="translate(0.99 -141.88)"/><path class="b" d="M456.67,323.33a5.91,5.91,0,0,0,1.75-.27v1.8a4.53,4.53,0,0,1-1,.29,6.91,6.91,0,0,1-1.3.12q-3.41,0-3.4-3.59v-6.06h-1.54v-1.06l1.65-.88.82-2.38h1.47v2.51h3.21v1.81H455.1v6a1.68,1.68,0,0,0,.44,1.28A1.53,1.53,0,0,0,456.67,323.33Z" transform="translate(0.99 -141.88)"/><path class="b" d="M467.71,325.06l-.47-1.56h-.08a4.76,4.76,0,0,1-1.64,1.4,5.34,5.34,0,0,1-2.12.37,3.56,3.56,0,0,1-2.59-.9,3.35,3.35,0,0,1-.93-2.53,3,3,0,0,1,1.29-2.63,7.49,7.49,0,0,1,3.94-1l1.94-.06v-.6a2.3,2.3,0,0,0-.5-1.61,2.05,2.05,0,0,0-1.56-.54,5.39,5.39,0,0,0-1.66.26,12.79,12.79,0,0,0-1.53.6l-.77-1.71a8.49,8.49,0,0,1,2-.73,9.64,9.64,0,0,1,2.06-.25,4.84,4.84,0,0,1,3.24.94,3.65,3.65,0,0,1,1.09,2.94v7.58Zm-3.56-1.63a3,3,0,0,0,2.09-.72,2.64,2.64,0,0,0,.79-2v-1l-1.44.06a4.88,4.88,0,0,0-2.46.57,1.71,1.71,0,0,0-.77,1.54,1.48,1.48,0,0,0,.45,1.16A1.89,1.89,0,0,0,464.15,323.43Z" transform="translate(0.99 -141.88)"/><path class="b" d="M477,323.33a6,6,0,0,0,1.75-.27v1.8a4.86,4.86,0,0,1-1,.29,7,7,0,0,1-1.3.12q-3.4,0-3.4-3.59v-6.06h-1.54v-1.06l1.65-.88.81-2.38h1.48v2.51h3.21v1.81h-3.21v6a1.68,1.68,0,0,0,.43,1.28A1.57,1.57,0,0,0,477,323.33Z" transform="translate(0.99 -141.88)"/><path class="b" d="M488.9,325.06l-.34-1.47h-.12a3.43,3.43,0,0,1-1.42,1.23,4.7,4.7,0,0,1-2.1.45,4.14,4.14,0,0,1-3.06-1,4.23,4.23,0,0,1-1-3.08v-7.36h2.41v6.94a3,3,0,0,0,.53,1.94,2,2,0,0,0,1.66.64,2.64,2.64,0,0,0,2.21-.9,5,5,0,0,0,.71-3v-5.6h2.4v11.25Z" transform="translate(0.99 -141.88)"/><path class="b" d="M501.75,321.86a3,3,0,0,1-1.2,2.53,5.8,5.8,0,0,1-3.44.88,8,8,0,0,1-3.61-.69v-2.06a8.84,8.84,0,0,0,3.69.91c1.48,0,2.21-.44,2.21-1.33a1.07,1.07,0,0,0-.24-.71,2.87,2.87,0,0,0-.81-.59,11.27,11.27,0,0,0-1.56-.69,7.41,7.41,0,0,1-2.63-1.51,2.81,2.81,0,0,1-.68-2,2.58,2.58,0,0,1,1.16-2.25,5.57,5.57,0,0,1,3.17-.8,8.92,8.92,0,0,1,3.76.81l-.77,1.8a8.43,8.43,0,0,0-3.07-.75c-1.26,0-1.89.35-1.89,1.07a1.07,1.07,0,0,0,.49.9,11.27,11.27,0,0,0,2.16,1,10.57,10.57,0,0,1,2,1,3.07,3.07,0,0,1,.94,1A3,3,0,0,1,501.75,321.86Z" transform="translate(0.99 -141.88)"/><rect class="f" y="155.1" width="125.08" height="41.69"/><path class="b" d="M26.11,310.18h2.52l-5.21,14.88H20.85l-5.19-14.88h2.51l3.1,9.25c.16.45.34,1,.52,1.71s.3,1.21.36,1.55c.08-.51.22-1.11.4-1.79s.34-1.18.45-1.51Z" transform="translate(0.99 -141.88)"/><path class="b" d="M40.45,314.68a4.31,4.31,0,0,1-1.53,3.57,6.72,6.72,0,0,1-4.34,1.25H33v5.56H30.6V310.18h4.28a6.49,6.49,0,0,1,4.18,1.14A4.08,4.08,0,0,1,40.45,314.68ZM33,317.45h1.29a4.66,4.66,0,0,0,2.75-.65,2.38,2.38,0,0,0,.87-2,2.31,2.31,0,0,0-.78-1.91,3.87,3.87,0,0,0-2.44-.63H33Z" transform="translate(0.99 -141.88)"/><path class="b" d="M52.65,325.06l-1.48-4.13H45.48L44,325.06H41.46L47,310.12h2.65l5.57,14.94Zm-2.12-6.23-1.4-4.05c-.1-.27-.24-.7-.42-1.28s-.31-1-.37-1.28a23.08,23.08,0,0,1-.81,2.74l-1.34,3.87Z" transform="translate(0.99 -141.88)"/><path class="b" d="M71.2,321a3.75,3.75,0,0,1-1.44,3.12,6.24,6.24,0,0,1-4,1.13,9.33,9.33,0,0,1-4.13-.79v-2.3a11.74,11.74,0,0,0,2.16.76,9.42,9.42,0,0,0,2.14.27,3.37,3.37,0,0,0,2.13-.55,1.79,1.79,0,0,0,.69-1.47,1.84,1.84,0,0,0-.64-1.42,9.33,9.33,0,0,0-2.6-1.37,6.8,6.8,0,0,1-2.87-1.89,4,4,0,0,1-.84-2.54A3.54,3.54,0,0,1,63.17,311,5.43,5.43,0,0,1,66.72,310a10.34,10.34,0,0,1,4.25.94l-.77,2a9.22,9.22,0,0,0-3.54-.84,2.71,2.71,0,0,0-1.79.52,1.68,1.68,0,0,0-.61,1.36,1.94,1.94,0,0,0,.24,1,2.39,2.39,0,0,0,.8.78,14.47,14.47,0,0,0,2,1,10.63,10.63,0,0,1,2.4,1.27,3.76,3.76,0,0,1,1.12,1.33A4,4,0,0,1,71.2,321Z" transform="translate(0.99 -141.88)"/><path class="b" d="M79.53,325.27a3.94,3.94,0,0,1-3.31-1.54h-.15c.1.95.15,1.53.15,1.73v4.61h-2.4V313.81h1.94q.08.31.33,1.5h.13a3.73,3.73,0,0,1,3.36-1.71,3.91,3.91,0,0,1,3.28,1.53,8.41,8.41,0,0,1,0,8.59A4,4,0,0,1,79.53,325.27ZM79,315.56a2.47,2.47,0,0,0-2.08.83,4.4,4.4,0,0,0-.65,2.67v.35a5.2,5.2,0,0,0,.65,3,2.4,2.4,0,0,0,2.13.92,2.16,2.16,0,0,0,1.91-1,5.21,5.21,0,0,0,.67-2.9,5,5,0,0,0-.67-2.86A2.2,2.2,0,0,0,79,315.56Z" transform="translate(0.99 -141.88)"/><path class="b" d="M91.73,325.27a5.46,5.46,0,0,1-4.11-1.53,5.82,5.82,0,0,1-1.48-4.22,6.42,6.42,0,0,1,1.37-4.34,4.77,4.77,0,0,1,3.78-1.58A4.6,4.6,0,0,1,94.81,315a5.17,5.17,0,0,1,1.3,3.72V320H88.6a3.69,3.69,0,0,0,.89,2.52,3.08,3.08,0,0,0,2.35.88,9.1,9.1,0,0,0,1.86-.18,10.39,10.39,0,0,0,1.85-.63v1.94a7.15,7.15,0,0,1-1.78.59A10.31,10.31,0,0,1,91.73,325.27Zm-.44-9.86a2.42,2.42,0,0,0-1.83.73,3.48,3.48,0,0,0-.82,2.1h5.11a3.07,3.07,0,0,0-.67-2.11A2.28,2.28,0,0,0,91.29,315.41Z" transform="translate(0.99 -141.88)"/><path class="b" d="M103.36,325.27a5,5,0,0,1-3.88-1.49,7.56,7.56,0,0,1,.06-8.65,5.16,5.16,0,0,1,4-1.53,7.54,7.54,0,0,1,3.2.66l-.72,1.93a7.11,7.11,0,0,0-2.5-.59q-2.92,0-2.93,3.88a4.66,4.66,0,0,0,.73,2.84,2.52,2.52,0,0,0,2.14.95,6.11,6.11,0,0,0,3-.79v2.08a4.35,4.35,0,0,1-1.37.54A8.1,8.1,0,0,1,103.36,325.27Z" transform="translate(0.99 -141.88)"/><rect class="g" x="6.77" width="166.77" height="41.69"/><path class="b" d="M30.27,170,26,157.54h-.08q.18,2.76.18,5.19V170H23.84V155.08h3.43l4.13,11.84h.06l4.26-11.84h3.44V170H36.81v-7.35c0-.74,0-1.71.06-2.9s.07-1.9.1-2.15h-.08L32.42,170Z" transform="translate(0.99 -141.88)"/><path class="b" d="M47.74,170.17a5.46,5.46,0,0,1-4.11-1.53,5.81,5.81,0,0,1-1.48-4.22,6.42,6.42,0,0,1,1.37-4.34,4.77,4.77,0,0,1,3.78-1.58,4.64,4.64,0,0,1,3.52,1.36,5.16,5.16,0,0,1,1.29,3.72v1.3h-7.5a3.68,3.68,0,0,0,.89,2.51,3.07,3.07,0,0,0,2.35.89,9.16,9.16,0,0,0,1.86-.19,10,10,0,0,0,1.84-.63v1.94a7.4,7.4,0,0,1-1.77.6A11.27,11.27,0,0,1,47.74,170.17Zm-.44-9.85a2.42,2.42,0,0,0-1.83.72,3.43,3.43,0,0,0-.82,2.11h5.11a3.14,3.14,0,0,0-.67-2.12A2.28,2.28,0,0,0,47.3,160.32Z" transform="translate(0.99 -141.88)"/><path class="b" d="M59,168.23a6,6,0,0,0,1.76-.27v1.8a4.79,4.79,0,0,1-1,.29,6.91,6.91,0,0,1-1.3.12c-2.26,0-3.39-1.2-3.39-3.58v-6.07H53.52v-1.06l1.65-.88L56,156.2h1.48v2.51h3.2v1.81h-3.2v6a1.68,1.68,0,0,0,.43,1.28A1.56,1.56,0,0,0,59,168.23Z" transform="translate(0.99 -141.88)"/><path class="b" d="M68.74,158.5a5.6,5.6,0,0,1,1.19.11l-.24,2.22a4.59,4.59,0,0,0-1.06-.12,3,3,0,0,0-2.32.94,3.34,3.34,0,0,0-.89,2.43V170H63V158.71H64.9l.31,2h.13a4.51,4.51,0,0,1,1.46-1.6A3.48,3.48,0,0,1,68.74,158.5Z" transform="translate(0.99 -141.88)"/><path class="b" d="M71.87,155.72a1.33,1.33,0,0,1,.35-1,1.59,1.59,0,0,1,2,0,1.53,1.53,0,0,1,0,1.95,1.59,1.59,0,0,1-2,0A1.34,1.34,0,0,1,71.87,155.72ZM74.4,170H72V158.71H74.4Z" transform="translate(0.99 -141.88)"/><path class="b" d="M82.36,170.17a5,5,0,0,1-3.88-1.49,7.56,7.56,0,0,1,.06-8.65,5.16,5.16,0,0,1,4-1.53,7.36,7.36,0,0,1,3.2.67L85,161.09a7.29,7.29,0,0,0-2.5-.59q-2.92,0-2.92,3.88a4.66,4.66,0,0,0,.72,2.84,2.52,2.52,0,0,0,2.14.95,6.11,6.11,0,0,0,3-.79v2.09a4.78,4.78,0,0,1-1.37.54A8.77,8.77,0,0,1,82.36,170.17Z" transform="translate(0.99 -141.88)"/><path class="b" d="M102.4,165.92A3.74,3.74,0,0,1,101,169a6.28,6.28,0,0,1-4,1.13,9.33,9.33,0,0,1-4.13-.79v-2.3a11.74,11.74,0,0,0,2.16.76,9.41,9.41,0,0,0,2.13.27,3.39,3.39,0,0,0,2.14-.55,1.8,1.8,0,0,0,.68-1.47,1.86,1.86,0,0,0-.63-1.42,9.77,9.77,0,0,0-2.6-1.37,6.8,6.8,0,0,1-2.87-1.89,4,4,0,0,1-.84-2.54,3.54,3.54,0,0,1,1.33-2.93,5.49,5.49,0,0,1,3.55-1.07,10.34,10.34,0,0,1,4.25.94l-.77,2a9.23,9.23,0,0,0-3.54-.83,2.76,2.76,0,0,0-1.8.51,1.71,1.71,0,0,0-.61,1.36,1.91,1.91,0,0,0,.25,1,2.39,2.39,0,0,0,.8.78,14.47,14.47,0,0,0,2,1,11.05,11.05,0,0,1,2.4,1.27,3.76,3.76,0,0,1,1.12,1.33A4,4,0,0,1,102.4,165.92Z" transform="translate(0.99 -141.88)"/><path class="b" d="M109.94,170.17a5.46,5.46,0,0,1-4.11-1.53,5.81,5.81,0,0,1-1.48-4.22,6.37,6.37,0,0,1,1.38-4.34,4.73,4.73,0,0,1,3.77-1.58,4.64,4.64,0,0,1,3.52,1.36,5.17,5.17,0,0,1,1.3,3.72v1.3h-7.51a3.68,3.68,0,0,0,.89,2.51,3.08,3.08,0,0,0,2.35.89,9.08,9.08,0,0,0,1.86-.19,10.39,10.39,0,0,0,1.85-.63v1.94a7.62,7.62,0,0,1-1.78.6A11.19,11.19,0,0,1,109.94,170.17Zm-.44-9.85a2.42,2.42,0,0,0-1.83.72,3.49,3.49,0,0,0-.82,2.11H112a3.09,3.09,0,0,0-.67-2.12A2.28,2.28,0,0,0,109.5,160.32Z" transform="translate(0.99 -141.88)"/><path class="b" d="M122.74,158.5a5.47,5.47,0,0,1,1.19.11l-.23,2.22a4.59,4.59,0,0,0-1.06-.12,3,3,0,0,0-2.32.94,3.34,3.34,0,0,0-.89,2.43V170H117V158.71h1.88l.31,2h.12a4.6,4.6,0,0,1,1.46-1.6A3.51,3.51,0,0,1,122.74,158.5Z" transform="translate(0.99 -141.88)"/><path class="b" d="M128.59,170l-4.28-11.25h2.53l2.29,6.54a13.08,13.08,0,0,1,.71,2.67h.08a18.15,18.15,0,0,1,.71-2.67l2.29-6.54h2.55L131.17,170Z" transform="translate(0.99 -141.88)"/><path class="b" d="M142.09,170.17a5.42,5.42,0,0,1-4.1-1.53,5.81,5.81,0,0,1-1.49-4.22,6.37,6.37,0,0,1,1.38-4.34,4.75,4.75,0,0,1,3.78-1.58,4.65,4.65,0,0,1,3.52,1.36,5.16,5.16,0,0,1,1.29,3.72v1.3H139a3.67,3.67,0,0,0,.88,2.51,3.09,3.09,0,0,0,2.36.89,9,9,0,0,0,1.85-.19,10.13,10.13,0,0,0,1.85-.63v1.94a7.4,7.4,0,0,1-1.77.6A11.39,11.39,0,0,1,142.09,170.17Zm-.43-9.85a2.42,2.42,0,0,0-1.83.72,3.43,3.43,0,0,0-.82,2.11h5.11a3.2,3.2,0,0,0-.67-2.12A2.29,2.29,0,0,0,141.66,160.32Z" transform="translate(0.99 -141.88)"/><path class="b" d="M154.9,158.5a5.54,5.54,0,0,1,1.19.11l-.24,2.22a4.51,4.51,0,0,0-1-.12,3,3,0,0,0-2.33.94,3.38,3.38,0,0,0-.89,2.43V170h-2.39V158.71h1.87l.32,2h.12a4.51,4.51,0,0,1,1.46-1.6A3.51,3.51,0,0,1,154.9,158.5Z" transform="translate(0.99 -141.88)"/><rect class="g" x="338.46" width="166.77" height="41.69"/><path class="b" d="M380.55,170l-1.49-4.13h-5.69L371.92,170h-2.57L374.92,155h2.65L383.14,170Zm-2.13-6.22L377,159.68c-.1-.27-.24-.69-.42-1.28s-.31-1-.38-1.28a22.91,22.91,0,0,1-.8,2.74l-1.34,3.88Z" transform="translate(0.99 -141.88)"/><path class="b" d="M395,159.58a4.37,4.37,0,0,1-1.52,3.58,6.79,6.79,0,0,1-4.35,1.24h-1.55V170H385.1V155.08h4.29a6.44,6.44,0,0,1,4.17,1.14A4.08,4.08,0,0,1,395,159.58Zm-7.42,2.77h1.3a4.65,4.65,0,0,0,2.74-.65,2.35,2.35,0,0,0,.88-2,2.31,2.31,0,0,0-.78-1.91,3.91,3.91,0,0,0-2.45-.63h-1.69Z" transform="translate(0.99 -141.88)"/><path class="b" d="M397.93,170V155.08h2.43V170Z" transform="translate(0.99 -141.88)"/><path class="b" d="M418.28,165.92a3.76,3.76,0,0,1-1.43,3.12,6.28,6.28,0,0,1-4,1.13,9.4,9.4,0,0,1-4.14-.79v-2.3a11.59,11.59,0,0,0,2.17.76,9.27,9.27,0,0,0,2.13.27,3.37,3.37,0,0,0,2.13-.55,1.78,1.78,0,0,0,.69-1.47,1.86,1.86,0,0,0-.63-1.42,9.71,9.71,0,0,0-2.61-1.37,6.93,6.93,0,0,1-2.87-1.89,4,4,0,0,1-.83-2.54,3.56,3.56,0,0,1,1.32-2.93,5.5,5.5,0,0,1,3.55-1.07,10.35,10.35,0,0,1,4.26.94l-.77,2a9.27,9.27,0,0,0-3.55-.83,2.75,2.75,0,0,0-1.79.51,1.68,1.68,0,0,0-.61,1.36,1.91,1.91,0,0,0,.24,1,2.53,2.53,0,0,0,.81.78,13.66,13.66,0,0,0,2,1,10.93,10.93,0,0,1,2.41,1.27,3.76,3.76,0,0,1,1.12,1.33A4.14,4.14,0,0,1,418.28,165.92Z" transform="translate(0.99 -141.88)"/><path class="b" d="M425.82,170.17a5.44,5.44,0,0,1-4.1-1.53,5.81,5.81,0,0,1-1.48-4.22,6.36,6.36,0,0,1,1.37-4.34,4.77,4.77,0,0,1,3.78-1.58,4.65,4.65,0,0,1,3.52,1.36,5.16,5.16,0,0,1,1.29,3.72v1.3h-7.5a3.67,3.67,0,0,0,.88,2.51,3.11,3.11,0,0,0,2.36.89,9,9,0,0,0,1.85-.19,10.13,10.13,0,0,0,1.85-.63v1.94a7.4,7.4,0,0,1-1.77.6A11.39,11.39,0,0,1,425.82,170.17Zm-.43-9.85a2.42,2.42,0,0,0-1.83.72,3.43,3.43,0,0,0-.82,2.11h5.11a3.14,3.14,0,0,0-.67-2.12A2.29,2.29,0,0,0,425.39,160.32Z" transform="translate(0.99 -141.88)"/><path class="b" d="M438.63,158.5a5.54,5.54,0,0,1,1.19.11l-.23,2.22a4.66,4.66,0,0,0-1.06-.12,3.06,3.06,0,0,0-2.33.94,3.38,3.38,0,0,0-.89,2.43V170h-2.39V158.71h1.87l.32,2h.12a4.51,4.51,0,0,1,1.46-1.6A3.51,3.51,0,0,1,438.63,158.5Z" transform="translate(0.99 -141.88)"/><path class="b" d="M444.47,170l-4.27-11.25h2.52l2.29,6.54a12.46,12.46,0,0,1,.71,2.67h.09a16.92,16.92,0,0,1,.71-2.67l2.29-6.54h2.54L447.06,170Z" transform="translate(0.99 -141.88)"/><path class="b" d="M458,170.17a5.46,5.46,0,0,1-4.11-1.53,5.85,5.85,0,0,1-1.48-4.22,6.37,6.37,0,0,1,1.38-4.34,4.73,4.73,0,0,1,3.77-1.58,4.64,4.64,0,0,1,3.52,1.36,5.13,5.13,0,0,1,1.3,3.72v1.3h-7.5a3.63,3.63,0,0,0,.88,2.51,3.08,3.08,0,0,0,2.35.89,9,9,0,0,0,1.86-.19,10.39,10.39,0,0,0,1.85-.63v1.94a7.71,7.71,0,0,1-1.77.6A11.39,11.39,0,0,1,458,170.17Zm-.44-9.85a2.42,2.42,0,0,0-1.83.72,3.43,3.43,0,0,0-.81,2.11H460a3.15,3.15,0,0,0-.68-2.12A2.28,2.28,0,0,0,457.54,160.32Z" transform="translate(0.99 -141.88)"/><path class="b" d="M470.78,158.5a5.64,5.64,0,0,1,1.2.11l-.24,2.22a4.59,4.59,0,0,0-1.06-.12,3,3,0,0,0-2.32.94,3.34,3.34,0,0,0-.89,2.43V170h-2.4V158.71H467l.31,2h.12a4.63,4.63,0,0,1,1.47-1.6A3.47,3.47,0,0,1,470.78,158.5Z" transform="translate(0.99 -141.88)"/><path class="e" d="M61.67,248.32a4.39,4.39,0,0,1,.89.07l-.17,1.68a3.5,3.5,0,0,0-.8-.1,2.29,2.29,0,0,0-1.74.71,2.51,2.51,0,0,0-.67,1.82v4.41H57.39v-8.44h1.4L59,250h.09a3.41,3.41,0,0,1,1.09-1.2A2.68,2.68,0,0,1,61.67,248.32Z" transform="translate(0.99 -141.88)"/><path class="e" d="M67.81,257.07a4.11,4.11,0,0,1-3.08-1.15,4.37,4.37,0,0,1-1.11-3.17,4.82,4.82,0,0,1,1-3.25,3.56,3.56,0,0,1,2.84-1.18,3.51,3.51,0,0,1,2.64,1,3.92,3.92,0,0,1,1,2.8v1H65.47a2.83,2.83,0,0,0,.66,1.89,2.33,2.33,0,0,0,1.77.66,6.75,6.75,0,0,0,1.39-.14,8.77,8.77,0,0,0,1.39-.47v1.45a5.64,5.64,0,0,1-1.33.45A8.77,8.77,0,0,1,67.81,257.07Zm-.32-7.39a1.8,1.8,0,0,0-1.37.54,2.57,2.57,0,0,0-.62,1.58h3.83a2.33,2.33,0,0,0-.5-1.58A1.72,1.72,0,0,0,67.49,249.68Z" transform="translate(0.99 -141.88)"/><path class="e" d="M78.81,254.51a2.22,2.22,0,0,1-.9,1.9,4.31,4.31,0,0,1-2.58.66,6.09,6.09,0,0,1-2.71-.51V255a6.73,6.73,0,0,0,2.77.68c1.1,0,1.65-.33,1.65-1a.79.79,0,0,0-.18-.53,2.11,2.11,0,0,0-.6-.44,8.7,8.7,0,0,0-1.17-.52,5.51,5.51,0,0,1-2-1.13,2.08,2.08,0,0,1-.52-1.47,1.93,1.93,0,0,1,.87-1.68,4.17,4.17,0,0,1,2.38-.6,6.77,6.77,0,0,1,2.82.6l-.58,1.35a6.39,6.39,0,0,0-2.3-.56c-.94,0-1.42.27-1.42.81a.83.83,0,0,0,.37.67,8.58,8.58,0,0,0,1.62.75,8,8,0,0,1,1.52.74,2.33,2.33,0,0,1,.7.78A2.26,2.26,0,0,1,78.81,254.51Z" transform="translate(0.99 -141.88)"/><path class="e" d="M88.24,252.68a4.61,4.61,0,0,1-1.07,3.23,3.8,3.8,0,0,1-3,1.16,4,4,0,0,1-2.09-.54,3.52,3.52,0,0,1-1.4-1.53,5.31,5.31,0,0,1-.49-2.32,4.55,4.55,0,0,1,1.06-3.21,3.81,3.81,0,0,1,3-1.15,3.72,3.72,0,0,1,2.9,1.18A4.55,4.55,0,0,1,88.24,252.68Zm-6.15,0c0,1.95.72,2.92,2.16,2.92s2.14-1,2.14-2.92-.72-2.9-2.15-2.9a1.83,1.83,0,0,0-1.64.75A3.82,3.82,0,0,0,82.09,252.68Z" transform="translate(0.99 -141.88)"/><path class="e" d="M96.25,256.91l-.25-1.1h-.09a2.55,2.55,0,0,1-1.07.92,3.59,3.59,0,0,1-1.57.34A3.07,3.07,0,0,1,91,256.3a3.14,3.14,0,0,1-.76-2.31v-5.52H92v5.21a2.22,2.22,0,0,0,.4,1.45,1.52,1.52,0,0,0,1.24.49,2,2,0,0,0,1.66-.68,3.73,3.73,0,0,0,.53-2.26v-4.21h1.8v8.44Z" transform="translate(0.99 -141.88)"/><path class="e" d="M104.5,248.32a4.56,4.56,0,0,1,.9.07l-.18,1.68a3.42,3.42,0,0,0-.79-.1,2.31,2.31,0,0,0-1.75.71,2.55,2.55,0,0,0-.67,1.82v4.41h-1.79v-8.44h1.4l.24,1.49H102a3.44,3.44,0,0,1,1.1-1.2A2.63,2.63,0,0,1,104.5,248.32Z" transform="translate(0.99 -141.88)"/><path class="e" d="M110.37,257.07a3.74,3.74,0,0,1-2.92-1.12,5.7,5.7,0,0,1,0-6.49,3.87,3.87,0,0,1,3-1.14,5.7,5.7,0,0,1,2.41.49l-.55,1.45a5.3,5.3,0,0,0-1.87-.45c-1.46,0-2.2,1-2.2,2.91a3.53,3.53,0,0,0,.55,2.14,1.9,1.9,0,0,0,1.6.71,4.69,4.69,0,0,0,2.27-.59v1.56a3.5,3.5,0,0,1-1,.4A5.55,5.55,0,0,1,110.37,257.07Z" transform="translate(0.99 -141.88)"/><path class="e" d="M118.39,257.07a4.11,4.11,0,0,1-3.08-1.15,4.37,4.37,0,0,1-1.11-3.17,4.77,4.77,0,0,1,1-3.25,3.55,3.55,0,0,1,2.83-1.18,3.48,3.48,0,0,1,2.64,1,3.88,3.88,0,0,1,1,2.8v1h-5.62a2.73,2.73,0,0,0,.66,1.89,2.32,2.32,0,0,0,1.76.66,6.85,6.85,0,0,0,1.4-.14,8.35,8.35,0,0,0,1.38-.47v1.45a5.64,5.64,0,0,1-1.33.45A8.65,8.65,0,0,1,118.39,257.07Zm-.33-7.39a1.8,1.8,0,0,0-1.37.54,2.57,2.57,0,0,0-.61,1.58h3.83a2.28,2.28,0,0,0-.51-1.58A1.7,1.7,0,0,0,118.06,249.68Z" transform="translate(0.99 -141.88)"/><path class="e" d="M133.73,256.91l-.26-1.1h-.09a2.52,2.52,0,0,1-1.06.92,3.63,3.63,0,0,1-1.58.34,3.11,3.11,0,0,1-2.29-.77,3.18,3.18,0,0,1-.75-2.31v-5.52h1.8v5.21a2.28,2.28,0,0,0,.4,1.45,1.54,1.54,0,0,0,1.25.49,2,2,0,0,0,1.66-.68,3.73,3.73,0,0,0,.53-2.26v-4.21h1.8v8.44Z" transform="translate(0.99 -141.88)"/><path class="e" d="M143.37,254.51a2.22,2.22,0,0,1-.9,1.9,4.31,4.31,0,0,1-2.58.66,6.09,6.09,0,0,1-2.71-.51V255a6.73,6.73,0,0,0,2.77.68c1.1,0,1.65-.33,1.65-1a.79.79,0,0,0-.18-.53,2.11,2.11,0,0,0-.6-.44,8.7,8.7,0,0,0-1.17-.52,5.51,5.51,0,0,1-2-1.13,2.08,2.08,0,0,1-.52-1.47,1.91,1.91,0,0,1,.88-1.68,4.12,4.12,0,0,1,2.37-.6,6.73,6.73,0,0,1,2.82.6l-.58,1.35a6.39,6.39,0,0,0-2.3-.56c-.94,0-1.42.27-1.42.81a.83.83,0,0,0,.37.67,8.58,8.58,0,0,0,1.62.75,8,8,0,0,1,1.52.74,2.33,2.33,0,0,1,.7.78A2.26,2.26,0,0,1,143.37,254.51Z" transform="translate(0.99 -141.88)"/><path class="e" d="M150.59,256.91l-.36-1.17h-.06a3.6,3.6,0,0,1-1.23,1.05,4,4,0,0,1-1.59.28,2.72,2.72,0,0,1-1.94-.67,2.52,2.52,0,0,1-.7-1.91,2.23,2.23,0,0,1,1-2,5.63,5.63,0,0,1,3-.72l1.45-.05v-.45a1.72,1.72,0,0,0-.37-1.21,1.6,1.6,0,0,0-1.18-.4,4.28,4.28,0,0,0-1.24.19,10.56,10.56,0,0,0-1.15.45l-.58-1.28a6,6,0,0,1,1.51-.54,6.61,6.61,0,0,1,1.54-.19,3.65,3.65,0,0,1,2.43.7,2.74,2.74,0,0,1,.82,2.21v5.68Zm-2.67-1.22a2.25,2.25,0,0,0,1.57-.54,2,2,0,0,0,.59-1.53v-.74l-1.09.05a3.72,3.72,0,0,0-1.84.42,1.3,1.3,0,0,0-.58,1.16,1.12,1.12,0,0,0,.34.87A1.42,1.42,0,0,0,147.92,255.69Z" transform="translate(0.99 -141.88)"/><path class="e" d="M161.51,248.47v1l-1.45.26a2,2,0,0,1,.33.66,2.47,2.47,0,0,1,.13.82,2.54,2.54,0,0,1-.9,2.06,3.77,3.77,0,0,1-2.48.75,3.29,3.29,0,0,1-.73-.07,1,1,0,0,0-.58.84.47.47,0,0,0,.27.44,2.29,2.29,0,0,0,1,.14h1.48a3.25,3.25,0,0,1,2.12.6,2.11,2.11,0,0,1,.73,1.72,2.5,2.5,0,0,1-1.19,2.21,6.23,6.23,0,0,1-3.42.78,4.67,4.67,0,0,1-2.63-.61,2,2,0,0,1-.91-1.74,1.84,1.84,0,0,1,.49-1.31,2.7,2.7,0,0,1,1.38-.74,1.27,1.27,0,0,1-.59-.49,1.2,1.2,0,0,1-.23-.71,1.19,1.19,0,0,1,.26-.8,3.08,3.08,0,0,1,.8-.65,2.38,2.38,0,0,1-1.07-.92,2.76,2.76,0,0,1-.41-1.5,2.69,2.69,0,0,1,.87-2.13,3.66,3.66,0,0,1,2.47-.75,4.89,4.89,0,0,1,.75.05,5.36,5.36,0,0,1,.59.1Zm-6.64,9.76a1,1,0,0,0,.53.89,2.81,2.81,0,0,0,1.46.31,4.46,4.46,0,0,0,2.19-.42,1.26,1.26,0,0,0,.72-1.11.83.83,0,0,0-.4-.78,3.07,3.07,0,0,0-1.46-.24h-1.36a1.85,1.85,0,0,0-1.22.37A1.16,1.16,0,0,0,154.87,258.23Zm.77-7a1.74,1.74,0,0,0,.41,1.23,1.55,1.55,0,0,0,1.17.42c1,0,1.56-.55,1.56-1.66a1.92,1.92,0,0,0-.38-1.27,1.47,1.47,0,0,0-1.18-.45,1.53,1.53,0,0,0-1.18.44A1.91,1.91,0,0,0,155.64,251.2Z" transform="translate(0.99 -141.88)"/><path class="e" d="M166.76,257.07a4.11,4.11,0,0,1-3.08-1.15,4.37,4.37,0,0,1-1.11-3.17,4.77,4.77,0,0,1,1-3.25,3.55,3.55,0,0,1,2.83-1.18,3.5,3.5,0,0,1,2.64,1,3.88,3.88,0,0,1,1,2.8v1h-5.62a2.73,2.73,0,0,0,.66,1.89,2.31,2.31,0,0,0,1.76.66,6.85,6.85,0,0,0,1.4-.14,8.35,8.35,0,0,0,1.38-.47v1.45a5.64,5.64,0,0,1-1.33.45A8.65,8.65,0,0,1,166.76,257.07Zm-.33-7.39a1.8,1.8,0,0,0-1.37.54,2.57,2.57,0,0,0-.61,1.58h3.83a2.28,2.28,0,0,0-.51-1.58A1.7,1.7,0,0,0,166.43,249.68Z" transform="translate(0.99 -141.88)"/><path class="e" d="M373.79,241.87a6.11,6.11,0,0,1-1.37,4.24,5.73,5.73,0,0,1-7.74,0,6.15,6.15,0,0,1-1.35-4.26,6.06,6.06,0,0,1,1.36-4.25,5,5,0,0,1,3.89-1.48,4.91,4.91,0,0,1,3.85,1.51A6.11,6.11,0,0,1,373.79,241.87Zm-8.52,0a5,5,0,0,0,.83,3.13,3.4,3.4,0,0,0,4.92,0,6.33,6.33,0,0,0,0-6.25,2.91,2.91,0,0,0-2.45-1.06,3,3,0,0,0-2.48,1.06A4.93,4.93,0,0,0,365.27,241.87Z" transform="translate(0.99 -141.88)"/><path class="e" d="M386.09,241.87a6.1,6.1,0,0,1-1.36,4.24,5.73,5.73,0,0,1-7.74,0,7.31,7.31,0,0,1,0-8.51,5,5,0,0,1,3.88-1.48,4.89,4.89,0,0,1,3.85,1.51A6.06,6.06,0,0,1,386.09,241.87Zm-8.52,0a5,5,0,0,0,.83,3.13,3.4,3.4,0,0,0,4.92,0,6.33,6.33,0,0,0,0-6.25,2.9,2.9,0,0,0-2.45-1.06,2.94,2.94,0,0,0-2.47,1.06A4.93,4.93,0,0,0,377.57,241.87Z" transform="translate(0.99 -141.88)"/><path class="e" d="M393.31,247.47l-3.23-9.32H390c.08,1.38.13,2.68.13,3.89v5.43h-1.66V236.31h2.57l3.1,8.88h0l3.19-8.88H400v11.16h-1.76V242c0-.55,0-1.28,0-2.17s.06-1.43.08-1.62h-.06l-3.36,9.31Z" transform="translate(0.99 -141.88)"/><path class="e" d="M410.47,247.62a4.07,4.07,0,0,1-3.08-1.15,4.35,4.35,0,0,1-1.11-3.16,4.82,4.82,0,0,1,1-3.25,3.58,3.58,0,0,1,2.84-1.19,3.48,3.48,0,0,1,2.64,1,3.91,3.91,0,0,1,1,2.79v1h-5.63a2.83,2.83,0,0,0,.66,1.89,2.33,2.33,0,0,0,1.77.66,6.12,6.12,0,0,0,1.39-.14,7.12,7.12,0,0,0,1.39-.47v1.46a5.19,5.19,0,0,1-1.33.44A7.9,7.9,0,0,1,410.47,247.62Zm-.32-7.39a1.8,1.8,0,0,0-1.37.54,2.6,2.6,0,0,0-.62,1.58H412a2.32,2.32,0,0,0-.5-1.58A1.72,1.72,0,0,0,410.15,240.23Z" transform="translate(0.99 -141.88)"/><path class="e" d="M417.72,247.47,414.51,239h1.9l1.71,4.91a9.35,9.35,0,0,1,.54,2h.06a13.5,13.5,0,0,1,.53-2L421,239h1.91l-3.22,8.44Z" transform="translate(0.99 -141.88)"/><path class="e" d="M427.85,247.62a4.07,4.07,0,0,1-3.08-1.15,4.35,4.35,0,0,1-1.11-3.16,4.77,4.77,0,0,1,1-3.25,3.56,3.56,0,0,1,2.83-1.19,3.45,3.45,0,0,1,2.64,1,3.87,3.87,0,0,1,1,2.79v1h-5.62a2.73,2.73,0,0,0,.66,1.89,2.31,2.31,0,0,0,1.76.66,6.21,6.21,0,0,0,1.4-.14,6.83,6.83,0,0,0,1.38-.47v1.46a5.19,5.19,0,0,1-1.33.44A7.8,7.8,0,0,1,427.85,247.62Zm-.33-7.39a1.8,1.8,0,0,0-1.37.54,2.59,2.59,0,0,0-.61,1.58h3.83a2.37,2.37,0,0,0-.5-1.58A1.74,1.74,0,0,0,427.52,240.23Z" transform="translate(0.99 -141.88)"/><path class="e" d="M440.6,247.47h-1.8v-5.19a2.23,2.23,0,0,0-.4-1.46,1.5,1.5,0,0,0-1.24-.48,2,2,0,0,0-1.67.67,3.72,3.72,0,0,0-.53,2.25v4.21h-1.79V239h1.41l.25,1.1h.09a2.53,2.53,0,0,1,1.08-.93,3.63,3.63,0,0,1,1.56-.33q3,0,3,3.1Z" transform="translate(0.99 -141.88)"/><path class="e" d="M446.24,246.17a4.53,4.53,0,0,0,1.31-.2v1.35a3.54,3.54,0,0,1-.76.21,5.25,5.25,0,0,1-1,.09c-1.7,0-2.55-.89-2.55-2.68v-4.55h-1.15v-.8l1.24-.65.61-1.79h1.1V239h2.41v1.36h-2.41v4.51a1.24,1.24,0,0,0,.33,1A1.17,1.17,0,0,0,446.24,246.17Z" transform="translate(0.99 -141.88)"/><path class="e" d="M454.91,245.06a2.21,2.21,0,0,1-.9,1.9,4.31,4.31,0,0,1-2.58.66,6.12,6.12,0,0,1-2.71-.51v-1.55a6.63,6.63,0,0,0,2.77.69c1.11,0,1.66-.33,1.66-1a.82.82,0,0,0-.18-.54,2.34,2.34,0,0,0-.61-.44c-.28-.15-.67-.32-1.16-.52a5.29,5.29,0,0,1-2-1.13,2.08,2.08,0,0,1-.51-1.46,1.93,1.93,0,0,1,.87-1.69,4.15,4.15,0,0,1,2.38-.6,6.66,6.66,0,0,1,2.82.61l-.58,1.35a6.27,6.27,0,0,0-2.3-.57c-.95,0-1.42.27-1.42.81a.79.79,0,0,0,.37.67,7.41,7.41,0,0,0,1.61.76,7.39,7.39,0,0,1,1.52.74,2.07,2.07,0,0,1,.7.78A2.13,2.13,0,0,1,454.91,245.06Z" transform="translate(0.99 -141.88)"/><path class="e" d="M380.42,266.51a4.11,4.11,0,0,1-3.08-1.14,4.39,4.39,0,0,1-1.11-3.17,4.82,4.82,0,0,1,1-3.25,3.56,3.56,0,0,1,2.84-1.18,3.47,3.47,0,0,1,2.64,1,3.92,3.92,0,0,1,1,2.8v1h-5.63a2.83,2.83,0,0,0,.66,1.89,2.33,2.33,0,0,0,1.77.66,6.12,6.12,0,0,0,1.39-.14,7.12,7.12,0,0,0,1.39-.47v1.46a5.19,5.19,0,0,1-1.33.44A7.9,7.9,0,0,1,380.42,266.51Zm-.32-7.39a1.77,1.77,0,0,0-1.37.55,2.55,2.55,0,0,0-.62,1.58h3.83a2.38,2.38,0,0,0-.5-1.59A1.72,1.72,0,0,0,380.1,259.12Z" transform="translate(0.99 -141.88)"/><path class="e" d="M387.67,266.36l-3.21-8.44h1.9l1.71,4.91a9.35,9.35,0,0,1,.54,2h.06a12.31,12.31,0,0,1,.53-2l1.72-4.91h1.91l-3.22,8.44Z" transform="translate(0.99 -141.88)"/><path class="e" d="M394,255.68a1,1,0,0,1,.27-.74,1,1,0,0,1,1.75.74,1,1,0,0,1-.26.72,1.16,1.16,0,0,1-1.49,0A.94.94,0,0,1,394,255.68Zm1.91,10.68h-1.8v-8.44h1.8Z" transform="translate(0.99 -141.88)"/><path class="e" d="M401.88,266.51A3.73,3.73,0,0,1,399,265.4a5.7,5.7,0,0,1,.05-6.49,3.87,3.87,0,0,1,3-1.14,5.7,5.7,0,0,1,2.41.49l-.55,1.44a5.53,5.53,0,0,0-1.87-.44c-1.47,0-2.2,1-2.2,2.91a3.48,3.48,0,0,0,.55,2.13,1.88,1.88,0,0,0,1.6.72,4.59,4.59,0,0,0,2.27-.6V266a3.5,3.5,0,0,1-1,.4A6.26,6.26,0,0,1,401.88,266.51Z" transform="translate(0.99 -141.88)"/><path class="e" d="M409.36,265.06a4.3,4.3,0,0,0,1.31-.2v1.35a4.29,4.29,0,0,1-.77.22,6.14,6.14,0,0,1-1,.08c-1.7,0-2.55-.89-2.55-2.68v-4.55h-1.15v-.8l1.23-.65.61-1.79h1.11v1.88h2.41v1.36h-2.41v4.52a1.27,1.27,0,0,0,.32.95A1.18,1.18,0,0,0,409.36,265.06Z" transform="translate(0.99 -141.88)"/><path class="e" d="M412.25,255.68a1,1,0,0,1,.26-.74,1.06,1.06,0,0,1,.76-.26,1,1,0,0,1,.73.26,1,1,0,0,1,.27.74.94.94,0,0,1-.27.72,1,1,0,0,1-.73.27,1,1,0,0,1-.76-.27A1,1,0,0,1,412.25,255.68Zm1.9,10.68h-1.79v-8.44h1.79Z" transform="translate(0.99 -141.88)"/><path class="e" d="M424.21,262.12a4.59,4.59,0,0,1-1.07,3.23,3.76,3.76,0,0,1-2.95,1.16,4,4,0,0,1-2.09-.53,3.58,3.58,0,0,1-1.4-1.53,5.36,5.36,0,0,1-.49-2.33,4.55,4.55,0,0,1,1.06-3.2,3.81,3.81,0,0,1,3-1.15,3.72,3.72,0,0,1,2.9,1.18A4.54,4.54,0,0,1,424.21,262.12Zm-6.15,0c0,1.95.72,2.93,2.16,2.93s2.14-1,2.14-2.93-.72-2.89-2.15-2.89a1.83,1.83,0,0,0-1.64.75A3.78,3.78,0,0,0,418.06,262.12Z" transform="translate(0.99 -141.88)"/><path class="e" d="M433.69,266.36h-1.8v-5.19a2.29,2.29,0,0,0-.39-1.46,1.52,1.52,0,0,0-1.25-.48,2,2,0,0,0-1.66.67,3.73,3.73,0,0,0-.53,2.26v4.2h-1.79v-8.44h1.4l.25,1.11H428a2.51,2.51,0,0,1,1.09-.94,3.75,3.75,0,0,1,1.56-.32q3,0,3,3.09Z" transform="translate(0.99 -141.88)"/><path class="e" d="M441.86,264a2.2,2.2,0,0,1-.9,1.89,4.31,4.31,0,0,1-2.58.66,6.12,6.12,0,0,1-2.71-.51v-1.55a6.63,6.63,0,0,0,2.77.69c1.11,0,1.66-.33,1.66-1a.79.79,0,0,0-.18-.53,2.34,2.34,0,0,0-.61-.45c-.28-.15-.67-.32-1.16-.52a5.29,5.29,0,0,1-2-1.13,2.08,2.08,0,0,1-.51-1.46,1.94,1.94,0,0,1,.87-1.69,4.15,4.15,0,0,1,2.38-.59,6.8,6.8,0,0,1,2.82.6l-.58,1.35a6.23,6.23,0,0,0-2.3-.56c-1,0-1.42.26-1.42.8a.82.82,0,0,0,.37.68,8.09,8.09,0,0,0,1.61.75,7.39,7.39,0,0,1,1.52.74,2.08,2.08,0,0,1,.93,1.83Z" transform="translate(0.99 -141.88)"/><polygon class="h" points="202.98 175.94 192.55 168.13 192.55 175.29 144.05 175.29 144.05 176.6 192.55 176.6 192.55 183.76 202.98 175.94"/><polygon class="h" points="368.28 175.94 357.86 168.13 357.86 175.29 309.36 175.29 309.36 176.6 357.86 176.6 357.86 183.76 368.28 175.94"/><polygon class="h" points="234.92 120.73 233.08 107.84 228.01 112.9 175.29 60.18 174.37 61.11 227.09 113.83 222.03 118.89 234.92 120.73"/><polygon class="h" points="276.48 120.73 289.38 118.89 284.31 113.83 337.03 61.11 336.11 60.18 283.39 112.9 278.32 107.84 276.48 120.73"/></svg>